<mxfile host="app.diagrams.net" modified="2024-02-03T23:01:22.782Z" agent="Mozilla/5.0 (Windows NT 10.0; Win64; x64) AppleWebKit/537.36 (KHTML, like Gecko) Chrome/121.0.0.0 Safari/537.36 Edg/121.0.0.0" etag="SXCaOuS32hWx5fX-VfWH" version="23.1.1" type="device">
  <diagram name="Страница — 1" id="rDeTR8AU1jbk6M9yjgQ0">
    <mxGraphModel dx="1633" dy="877" grid="1" gridSize="10" guides="1" tooltips="1" connect="1" arrows="1" fold="1" page="1" pageScale="1" pageWidth="1169" pageHeight="827" math="0" shadow="0">
      <root>
        <mxCell id="0" />
        <mxCell id="1" parent="0" />
        <mxCell id="1DGZzi-8BsjLAn0v7RLl-6" value="&lt;font face=&quot;Verdana&quot; style=&quot;font-size: 14px; font-weight: normal;&quot;&gt;&lt;u&gt;NDS&lt;/u&gt;&lt;/font&gt;" style="sketch=0;html=1;verticalAlign=top;labelPosition=center;verticalLabelPosition=bottom;align=center;spacingTop=-6;fontSize=11;fontStyle=1;fontColor=#999999;shape=image;aspect=fixed;imageAspect=0;image=data:image/svg+xml,PHN2ZyB4bWxucz0iaHR0cDovL3d3dy53My5vcmcvMjAwMC9zdmciIHhtbG5zOnY9Imh0dHBzOi8vdmVjdGEuaW8vbmFubyIgd2lkdGg9IjE0LjY1OTk5OTg0NzQxMjExIiBoZWlnaHQ9IjIwIiB2aWV3Qm94PSIwIDAgMTQuNjU5OTk5ODQ3NDEyMTEgMjAiPiYjeGE7CTxzdHlsZSB0eXBlPSJ0ZXh0L2NzcyI+JiN4YTsJLnN0MHtmaWxsOiM0Mjg1ZjQ7fSYjeGE7CS5zdDF7ZmlsbDojNjY5ZGY2O30mI3hhOwkuc3Qye2ZpbGw6I2FlY2JmYTt9JiN4YTsJPC9zdHlsZT4mI3hhOwk8c3R5bGU+JiN4YTsJCS5Ee2ZpbGwtcnVsZTpldmVub2RkfSYjeGE7CTwvc3R5bGU+JiN4YTsJPHBhdGggZD0iTTcuMzMgMTUuMzV2LTMuMDFMMCA4LjQ0djMuMDF6bTAgNC42NXYtMy4wMUwwIDEzLjA5djMuMDF6IiBjbGFzcz0ic3QyIEQiLz4mI3hhOwk8cGF0aCBkPSJNMTQuNjYgOC40NGwtNy4zMyAzLjl2My4wMWw3LjMzLTMuOXptMCA0LjY1bC03LjMzIDMuOVYyMGw3LjMzLTMuOXoiIGNsYXNzPSJzdDEgRCIvPiYjeGE7CTxwYXRoIGQ9Ik03LjMzIDB2My4wMWw3LjMzIDMuOVYzLjl6IiBjbGFzcz0ic3QwIEQiLz4mI3hhOwk8cGF0aCBkPSJNMCA2LjkxbDcuMzMtMy45VjBMMCAzLjl6IiBjbGFzcz0iRCBzdDEiLz4mI3hhOwk8cGF0aCBkPSJNNy4zMyAxMC43OVY3Ljc3TDAgMy44N3YzLjAyeiIgY2xhc3M9IkQgc3QyIi8+JiN4YTsJPHBhdGggZD0iTTE0LjY2IDMuODdsLTcuMzMgMy45djMuMDJsNy4zMy0zLjl6IiBjbGFzcz0iRCBzdDEiLz4mI3hhOzwvc3ZnPg==;" vertex="1" parent="1">
          <mxGeometry x="600" y="65" width="109.71" height="144" as="geometry" />
        </mxCell>
        <mxCell id="1DGZzi-8BsjLAn0v7RLl-7" value="&lt;font face=&quot;Lucida Console&quot; size=&quot;1&quot; color=&quot;#999999&quot; style=&quot;&quot;&gt;&lt;span style=&quot;font-size: 14px;&quot;&gt;&lt;u&gt;Unprocessed Data&lt;/u&gt;&lt;/span&gt;&lt;/font&gt;" style="editableCssRules=.*;html=1;shape=image;verticalLabelPosition=bottom;labelBackgroundColor=#ffffff;verticalAlign=top;aspect=fixed;imageAspect=0;image=data:image/svg+xml,PHN2ZyB4bWxucz0iaHR0cDovL3d3dy53My5vcmcvMjAwMC9zdmciIHhtbG5zOnY9Imh0dHBzOi8vdmVjdGEuaW8vbmFubyIgd2lkdGg9IjMyMy45MDU2MTAzOTg2NzUxNSIgaGVpZ2h0PSIzNzYuNDIyMjk0OTYzNjg0MDciIHZpZXdCb3g9Ii0wLjA5NzAwMDAwMjg2MTAyMjk1IDAuMjg3OTk5OTg3NjAyMjMzOSA4NS42OTk5OTY5NDgyNDIxOSA5OS41OTUwMDEyMjA3MDMxMiI+JiN4YTs8c3R5bGUgdHlwZT0idGV4dC9jc3MiPiYjeGE7CS5zdDB7ZmlsbDojYWVjYmZhO30mI3hhOwkuc3Qxe2ZpbGw6IzY2OWRmNjt9JiN4YTsJLnN0MntmaWxsOiM0Mjg1ZjQ7fSYjeGE7PC9zdHlsZT4mI3hhOwk8cGF0aCBjbGFzcz0ic3QwIiBkPSJNLS4wOTcgNzUuODE1VjU1Ljg3NGw0Mi44NS0yMC4xODN2MTkuMDd6bTAtMzUuNDAzVjIwLjQ3MUw0Mi43NTMuMjg4djE5LjA3eiIvPiYjeGE7CTxwYXRoIGNsYXNzPSJzdDEiIGQ9Ik04NS42MDMgNzUuODE1VjU1Ljg3NGwtNDIuODUtMjAuMTgzdjE5LjA3em0wLTM1LjQwM1YyMC40NzFMNDIuNzUzLjI4OHYxOS4wN3oiLz4mI3hhOwk8cGF0aCBjbGFzcz0ic3QyIiBkPSJNNDIuNzUzIDgwLjMxNGwxNi4yMTctNy41MjUgMjEuMDg0IDkuNzE3LTM3LjMwMSAxNy4zNzd6Ii8+JiN4YTs8L3N2Zz4=;" vertex="1" parent="1">
          <mxGeometry x="378.9" y="209" width="112.2" height="132" as="geometry" />
        </mxCell>
        <mxCell id="1DGZzi-8BsjLAn0v7RLl-17" value="&lt;font face=&quot;Verdana&quot;&gt;&lt;span style=&quot;font-size: 14px; font-weight: 400;&quot;&gt;&lt;u&gt;DDS&lt;/u&gt;&lt;/span&gt;&lt;/font&gt;" style="sketch=0;html=1;verticalAlign=top;labelPosition=center;verticalLabelPosition=bottom;align=center;spacingTop=-6;fontSize=11;fontStyle=1;fontColor=#999999;shape=image;aspect=fixed;imageAspect=0;image=data:image/svg+xml,PHN2ZyB4bWxucz0iaHR0cDovL3d3dy53My5vcmcvMjAwMC9zdmciIHhtbG5zOnY9Imh0dHBzOi8vdmVjdGEuaW8vbmFubyIgd2lkdGg9IjE0LjY1OTk5OTg0NzQxMjExIiBoZWlnaHQ9IjIwIiB2aWV3Qm94PSIwIDAgMTQuNjU5OTk5ODQ3NDEyMTEgMjAiPiYjeGE7CTxzdHlsZSB0eXBlPSJ0ZXh0L2NzcyI+JiN4YTsJLnN0MHtmaWxsOiM0Mjg1ZjQ7fSYjeGE7CS5zdDF7ZmlsbDojNjY5ZGY2O30mI3hhOwkuc3Qye2ZpbGw6I2FlY2JmYTt9JiN4YTsJPC9zdHlsZT4mI3hhOwk8c3R5bGU+JiN4YTsJCS5Ee2ZpbGwtcnVsZTpldmVub2RkfSYjeGE7CTwvc3R5bGU+JiN4YTsJPHBhdGggZD0iTTcuMzMgMTUuMzV2LTMuMDFMMCA4LjQ0djMuMDF6bTAgNC42NXYtMy4wMUwwIDEzLjA5djMuMDF6IiBjbGFzcz0ic3QyIEQiLz4mI3hhOwk8cGF0aCBkPSJNMTQuNjYgOC40NGwtNy4zMyAzLjl2My4wMWw3LjMzLTMuOXptMCA0LjY1bC03LjMzIDMuOVYyMGw3LjMzLTMuOXoiIGNsYXNzPSJzdDEgRCIvPiYjeGE7CTxwYXRoIGQ9Ik03LjMzIDB2My4wMWw3LjMzIDMuOVYzLjl6IiBjbGFzcz0ic3QwIEQiLz4mI3hhOwk8cGF0aCBkPSJNMCA2LjkxbDcuMzMtMy45VjBMMCAzLjl6IiBjbGFzcz0iRCBzdDEiLz4mI3hhOwk8cGF0aCBkPSJNNy4zMyAxMC43OVY3Ljc3TDAgMy44N3YzLjAyeiIgY2xhc3M9IkQgc3QyIi8+JiN4YTsJPHBhdGggZD0iTTE0LjY2IDMuODdsLTcuMzMgMy45djMuMDJsNy4zMy0zLjl6IiBjbGFzcz0iRCBzdDEiLz4mI3hhOzwvc3ZnPg==;" vertex="1" parent="1">
          <mxGeometry x="600" y="330" width="109.71" height="144" as="geometry" />
        </mxCell>
        <mxCell id="1DGZzi-8BsjLAn0v7RLl-18" value="&lt;font face=&quot;Lucida Console&quot; size=&quot;1&quot; color=&quot;#999999&quot; style=&quot;&quot;&gt;&lt;span style=&quot;font-size: 14px;&quot;&gt;&lt;u&gt;Processed Data&lt;/u&gt;&lt;/span&gt;&lt;/font&gt;" style="editableCssRules=.*;html=1;shape=image;verticalLabelPosition=bottom;labelBackgroundColor=#ffffff;verticalAlign=top;aspect=fixed;imageAspect=0;image=data:image/svg+xml,PHN2ZyB4bWxucz0iaHR0cDovL3d3dy53My5vcmcvMjAwMC9zdmciIHhtbG5zOnY9Imh0dHBzOi8vdmVjdGEuaW8vbmFubyIgd2lkdGg9IjMyMy45MDU2MTAzOTg2NzUxNSIgaGVpZ2h0PSIzNzYuNDIyMjk0OTYzNjg0MDciIHZpZXdCb3g9Ii0wLjA5NzAwMDAwMjg2MTAyMjk1IDAuMjg3OTk5OTg3NjAyMjMzOSA4NS42OTk5OTY5NDgyNDIxOSA5OS41OTUwMDEyMjA3MDMxMiI+JiN4YTs8c3R5bGUgdHlwZT0idGV4dC9jc3MiPiYjeGE7CS5zdDB7ZmlsbDojYWVjYmZhO30mI3hhOwkuc3Qxe2ZpbGw6IzY2OWRmNjt9JiN4YTsJLnN0MntmaWxsOiM0Mjg1ZjQ7fSYjeGE7PC9zdHlsZT4mI3hhOwk8cGF0aCBjbGFzcz0ic3QwIiBkPSJNLS4wOTcgNzUuODE1VjU1Ljg3NGw0Mi44NS0yMC4xODN2MTkuMDd6bTAtMzUuNDAzVjIwLjQ3MUw0Mi43NTMuMjg4djE5LjA3eiIvPiYjeGE7CTxwYXRoIGNsYXNzPSJzdDEiIGQ9Ik04NS42MDMgNzUuODE1VjU1Ljg3NGwtNDIuODUtMjAuMTgzdjE5LjA3em0wLTM1LjQwM1YyMC40NzFMNDIuNzUzLjI4OHYxOS4wN3oiLz4mI3hhOwk8cGF0aCBjbGFzcz0ic3QyIiBkPSJNNDIuNzUzIDgwLjMxNGwxNi4yMTctNy41MjUgMjEuMDg0IDkuNzE3LTM3LjMwMSAxNy4zNzd6Ii8+JiN4YTs8L3N2Zz4=;" vertex="1" parent="1">
          <mxGeometry x="830" y="209" width="112.2" height="132" as="geometry" />
        </mxCell>
        <mxCell id="1DGZzi-8BsjLAn0v7RLl-19" value="" style="shape=image;verticalLabelPosition=bottom;labelBackgroundColor=default;verticalAlign=top;aspect=fixed;imageAspect=0;image=data:image/svg+xml,PHN2ZyB4bWxucz0iaHR0cDovL3d3dy53My5vcmcvMjAwMC9zdmciIHdpZHRoPSIyNTAwIiB2aWV3Qm94PSIwIDAgOSA4IiBoZWlnaHQ9IjIyMjIiPjxwYXRoIGZpbGw9IiNmMDAiIGQ9Im0wIDdoMXYxaC0xeiIvPjxwYXRoIGZpbGw9IiNmYzAiIGQ9Im0wIDBoMXY3aC0xem0yIDBoMXY4aC0xem0yIDBoMXY4aC0xem0yIDBoMXY4aC0xem0yIDMuMjVoMXYxLjVoLTF6Ii8+PC9zdmc+;" vertex="1" parent="1">
          <mxGeometry x="460" y="200" width="44.98" height="40" as="geometry" />
        </mxCell>
        <mxCell id="1DGZzi-8BsjLAn0v7RLl-20" value="" style="shape=image;verticalLabelPosition=bottom;labelBackgroundColor=default;verticalAlign=top;aspect=fixed;imageAspect=0;image=data:image/svg+xml,PHN2ZyB4bWxucz0iaHR0cDovL3d3dy53My5vcmcvMjAwMC9zdmciIHdpZHRoPSIyNTAwIiB2aWV3Qm94PSIwIDAgOSA4IiBoZWlnaHQ9IjIyMjIiPjxwYXRoIGZpbGw9IiNmMDAiIGQ9Im0wIDdoMXYxaC0xeiIvPjxwYXRoIGZpbGw9IiNmYzAiIGQ9Im0wIDBoMXY3aC0xem0yIDBoMXY4aC0xem0yIDBoMXY4aC0xem0yIDBoMXY4aC0xem0yIDMuMjVoMXYxLjVoLTF6Ii8+PC9zdmc+;" vertex="1" parent="1">
          <mxGeometry x="910" y="200" width="44.98" height="40" as="geometry" />
        </mxCell>
        <mxCell id="1DGZzi-8BsjLAn0v7RLl-21" value="" style="shape=image;verticalLabelPosition=bottom;labelBackgroundColor=default;verticalAlign=top;aspect=fixed;imageAspect=0;image=data:image/png,iVBORw0KGgoAAAANSUhEUgAAAeEAAAHvCAYAAABjQGd+AACAAElEQVR42uzddXgbV9YH4N9IsmzLzMxxYgozQ5M2baCQMtOWtgzb7hY2Zdhyu2VumnKaNpw2aZg5jhM7McYYM8mWLGm+P5z0y7YhnRlpZuTzPk+e7ra9o3tVW0eXzgEYY4wxxhhjjDHGGGOMMcYYY4wxxhhjjDHGGGOMMcYYY4wxxhhjjDHGGGOMMcYYY4wxxhhjjDHGGGOMMcZ6OEHpDjDGmJqJougHIBpAFIBIAEHH/Qk++tdAAN6iKPpZrVaDIAiBDofDSxAEffcjRMfxz9Tr9XYAdp1O16TX65sBtAMwA2g8+tdmALUAqo7+tRZArSAIjtN2mGkKB2HGWI8liqIJQAqAZABJABIBJNrt9hSHwxGj1+sjdTqdr9L9PNpX0WazNTocjiqDwVCg1+sPASg67k+ZIAhWpfvJnMNBmDHm8URRDAOQefRPBoAsu92erdfr4+Ehn4OiKDosFkulwWDYYTAYdgLYC2A3gCKeQauXR/zwMcYYAIii6A1gAIAhAPqKophpt9v7GgyGEKX7phSbzWaxWq0HTCbTBgAbAKwXBKFY6X6xbhyEGWOaJYpiKoAxAAbbbLZhOp1ukE6nMyrdL7Xr6OhoEkVxq8lkWgFgPYAtvJStDA7CjGnQ0eXViOP++AHwRfdBIR8AplM07wDQCcCC7kNA7QCa/vSnQRCEDqXH+acx+wAYAWACgLEOh2OYTqfzV7pfnsBms3V0dXWt8PX1/RnAYkEQKpXuU0/BQViFjh4WiUT3h2vQ0b8dBECH7g9b49E/fsc1awVgO/q/G4/+1Q6gBd0fso0AGtD94WoDUzVRFMMB9AWQiqMHh0RRTHU4HGk6nS5UEASDq/tgtVo7Ojo66h0OR63D4Sj39vYu8ff3zwdQDKAEQLErA7Uoil4AhgGYKIriJFEUR+l0Om9Xj7unE0URra2th0wm0w8Gg2EhgE2CINiV7pen4iDsZkc/XI8dDklE99WHYwE36ugfP/ILnJkWdAfkY4G5GkAFgHIApUf/WiEIQo3S75enE0VRANAbwHAAg0RR7Gu32/sbDIYwpft2Jurq6szV1dVVtbW1BxsbG3e2tLSsKy0tXTV79mwz8f2IBTANwDSHw3G2Wk4m92RWq7XN4XDM8/Hx+RzAKj7kJS8Owi4iimIaugNtJoA++P/Aq4kP16M68f+B+SCAAgD5R/9awjNq54miaAAwFMBZAEba7fbRer0+SOJjVaWrqwuHDh2yFhcXN5aUlBwuLi7OW7Jkycp9+/ZtAFAI4H8+xEVRzAZwicPhmKnT6QaAP5dUq729vUkUxbn+/v6fCoKwTen+eAL+YZeBKIohAEaj+8N12NE/oUr3y8Ws6F6WzAewH91XIfYAyOfg/L9EUUxB9+xuisPhmNQT9zEdDgf27NmD9evXd23btq1k3759Ox555BHfKVOm5AQEBKQq3T/mvLa2tgqTyfSxTqf7XBCEIqX7o1UchAmO7tmOBTDp6J+BAPRK90slOgHsQ3dQPvZnhyAIrUp3zJ1EUewL4EKHwzFLp9P1U7o/jLmKKIpiU1PT2pCQkOcBLOflaudwED5DoijGAJgOYAaAyeg+icrOjB3ds+XNx/3Z52mHPURRjAdwtSiK1wmCkKF0fxhzt5aWlhpvb+9XvL29PxIEoVH6Ez0fB+FTEEUxEsClAK5E99UIfr/k0wZgO4B1ANaiO4FAm9KdcpYoikYAswDcJIriJEEQ+GeE9XhdXV1dnZ2d3wYEBPxHEIQ9SvdHzfgD40+OZty5CMDVAM4G4PKrIAxA9/WqnQDWHP2zThCEBqU7dTJHT/He6nA4btPpdJFK94cxNRJFEQ0NDSvCwsIeFARhl9L9USMOwkeJotgLwC0AbgAQrnR/GBwAtgFYBmApgM1qWL4+epL3EVEUL3fHXV2mrA5LF+pa2tHQ0oHGVjPqms1obOtAW4cFbR1WtHVY0NphQZvZgrZOK+x2EXaHA+bO7uRTZksXbPbuLVJ/XyN0xy2U6PU6mLyN8PM1wsdogI/RgECTD3yNBoQGmhAWaEKwvy/CAk0IC/RDSED3/9YiURRRU1OzNjo6+j5BELYr3R816fFBWBTFSQD+ge5Zb49/P1SsCcBv6A7KywRBOOzOFxdFcSiAf4qieAEvOXuOLpsdZUeaUFzVgMr6FlQ3tKKqvvWP/93eqa5Mjt5eBsRFBCEuLBBxEYGICw9CXHgQkqNCEB8RBJ1O3T+aoiiivr5+bXh4+AOCIGxVuj9qoO7/Yi4iiqIOwAUAHkb3dSKmPXnoniEvA7BGEIROV7zI0ZnvcwBmKj1gRtfeaUVpdSOKqhpQXN2AkupGFFc1oKKuBXaHZxzm9TEakBoTivT4CPSKC0N6XDh6x4cj0M9H6a6dUGNj46qQkJDbBEHIV7ovSupRQfhodqILADwDIEvp/jDZdABYCWAegJ8FQaiX+kBRFBMAPHn0pLNO6QEy52w5cBi5xdXYV1KDA2W1qGnsUTfk/kdydAj6p8ViQK9Y9E+LQWJksNJd+oPdbndUV1d/HhcXd58gCM1K90cJPSYIi6I4AcDz6D7lzDyXDcBqdAfknwRBqHKm8dEiAQ85HI5/6XQ6dU4h2GmV1TRhzm87sHDTfli7FD9KoCqhgSYMSIvBkD4JGJ2ThLhw5RO2tbW1mbu6uh4OCQl5p6fdM/b4IHy01Nkb6L7jy3oWB4CN6A7I8wRBKDnVvyyK4jSHw/GWTqdLUbrjp9JitqCuqQ2NbR2obzGjqa0DTW2dsHTZ0Gq2wNJlh6Xr5EnLDHodTN5eEAQB/r5G+PkYEWDyRoCvNwJNPgj080ZEsB9CAkwwGrSdg6ahxYxvV+3G96v3oqXdJTsWmpccHYIxfVMwKjsJA3vFwkvB/+b19fUlYWFh1wqCsFbp98VdPDYIH71q9LAoiv8UBEEzMxqzpQt1ze1obO0+jdnY1gFrlx2dVhscooi2DgsAoK3DClEU/2h37AMVALwMevgavQAAJh8vBPn5HP1w9UGwX/dfj/27PcxWAF8B+Ob44hSiKEYB+C+67/uqgqXLhuKqBhRW1qOwsgHltU2oqGtBZX0LWs0Wt/UjyM8HYYEmxIQFIi48ELFhgYgND0JCZBBSokNh0Gtjpb7D0oX56/fh06Xb0NBCqi3RI5h8jBiRmYDJg9Mxvn8qvL3cfwFAFEXU1dUtjoiIuF4QhFql3xNX88ggfLTs2fuCIPRSui9/1mK2oLSm+1BIaU0jSmuaUNfc/kfgPdUMRk46nYAgPx+EBpgQExaAyGB/RIUEIDq0+6+Rwf6IDg2A0UvbM6GTsAH4Fd0BWXA4HG/odDrFcn3bHQ4UVtRjT1E1ckuqkVtcjbIjTXA4ROkPdyGDXofk6BD0igtHelw4esWFoVdcGKJCApTu2kmZLV34esUufLF8u+pOPquNyceICf1TMXVoHwzPSoBe594vXG1tbebW1tZbYmNjv1L6vXAljwrCoij6AngBwF1Kj81md+BQRR1yi2tQUF6LkppGlFQ1oKFVVXXST0kQgKiQACRGBSMpMqT7r1EhSIwMRmxYoOqvQ6hZSXUjthwow+b9h7G9oBxtHZ4TEAJM3kiPC0dOSjQGpcdhYHos/HxOv/Iiit0/c+7Q3N6JT5Zsxfer9/Ce8RkICfDFlMHpmD4yC1lJ7s1NU1ZWtiIxMfFSNSfvkcJjPkVFURwmiuIXgiD0UeL1LV027D5UhW0F5dheUI4DZbVum9UqwcugR0p0CNLjI5AeF4be8RFIjw9HSACn1D4Rhygit6gav+8qxO+7ClFe23MOgup0AvrER2BgehwG947DwF6xqrk2U9PYivcXbMbCTftVv/KgFtnJUbhsYn9MHpzutjMDLS0t7Tab7fqwsLAflB6/3DQfhI9eO3pAFMUXBEFw69ppeW0z1uwpxto9RdhdWAWrjb9RRwT5IT0+HJlJkchOjkZOchRCNZrlRw4HK+qwaNMBLNuSj9rmdqW7owo6QUBqbChGZiVhwoA09E2N/p9MUkoorm7Aaz+sxYbcUqXfHs0ICfDFBaOzMWtcX0SHumcLoqKiYlFcXNzVgiA0KT1+uWg6CIuiGADgEwAXu+s1y440YemWfPy24xCKKiVfR+0RYsMCkZMSjZyUKGQnRyMzKVLzp25Ppb3TioUb9+Pn9ftQUF6ndHdULzTQhPH9UjFhQCqGZiQo+rOxcmchXvluTY++V+wsnU7AhP6puOHcochMdP1SdXNzc7NOpzsvMDBwg9Jjl4Nmg7AoipmiKP7kjuXnVrMFizcfwJIt+cgtrlZ66Jrn7WVAdkoUBqfHYWCvOPRNjYavt5fS3ZKsuLoB3/2+B4s2H/gjdzBzjsnHiFHZSZg4IA1j+6XApMDPhdnShY8WbcbcFbv+yPvMTk8QgDE5KfjbtGHISo5y6Wt1dXU5ioqK/p2RkfGM0uOWSpNBWBTFSQ6H4yedThfoytfJLa7GvLW5WL6tAJ1Wz93fVZpBr0NWUhSG9InHiKxE9E+LcftJTCnySo/g0yVbsXp3ERwi7yvKxeRjxJTB6Th/VBb6pcW4/fWLKuvxwtersONghdJvheaMzknGzdOGoW9KtEtfp7CwcEVaWtpMQRA0e+9Mc0FYFMWrRFH8VBAEl3xFFkVg7d4ifLZsO/YUOpVsicnEz8eIoRkJGJWdhBGZiYgNd+l3LbK80iN49+eN2JjH+4iulhIdipmjszBteIZbzxiIIrBkywG89sNaNGroZoNajMxKwp0XjkKfhAiXvUZ1dXV1SEjIOB8fn4NKj5dCU0FYFMV/AnjWFf12iCJ+3XYQHy/Zynu9KpMUFYKR2YkYmZWEwb3j4WNUtoJgeW0z3vl5I37dXgCe+LqXQa/DmL4puGhMDkZmJ7ntSlNDixnPzFmJNXuKlH4LNEcnCDh/dDZuP38kQl10e8JsNnc1NTVdGxcX943S43WWZoKwKIrPA3jEFc9en1uC/87fwIdoNMDopceAXrEYk5OCiQPTEOOmU5nAsb3CLfh65S508Ul4xaXGhuGaKYMwdWhvt6Va/GVDHl75bg0n+iDw9zXib9OG47KJ/V2SaU0URZSUlLydkpJytyAImvl6rIkg7KoAXFhZj5e+WY3tBeVKD5ERZSVFYuLAXjhrYC8kRgW77HWWbyvA6z+sw5GmNqWHzP4kIsgPV5w1ABeN7euWdKyV9S2Y/fmv2FHAe8UUSVEheOCScRiVk+SS5+/fv//XzMzM8wRB0MRBHtUHYVcE4A5LFz7k048exaDX4YMHZqFfqrwHeGqb2vH83JVYs6dY6SGy0/DzMeLCsTm4ctIARIb4u/S1HKKIub/txDu/bOSMW0QTBqThX1dOdMke/8GDB/ekp6eP1MKBLVUHYVEU/w1gtpzP3HLgMJ764jdUN/A9QE+hEwQ8feM5OGdob1mfu3jzAbz87Wq0uLFgApPOaNDj4vH9cOO5QxDs79oMboWV9Xj4g8UoqW5UetiaFOTng4evmICzh8j7uwsAZWVlhxMTEwfKUV/clVQbhEVR/BuAD+R6XqfVhrd+Wo/vVu3mwzQeRBCAf145CReNzZHtme2dVjw/93cs3ZKv9PCYBH4+RlwzZRCunDzQpfeNzZYuPPPlCizfVqD0kDXrrEG98PAVE2U/uFVVVdVoMpmGBAcHq/ZEnSqDsCiK00VRnC9XGkr+tuq57r5oNK49e7Bsz8srqcE/P1qKirqek9vZ04UGmnDzeUNx4Zgclx7g+mblbrwxbx0f2iMKCfDFI1dMxFmD5C1+19DQ0Nnc3Dw+NTV1i9JjPBHVBWFRFIc7HI5VOp1Olgzvy7YW4Jk5K9Bh6VJ6aExmN547FHecP1K25y3YuB/Pz13Je3weKi48CHddOAqTB6e77DX2FFXhkQ+X4EgjH+CjOm94Bv555URZs+i1t7fbKisrz+3du/dvSo/vz1QVhEVRjHI4HLt0Op3kNCsOh4jXf1yLuSt2KT0s5gKXjO+Hh6+YIMuz7A4HXvluLb5btVvpYTE3GJGViH9cPgGJkcEueX5jawce+2QZNu8vU3qompUWG4aXbj0PSVEhsj3TbDbbDx06NL1///5LlR7f8VQThEVRNIiiuEIQhHFSn9VpteFfHy3li/UealROEl6/Y6Ys9YzbO6145IMlnPWqhzEa9Lj2nMG4YeoQeHvJn/zF4RDxxrx1+Oq3nUoPVbP8fIz493VTMGlgmmzPNJvN9srKyvPS09OXKz2+Y9QUhF8G8IDU5zS0duD+dxZwoQUPlRgZjM8fuQwBJm/Jz6ppbMW9by/AwQpO0tJTxYUH4aHLxmNM32SXPP/HNXvx0jerYXfwVUgKQQCumTIIf79glGz55M1ms726uvqctLS0FUqPD1BJEBZFcRaA76X2p665Hbe+Og+lNXwAyxOZfIz47OFLkRoTKvlZZTVNuOONn/iqGgMATBqYhkeunOSStIob80rxyAdLOMuWBIN7x+P5m6fKdqe4ra3NVltbO1oNh7UUD8KiKMba7fZ9er0+WMpzGlrMuO21eSiqalB6SMwFBAF44W/nyXJysqiyHn9/Yz5qm9uVHhZTkZAAX/zrqkmYOEC+5c9jiirrce9/F6CyvkXpYWpWRJAf3rz7fKTHhcvyvObmZmtnZ+fg6OjoXCXHpWgQFkVREEVxkSAI50p5Tn2LGbe88iPPgD3YLdOH45bpwyU/p6C8Dre9+iMn4GAnNWNkJh68bDz8fORNgVnfYsb97yzAvpIapYeoWYF+Pnj9jhmylbY8cuSI2W63Z8XGxip2KETpIHwLgPelPKO904q/vfIjCg7XKjkU5kLj+6fi5dumS66YU1bThJtf+QENLarPZMcUFhMagNnXT8Hg3vGyPrfTasM/PliEDbl8EJDK28uA5/82FeP6pcryvLKyssbAwMDUkJCQJiXGo1gQFkUxxeFw5Op0OvIif5fNjnv++wu27D+s1DCYi0UG++Obx69EoJ+0a+M1ja246T8/8B4wO2M6QcBVkwfi7xeMkrXqT5fNjsc/XY7ftmuy/K0q6HQCHrliomyZ8g4cOFCckZHRRxAEtyeUkL+e1Bmy2+1vSwnAAPD0lys4AHswQQD+fd1kyQG4obUDd7w+nwMwc4pDFPHlrztw66s/ylo9y8ugx3M3TcXMUVlKD1GzHA4Rz321Eh8s3CzL8zIyMlL27NnzmyiKbp+YuqcI55+IojhDp9M9IeUZc1fsxBfLdyjRfeYml03sj0sn9Jf0jFazBXe88ROKKlWdw52pWE1jG5ZsPoA+iZGICw+S5ZmCIGBcv1S0dVj4OqUE2wsq0NjagdE5yZK3q6KiopJ27NgR88EHHyx05xjcHoRFUfTt6uparNfryT/Newqr8Piny+FwcCUGT5USHYoXbz1P0jKgwyHiHx8swq5DlUoPh2lch9WGJVvyIYrAwPQ4CFI/8dG90jMqOwneXgZsOcArelR5pTWoa27HmL7Jkv+7REdHD54xY8aRDz74YJu7+q/EcvTDXl5eidTGdc3teOj9RZwk3YMZ9Do8dePZkjMZvTFvHR+AYbJxOER8sHAz7n9ngayn6687ZzDuvGCU0sPTtJ/W5eKlb1ZJrpAnCAL69Onz9tq1a6VfxThDbg3CoijGOhyOR+jtgae++A31fLrVo90yfTgyEyMlPWPx5gOcMpC5xLq9Jbj+xW9xuLZJtmdeP3WILFfwerIfVu/FK9+vlvwcf39/XUpKyory8vIwd/Tb3TPhx3Q6HTnf4Ly1e7FhH89sPFl6XDiuO0daacL9ZUfw7JyVSg+FebCymibc8OL3sm513DJ9uOSf/Z7um5W7ZTmsFRcX51dVVbXBHX12256wKIrJDofjM0EQSIG/oq4ZD72/mJehPZggAM/ffK6kwy8NLWbc/tpPaG7vVHo4zMN1Wm1YuiUfMWGBSI+XJ4vT8MxEdFq7sLuwSunhadb2ggqYvL0kJ/SIjY0Ny8jI8P7xxx9dmmPabTNhh8PxtE6nI23ydS9Dr4CZc696tBkjszCodxy5vSgCj3+6HDWNfBWJuYfVZse/P1uODxZulrwfecxdF47BrHF9lR6apr0xbx2WbsmX/Jyzzz774W+++Ub+PKbHcUsQFkUxSxCEK6ntl23Nx/aCcnd0lSkk0M8Hd104WtIzvv19N9dwZW4nisAHCzdj9ue/ylItSRCAh6+YgGkjMpUemmYdOz+0o6BC0nNCQ0N1CQkJLi176JYgbLfb/0FdhjZ3WvHGj+vc0U2moDsvGIUQCRVsiqoa8NZP65UeBuvBFm3aj3+8vxhWGbbMdIKAx685C6Oyk5QelmZZbXY8+N5CFFdLK+ozatSo1Oeff/4WV/XT5UFYFMVoKbPgDxZt4Wo3Hi47OQoXjMkmt++y2fHEp8th6bIpPRTWw63eXYR73/4FZov07IcGvQ4v3HKe5JsCPVmL2YJ73v4FTW0dkp4zatSoZ13VR3fMhP+u0+m8KA2rGlrx3e+73dBFphRBAB66bDx0Ei7Zf7hoCw6UHVF6KIwBALYcOIw735gvy11ik7cX3rhzpmyZunqiyroWPPLhEtjs9K2CsWPHhj/55JM3uKJ/Lg3Coiiaurq67qa2/3DhZlmWdph6TRyQhpyUaHL7vcXV+GyZ25LbMHZG9hRV4bZXf5SlYldooAlv3XU+gv3p2zU93bb8crz2w1pye0EQMGbMmOdd0TdXz4Sv8fLyCqQ0LKluxMJN+13cPaYknU7AbTNHkts7HCJemPs7py9lqlRQXodbZArEiVHBePWO6ZKzyPVk3/6+Gws30mPKuHHjombNmjVZ7n65NAh3dnb+ndr2/QWb+MPVw00bnoHUmFBy++9W7UE+15FmKlZS3Yg73vhJ8p4kAPRLjcG/r5ssuVBBT/bSt6tRRaymZjAYMH78+Efl7pPLgrAoiv19fHxIl93Ka5uxYuchV3WNqYDRoMctM0aQ29e3mPHego1KD4Ox0zpUUY+/vzEfrTLsEZ89pDdumDpU6SFplrnTiue/omfTGzVq1GgAsi5HuCwIOxyOm6ht567YybNgDzdrXF/EhAaQ27/2w1q0dXDyFqYN+YdrcddbP6NdhoRDt80cgXH9UpQekmZt2FeKncR0o4MHD/a66aabrpWzPy4JwqIoetvt9usobVvaO7FAwro9Uz9fby/ccC792/z2gnIs2yo9Gw5j7pRbXI173v4FHRKvL+kEAU/feI6krZye7pPFW8ltBwwYQN5mPRFXzYRnUg9k/bg2V/IPKVO3C0ZnI5SYmMMhinjluzWypQhkzJ12HarEwx8ulpxZy8/HiJdvn45AE7keTo+2Ma8UJdWNpLYZGRk5kDF2uiQIWyyWqyjtHKKIn9bmuqJLTCUMeh2umjyQ3H751gIUlNcpPQzGyDbkluLZOSslf5FMjAzGMzdNlXTHvidbsuUAqd3IkSONCQkJspW7kj0Ii6Loq9frp1LabjtQjsr6Frm7xFTk7CG9EU3cC7bZHXhvwSalh8CYZL9syMMHC6X/LI/KTsL1U4coPRxNWrzpAOmLkJ+fH6ZPn36NXP1wxUz4HIPBQFoj+WVjngu6w9RCEIBrzh5Ebv/z+n0or21WehiMyeLDRVvw0zrpK3+3zhguqfpYT1XV0Ir8w7RMe9nZ2WfL1Q/Zg7DVar2U0q7FbMFKvpbk0UZmJyE9jlZ3tdNqw0eLtig9BMZk9cLcVVi3t0TSM/Q6HZ69cSr5nEVPtjWfVp0vOTk5DTLFT1mDsCiKRkEQZlLa/rb9IKxdnKLSk113Nn0b5btVu7mQB/M4docD//poCQor6yU9JyLYD0/dcA7vDztpGzEIZ2VlGQDIck9M7pnwGC8vLz9KQ54Fe7Y+CREY3Due1NbSZcOcX3coPQTGXMJs6cL97yxEc3unpOeMyErEDefy/rAzdh6qJJ1UT05ORnp6+nA5+iBrEHY4HFMo7VrNFmyXWHyZqduscaTkaQC6D7E0tEpP+8eYWlXUNePBdxeiS2LBmlumD5dUEKWnMXdaUXakyel2giBg5MiRE+Xog6xBuL29nbQUvWZPkeQfPqZeJh8jpg7tTWrrcIj46redSg+BMZfbeagSr/+4TtIz9Dodnrr+bPgYudDDmTpIvPKYkpJCP2V6HNmCsCiKof7+/hmUtit3FsrVDaZCU4f2hsnHSGq7YuchPhHNeoxvf9+NXzZIuyWSGBWMe2eNVXoomkHdj4+IiEiS4/XlnAlPEgTB6edZbXZs3l8mYzeY2khZiv5i2Xalu8+YW73w9e+Sq4PNGtcXo3JkiREe71AFLQiHh4cHyfH6sgVhi8VCStCxp7AKnVabXN1gKpOVHIU+CRGktlvzy7G/jHaPjzGtsnbZ8cgHSyQVexAE4IlrJiPYn68tnU5FHW2lLTY21gAgTOrryxmEz6K041mwZ5s1Nofc9vtVu5XuPmOKOFzbhGe+XCHpGeFBfnjosvFKD0X1jjS2kdrFx8cDAO3Kx3FkCcKiKAYEBAQkUtpyEPZcRi89zhqUTmpb32LGmj3FSg+BMcX8uv0gvl+9R9IzzhnaG+P6pSo9FFVrMVtgJhQNiouLg7e3d4LU15drJjyEsh/c0t6JAxL3Pph6je+XCn9f2oGsn9fvg80urdIMY1r32vdrcUDilszDV4wnH4zsKSizYaPRiPT0dNJh5OPJFYRJl5Z3FVbC4eCadJ5q6rA+pHYOUcT8dfuU7j5jirPa7Hjsk2WSzs1EhQTgzgtGKj0UVasjZuMLCQmJkfrasgTh5ubmSZR2ucU1crw8U6FAkzdGZtNOZ27cV8rVtBg7qqS6EW/OWy/pGReP74cBvWKVHopqtXVYSO2Cg4PVcTDLy8uLlBQ4t6RajpdnKjR5cDqMBj2p7U88C2bsf3y/ejc25pWS2+sEAf+6ahIMepeUkNc86kn0gICAYKmvLfm/iCiK4SaTKdT5dsD+Ur5+4qmoS9Et7Z1Yn1uidPcZUxVRBJ76/DdJ+aVTY0Jx+aQBSg9FlahB2GQyhUh9bTm+FmVTGpXUNKDVTFsCYOoWGexPXvr6dftBTmHK2AnUNrfjhbm/S3rGLdOGISKIVGPHo7V10IKwn59fgNTXliMIZ1Ea8SzYc43tl0IuqbZ0S77S3WdMtX7dfhC/76Kn+TX5GHHPrDFKD0N1OghXlADAYDBI/kYjOQi3tbWRklhTU4Ux9ZswgHYvsbqhFbsKK5XuPmOq9uLXq9AiYRVx6rA+5LKinsohkm/p0A6+HEdyELZYLKQgXFzVIPWlmQqZfIzkX/ClW/JB/11grGeoa27HWxJPSz942TjodLTVKk8kEj94dDK8iZKDsK+vby9KuyIOwh5pVHYS+VT00q28FM3YmZi/Phfb8svJ7dPjwjFjJGkn0SNR01VQklT9maQHiKIYbDKZAp1t12m1oYrvgXqk8f1pS9GHa5t4i4KxMySKwLNzVsLaRT/EeNuMEfD19lJ6KKqg5ZkwKV90cXWDlDV4plJ6nQ6jc5JJbVfvKlK6+4xpyuHaJny+nF7qMyLYD1dNHqj0MFSBGoQFgXgC9ThSgzApJVJZTZPUfjMVykmJQqDJm9SWizUw5rzPlm6TlF3u2rMHIyzQpPQwFOdF3EKzWq3aDMLVDa1S+81UaHgmaWEETW0dfCqaMQJLlw2vfr+W3N7k7YW/TSOl/vco3l4GUjuLxSI52YWkINze3k6qU1fVwPvBnmgEMQiv3VvChTwYI1q1q1BSlrkLxmQjLjxI6WEoysdI2xu3WCwdUl9bahAmlXHimbDn8fMxIjslitR27R7eD2ZMile+X0Mu/WnQ63DTeUOVHoKifIy05ejOzk56HtGjJAVhnU5HWo6uqucg7GmG9ImHXuf8j5Pd4cCWA4eV7j5jmlZW04R5a/eS208bkYHEyGClh6EY6nJ0Z2cnrQbicSQFYS8vr3BKuyqeCXuc4ZkJpHb7imvIeVsZY//vw0VbyL9Lep0Of5vec/eGqVe1Ojs7zVJfW1IQ9vX19Xe2jbnTCjOxYgVTryF9aEF4M8+CGZNFY2sHPlu2jdz+nCG9kRgVrPQwFBFAvNXR1tbWJvW1yUFYFEUfo9HodM8b2yTvYzOVCfTzQUq009UsAQCb95cp3X3GPMbXK3ahppG20qjTCbjubFJpeM0L8vMltaupqZFciUjKTDiC0qixlYOwpxmQFgPKlXVzpxW5xdVKd58xj2HpsuHDRVvI7aeNyER0qOTqfJoT7O9Danf48GHJdyulBOEwSiMpRamZOvVLjSG1236wgnyikzF2Ygs37kd5bTOprUGvwxWTBig9BLcL8nM+CLe2tqK1tVXRmTDpUFYTL0d7nP69Ykntdh3iBB2Myc1md0iaDV84NgeBhKCkVQa9DiZvo9PtGhoaAEBywnu3z4Sb2ngm7Em8DHpkJUWS2u4urFK6+4x5pCVbDqCkupHU1uTthYvG5ig9BLcJ8vMhbafV19cDCgdh0sYBL0d7lj4JEaQ7dlabHXmlNUp3nzGP5HCI+GgxfTZ86fh+MOglV+nThIhgpy/5APgjCNO+6RyH/C47HA4/SrsOS5fUPjMVyUqiZcnaX3pEUhk2xtipLd9WgMO1TaS2kSH+mDSQVCpec6JCaEG4qqoKAOqkvj45CHd2dpJmwpYum9Q+MxXJSCQdkuelaMZczOEQMefXneT2V5w1QOkhuEVEMGk+icrKSgeAWqmvLyUIkzJ+d1o5CHuSTOJ+8N4iDsKMudqCjXmoa6ZlVuybEo3e8aTzt5oSSVyOrqurawIgeTmPHIS7uroCKe04CHsOby8DUmNoSTrySiWf7GeMnYa1y45vft9Nbj9jVJbSQ3A5ahCura2V5UOMHITtdjtpObqzi/eEPUWfxAhS0YaGFjM5qw9jzDnz1uwln8U5b3gGjMSC91oRRUxOUl1dLUvOXSlpK0kL6TwT9hwZCbT94P1lPAtmzF1azBYs3nyA1DbIzwdj+iYrPQSXig6lzYTLyspK5Hh9Kaejnb/dDMBm4wxJniItlnRVHPt5KZoxt/pm5W6IIq2tJy9J63U6xIQ6v7NqtVpx6NChAjn6IGUmTGorUn8SmOqkUoMwz4QZc6vi6gZsJVYsG5WdhPAg2glitYsJCyDdhy4tLYXNZpOl+oyU29iEHCMAh2DPkUY8lHWwXPLVOsaYkxZszCO10+t0OG94H6W77xIJEcGkdocOHQKAQjn64PaUKKTIzVQnIsiPlF/WbOlCVUOL0t1nrMdZubMQbR20Wu7TRmQq3X2XiIsgXfJBYWEhoIIgTIqnDl6O9ghpcbSl6KLKevLeFGOMztJlw/JttG3MtNgw8qxRzahjKi0tbQfQJEcfpARh0kepQMmUzVQnOTqE1K6oqkHprjPWY/2ygbYkDQCjcpKU7r7sEiJJOadQWVlZLlcf3L8nzNMgjxAbRvvhPVQhuegIY4wot7ia/EXYE68qJUfTzrUUFxcflKsPzpe/+X+kaKrjmbBHiCfupZTU8EyYsdPRCQJCA02ICPJDRLAfQgNNMHkbYfLxgsnbCH/fE98QbTVbYLM7YLZYYe2yo7m9E03tHWhu60Rjawea2jqwcGMe7r5ojNN9Gtw7HiZvL5g9pAiPt5cB8eHOTyYcDgfy8vL2yNUPchC22+0W0sCNUuI+UwvqTLiilg9lMXaMIABJUSHITo5GakwokqNDkBITirjwQFI2ujNBrV5mNOgxPDMRv++S5TyS4pKjQ6DTOT8pLC4uRnNzMy37yQlIiYgdlEZGL89OgdZTxIY7PxN2iCKq6tUVhAUBCA0wIdDkAx+jAV5eevgc/aLY1WVHp9WGTqsNrR0W1Le086EyJlmvuDCMzknGoPQ49E2NQaDJ262vL+UzeFROkscEYWqyoX379gHAPrn6QQ7CgiCQSnP4EArAM3UJDfCFydvL6XZ1Te2w2txfQ9ho0CM1NgyJkcFIiQlFUlQw4sODEB7sh7BA0xnPOKw2O6obWlHd0IrSmkbkFtdgX0k1SmsaOTizU8pJicZ5w/tgbL9UxBBzFatBv9QYpbsgG3Lxmbw8EUC+XP0gR0S9Xk8Kwt4chDUvjrCPAgDldc1u6V98RBAGpcchKykKWclRSI8Lg5cMSeiNBj0SI4ORGBmMYRkJuGR8999vNVuwNb8cK3cewrq9xeS7mMyzBJi8ccHobMwYlUX+wFeblOhQj9kXpmb8KywsPAKAVh/yBKQE4TZKOyMHYc2LiyAe669zzVJ0aKAJo7OTMDQjAYN7xyEqxL0zjQCTNyYNTMOkgWmw2uzYsv8w5q3Nxbq9xXwvvgcKCzThqskDMWtcX/j5kFLsq5ZOJyA5JhR5JTVKd0WytFjaF6NDhw7Jth8MSAjC3t7epE9UnglrX2wY7WR0hYwz4V5xYRjfPxXj+qUiMylSNafujQY9xvRNxpi+ySitacScX3di0eb95MMwTDt8vb1w/TlDcPWUgR79ORcTGqD5IOzvayQdLrXb7di5c+cWOfsiJQiTZsI+Rj6YpXXxxJlwhcSZcGSIP6YO7Y1zh2cgPS5c6bfhtJKiQvDo1ZNw64zheO2HtVi2VZaiK0yFpgxOx30Xj0VkCK0snpaEBpiU7oJkfRIiQfneXlhYiObm5t1y9oUchH19fUnTmgCT8/mGmbrEuHEm7OdjxIQBaZg8uBdGZSe57NqGK4UH+eHZm6biorE5eGHuKhRX811pT+Hva8TDV0zEucM8s8DBidgc2i9Hm5FIq4W+Z88eQMaT0YC0PWFSKZwgQtJ/pi7hQbRvws7MhPulxeDyif0xvn+qxyztDe4dj68evQJv/bQeX6/cpXR3mESZiZF48dbzyNszWmW1an9rpU8CLQjv3LnTDmC/nH2R8ulGCsLB/r5y9p8pIIywHGWzO1DfcuoDhV4GPcb3T8WVkwagX5rnXIU4ntFLjwcuHYfs5Cg8/eUKWLpsSneJEYzvn4pnbjwHvoSrelpXVK391LMZiZGkdvn5+cUASImqTkZKECb9lwgL1P5+Qk9m0OtIWwoNreaT3qUNCfDFzFFZuHRCP7efbFbK1GF9kBwdggfeXYSaxlalu8OccMn4fnjo8vGqOQzobuZObV9P8vX2QnIUrQCN3IeyAGlBuJbSKKoHHFzwZCH+vqQDDY2tf02wFhnsjxvPHYqZo7J6ZCa1jMRIvH//Rbj55R9Q1yzbtUPmQheMycY/Lp9A+h3wFHq99s5lHC89PpyUrrK8vBxFRUXr5e4P+d0UBKG5s9P5r0QRwX6kN4CpQyhxJaOh1fzH/w7298VdF47GT09fi4vH9+2RAfiY+Igg/PeeC/ishAacM7Q3/nXVpB4dgAHAoPHP75zkKFK7HTt2AMAOufsj6cRLU1NTc3R0tFN3RfQ6HSKC/HkJTqOo1xMaWswI9PPB5RP746rJAz0uiYEUabFhePOu83H76z/B3MnZttQoKykS/752ituWoO0OBypqW1Be24z6VjNqGlrR2NaBDksXzJYutJg7T9jO38cbep2AAJM3TD5GBPn5IMTfF8H+PggJMCEqxB/hQX4wSJjNavGGwvFyUqJJ7Xbu3OkAIFv1pGMkBeH29vYaAE5f2IwO5SCsVSEBtIN1MWGB+OWZ609agq2ny06OwlPXT8GD7y1SuivsT0IDfPGf26a5bMXGIYoormpAdUMrOq02eHsZ4OdjREiAL3JSonBs6t3eaUVreyeqGlpRWFmP/aVHsHl/mdMpJHWCgLBAE/593RSMyEp0ur9aX46m5r8+cODAYQBmUuNTkBSEu7q6DgPIdrZdXHgQdhdWyT0W5gbUg3WD0uOU7voJNbZ2oKHVjNqmdrR1WNDWYf2fVJMBJm/4+RgRHRqA2LDAPyosucKEAWmYNa4vflyzV+m3hR3nX1dNkv3AoN3hQF7JEVi6bIgJC0BabNhpq/oEmrwRExqA3gkRGN8/FUB3WcItBw7jy193YHtB+Rm9tkMUUdvcTj6Zb7Fq90R/ZLA/ookFNLZu3brZFX2S9Imi0+kOApjqbLvkaNrJNKY86kxYaS1mC/JKapBXWoPCynqU1TShtKbR6VlEfEQQclKi0S81GuP7p8r+4XzfxWOxo6CCE3qoxJTB6ZgwIE225zW0dqCwsh6pMaHom0pbFj2e0ev/06Ru2FeKl79djbIjTWfU1kTcEmq3aHfLhLoUXVRUhMLCwt9d0SdJQTgkJIS0SZ0YGeyKsTA30Mpebm1TO7YVlGN7QTl2HKzA4SNNspQbLK9tRnltM5Zuycd/vl2N7ORoXDQ2B1OH9YFRhkpNPkYDnrnpHFz/4nfoUqDsI/t/fj5GPHTZeFme1WK2YH9pDfqlxmBon3iX9HdUdhI+evBi3P76TyisPP0NUj/iHWctX1HqR/zis3HjRgDY5Io+SQrCERERpByaSTwT1izqt2dXc4gicouqsXZvMdbuLcahCuevset1OsRFBCLY3xeBJm/4GL1g7rQeTTRiRl1zO5rb//9AjCgCucXVyC2uxn/nb8BN5w3DxeP6Sj793ychAheOycF3q2RNUcucdM2UQeTbAMfbvL8MceFBGJ7p/P6rs0IDTXj//ovw9zfmI//wqW+RUn+XtXx4sC9xP3jr1q1WALmu6JPUDa4CURQhOHliMDEyGDpB4DJvGmRSWYaggvI6LN58AMu3FuBIk3M1RXQ6AQN7xWHCgFQMTo9DSkzoaesOt3daUVhRj0OV9dh1qBJbDhxGXXM76lvMeOmbVVi4MQ+zr5tCrlV6zM3nDcXCjXkeUbdVi0IDfHHl5IGSnmG12fHD6j2YNa6vW1OvBvv74vmbz8UVz8w95b6vycf53+Uumx1Wja7QGA16ZBIzZe3du3c3AJdshkv6yRAEob2+vr49NDTUz5l23l4GRIcGoLLeNfVlmeuoYSZc09iKpVsKsHjzgTNadvsznU7A9BGZuHXGcKf3dP18jOiXFoN+aTG4aGwOACD/cC2WbMnHsi35yCs9gutf/A5P3XC2pL3E0KM1aT9cJHuCHnYGLps4QNIXzvZOKz5ZvBW3zRxx2i92rpAYFYxZ43Iwd8WuE/5zQaDl8dfyl8Ls5CjSCXez2YyNGzeucFW/JH89a2xsrAwNDU13tl1iVDAHYQ1SaibsEEWs21uCb37fhW0HysmrKNGhAXjjzpmnPYnqjD4JEeiTEIG7LhyFpVvy8enSbXjo/UV4/JrJmDkqi/zcq6cMwg9r9p4w2xhzHaNBjwvHOH3p4w+WLhse+WAxZl9/tiIB+JipQ/ucNAgHmnxIs/OT3U/WgkG9aTc0tm/fjo6ODtkzZR0jOQh3dHQUAHA6CCdFhWBTXpmrxsVchLKEJYW504pfNuzHt7/vxuHaJknPig0PxHv3XeSyqjd6nQ7TRmTi3OEZ+Gblbrz83WqYvL0webDTvx4AumfdF47JwSdLtrqkv+zEJg3qJWkv+Nk5KzGod7ziefIzk6IQGex/wm0aavrgI42kMvKqQL0muWHDBgBwyfUkQIYg7OXltRPANGfbJRETaDNl+RrdE4SrGlrx9Yqd+Hl9HtplOAgSExqADx+Y5ZYCETpBwJVnDcC4fil45MMlSI0JJe8Rnz86C58u3SrLyW52ZqYOpdcGXrBxP7bll+Oxq89SehgQBCA5JuSEQTiSGoSbtJnj3KDXkZN0bN26tQLEWglnQnLqk+Tk5I2UdklRwa4aE3MhV+f9bmjtwFs/rcesf3+BuSt2yRKAAeDBy8a7vUJTfEQQ3rrrfLy/cDOsXbTDLHHhQRjaJ8Gt/e7JAkzeGJ5Je7+b2zvx2g9rMTA9VjX50LtO8nMXGdyzZsJZSVGkspN2ux3r16//zZV9kzwT9vb2JhU45pmwNrkqb2xDawc+W7oNP67ZK3uN3ZjQAIztl+KOt+cvQgJ88ejVZ+HHtbm4YlJ/0jPOH52NLQcOK9L/nmZMTjJ5H/fTpdvQ0t5JLhjvCtUNJ04PHEEMwrXN2gzCA9NjSe127dqF6upqdQdhAKVdXV12Ly/nvvpFhQTAx2hAp4ZToPVEcl+1sHTZ8NnSbfjqt50uO3k5IitJ0dqvgSZvhAX6orm9k3QideKANPj7GtHWod37mVoxuDctkUar2fJHutFgf3VklTN3WlFzkplrfEQQ6ZlanQkPTqf9d129ejUArHFl3yRPawRBcNTV1TmdY08QeDasRUaDfDPh1buLcMnsOfhw0RaXXn0Y11+ZWfDxpgzujaVb8kltjV56XpJ2E+rhnUWbDqDj6M+wWjJK/bbj0ElvESQQg3CNBoOwQa/DgF60/eAtW7bUAHDpCWJZPlGbm5tJnUyPd7oAE1OYTobl6PLaZtzz9i944N2FbrmmFkYsvygnQeg+DENdandHtqWeLsjPB4nEsyrLtxf88b/3lx1ReigAgPnr9p30nyUQUwcfrm1WelhO65caQ8pv4HA4sG7dOpfkiz6eLEHYZrPto7TrzUFYc/QSD2bNX7cPVzwzF+tzS9zW56Z2ddxtTIsJw4odh0hth2fxTNjVesXRPo8aWjuwt+j/q8Kt2VOkeN7vPUVV2FN04kp1ASZv0rZIi9mCFpX8LjmD+gU2NzcXFRUVy13dP1mCcGBg4DpKu/R49RxgYGfG7qDdlWkxW/DwB4vxzJwVfyzbuUteSY1bX+9kEqOCsXzbQVLbhIhgl91vZt16xdGuke08WPE/V8hazRZszT+zsoKuYHc48MLck0/gyLPgM6zOpDbU0+6rVq0CXLwfDMgUhBMTE0nZRHgmrD3UAHrjS9+RZ4FSVdSpZwmtuKqePJsYmsGzYVeiVnfbV1L9l7/33oJNcBC/sEr1+bLtKCivO+k/p+4HazEIB5q8kZUURWq7du3aWgCFru6jXKdsCqxWq9PrL0F+PuRL40wZdc20y/oNCqZeXLHjkCoqv1htdtS3mMmzpOxk2ocJOzPUazuHTpC/PK+kBnN+I1V6lWTDvlK8t+DUFfeoB2LPtE6xmgzNSCDlNujq6sLq1asXu6OPsgRhQRBs1dXVpNMIPBvWlvoWM6mdktWXzJYuLNtWIP1BEm3ZfxidVhs276cdtlTT/VNPRE3lWH7kxCst7y3YhB0FFW7rf1FlPf710ZLTzsCpy9HlGjyURd0P3rRpE2pra7UThAGgubmZlLSjN+8La4rZQptRKl196ZPFW92+F/1nv+3o3g/eeoA2E06PC3dZshQGBPh6k9qdrISmtcuOe99ZgH1uOJOQV1KDW16dd0Z3yZOIQViLM+ERxCD866+/igBWuqOPsv1G63S6DZR2fE1JWzostCs2StchrmpoVbQsoLnTijW7iwAA5XVNpH1ho5ceqTGhio3B0xkId+AtXbZTJhwyd1rx9zd+wtq9xS7r94Z9pbjttXloajuzLZ/4HhKEk6NDEBtOO8y4YcOGAwDqSI2dJFsQTktLI9Vb5OVobaHPhJUNwgAwd8VO7DxUqchrvzFvPVrMFgCAKAL55bTf7z6JvHLkKkZCusoum+O0/05bhxX3v7MA7y3YBJv99P/+mbJ02fDq92tw79u/nHGym5AAXwSanJ/xN7V1aO560pi+tCQ9jY2NWLt27Xx39VO2IOzj47NLJJR6SYgMJiXWZsqgZgPy81Z2ORoAbHYHHnpvkdtPS285cBjz1u79n793gJjQISMh0q1970koQdh6hveBRRH4aNEWXPH0XGzILZXc1415pbj62W8wd8Uup2prU0+Al9U0Se6zu43tm0xqt3LlSlitVpffDz5GtiAsCEJTfX19q7PtdIIga4F15lrU9JJK7wkf09TWgXve/gW1birJVlBeh0c+WPyXUoT5h2mV0Xgm7DoGQhC2OZmUo7i6AXe//TNufXUelm7JdyqDmsMh4rftB3H1c9/grjd/RnG109mCe8zJaH9fI/qn0Yo2rFy50gKAVB2QQtZs/HV1dcXh4eH9nG3XOz4cucXVzjZjCuggLkf7qWA5+piS6kbc9PL3ePvuC8gzgzNRVNWAO9+c/8cy9PGoM+E+CRHQCYJTsx92Zrz0zs9J7MT/DtsLyrG9oBz+vkaM7ZuC3gkR6B0fjtSYMHgbDei0dqHLZkeL2YKdByuwLb8cOw5WSC7iQT0ZrbUgPCIrCQbCf08AWLFixXoAFlJjAlmDsMVi2Q7A6SDMh7O0g/oh4KeSmfAxlXUtuPnlH/DMDedgGDGjzqms3l2EJz5dftJ6yGU1TTBbupw+sGby9kJ8ZJAmlwfVrsNqc7qMIWV/9XhtHVYs2ZKPJcTiHs4iL0drLAiPyUkmtdu9ezfy8/O/d2dfZb3vEBkZSTycxUtsWqH15ejjNbSY8fc3f8JL36yWraRmW4cVr36/Fg++t/CkARgAHKKIg8TDWbwv7BqUg0cmbyN5xqUEaoGKsppGpbt+xnSCgFHZSaS2ixYtAoAlbu2vnA+LiYnZRGnXKy4MCpZ7ZU6gZp5S03L08UQR+G7Vblz61Bz8uGYvrF20xPs2uwPz1ubioic+x9wVO3Emq5Tkw1m8L+wSlCAsCNJnw+4iCEB8uPMpK0VRW4k6MpMiERpIq5y2atWqIgDST845Qd4K7UBRR0eHzdfX16nn+vkYkRARrLklj56ojRyE1TcTPl5lXQuen/s7Pli4GZdO6I9ROUnoEx9x2pR3ByvqsGDDfizdcsDp1Jzkw1mcOcslqNW2gvx8FU3LeqZCA0ykmyi1TW0urfctt/H9U0ntGhoasHr1arcuRQMyB2FBEMSioqLKlJQUp9OUZCdHcRDWAOoVJV8VXFE6E/UtZrz7y0a8+8tGBJi8MbBXHFJiQuBj9PrjCktdczsOVtShoLxO0t1J6kw4JZoTdrgC9b9lWJCJdFLZ3SKJubG19rk8cWAaqd2SJUtgtVoXuru/cs+E0draug8AIQhHu+1wAqOjpn708ZL9R83lWs0WrNlThDV7XPP8wsoGWLvsMHo5dxgoItgfvt5eiqfh9DTNxCCcGBmMbQqWLjxTUaEBpHZVDU7fPFVMUlQI+Uvq8uXL2wGQtlSlkP1EgV6vX0Vpl53CFWK0wJl7jcfzNjp/B9PT2R0OlB5x/sCLINDL0bGTq6xvIbVLjqbdvXU36kz4SGMbqZ0SqLNgu92OFStWLAUgzwlNJ8gehLOzs0mVJ/rERzh9PYC5HzUIGzU4E3YH6lUjatIFdnLU/xaJkdr4bxEZ7Edqd7ICFWo0aQAtCK9duxYVFRU/KdFnV5ytzzObzU5/Uhu99EiP48xZamchXuXx5iB8QqXEqx/Uqybs5Kj/LZKig5Xu+hmh1m7Xykw4MtgfmUm0FdX58+fbAbildOGfyR6EBUFwVFRUkDZIspOjlXgPmBM6iTNhLe4JuwP10IsrM331VBV1LehyMg0lAMSFBcHHqP6f7/Ag2ky4ttk9KV6lmjAglXTVVRRFLFu2bD0ARS5Du+SWeVtb21ZKu6xk3hdWO4dDJFWC4T3hEyMvgfJytOzsDgcq6pzfF9bpBGQRZ2DuRL3PrJXl6IkDe5Habd++HQcOHPhaqX67JAgHBgaSpvXZHIQ1gbIvzMvRJ1ZCXQLlIOwS1CXpnBT1r+IFEINwc5v6SxiGBPhiUDqtYMP8+fNFAD8r1XeXBGFqbeGU6FDyDwpzH0qKRz6YdWIt7Z1nXIz9eIEmb4QE+CrdfY9DTaDSN1X9Qdjf1/nP1g5LF+wO+Wogu8qkgb2g19HC2dKlS3cBqFKq7y4JwoIgHG5oaHD6k0UQgMxEzourdnbCcrSO85KeFO8Lq8feIlo1t/6pMUp3/bQoWeukVm1yl7OHpJPaFRQUYPv27XOV7LvLMo9XV1cXUtrxvrD6UcronS79Y09WyteUVGNfSfUZ5f3+s9BAE2LDA5Xu/kn5GA2kQhNtnW6r6EcWFmjCwF5xpLbz5s0DgF+U7L/LgnBnZ+d6SjveF1Y/SgVVDsEnd5g4E44iXjlhJ9ditqCkhpaCcliG/CUx5ULN3a6FmfBZg9LJX/KXLFlyCECBkv13WRBOTExcQGnXVwMHHHo60eF8GKbu1/QE1OVo6pUTdmrUJenhmU5n63UbP19aEG7XQBA+Z2hvUruioiKsW7fuS6X777JPxvDw8HUOwoZ+eJAfOb0acw/KcjRPhU+OegUkgpgBiZ1abjE9CKt128Wgp10R7LSqOz95ZIg/+VDct99+C4fD4faqSX/msiAsCEJzTQ1ts4uXpNVNJCxI88Gsk6troiVDCA/kIOwKOw5WkNoFmryRrdL7wtTfPsKil1tNHpRO/mxZsGBBPoD9So/BpWuEdXV1eZR2HITVTSTeWOBAfGJ1ze2kw0DhPBN2iZLqRnLloBFZ6lySpv/qqTsKU5eiCwoKsHHjxi+U7j/g4iBst9tXUdpl876wqpGWowEIHIRPyGqzo9XsfEKEsECTapc/tW5TXimp3eicZKW73mMkRYWQJ2zffvstAHyn9BgAFwfhPn36kA5nZSVF8oeLilGDMP83PTlKfl69Todgf07Y4Qob95WR2mUnRyOaWLfXlQTigjTxV90tzhueQW67YMGCfQAOKT0GwMVB2NfXd0dXV5fTi5d+Pkakx4Ur966wUzIQTzprIfOOUuqISfIj+IS0S2zNP0z6eRUEYBKxpq0r2YnRVK3lZQUBOHdYH1Lb3NxcbN269TOlx3CMS4OwIAjWioqKGkrbgcQ8oMz1DAbnf2wcDhEOtZ/yUFAt9XAWB2GXaDVbsK+Y9NGFScRCAq7U0Um7auTn46V0109oYK84cnKU77//XgTwg9JjOMbllzcbGxt3UtpRM6Aw1zMSvh1bCSXiehLyTJgPZ7nMutwSUrt+aTGqW6Fot9CuGpmIST5c7dzhtFmwKIr46aefdgEoUXoMx7g8CHt7e5NSgg3oxTNhtaIsUVHqtPYkdS20IBxo8lG66x5rxQ7alqFOEMhl9VzFTJ0Je6svCBu99Jg8iJYreuPGjdi7d+9HSo/heC4PwllZWaQSUWGBJiREBLv9DWGnx0FYfi3ttBy9vt7qXC70BKU1jSisrCe1nTqMdnXGVWx2B2k1yqTC5ehx/VLJ1fbmzJljh0pORR/j8iAsCEJ1dXU16dId7wurkxchETwvR5+ambpcyEHYpaiz4X6pMUiMCla6+/+DMhsO8vORcMfYNainoq1WK+bPn78cQJ3SYzieWxL6VldX76G04yVp9REEWgq8LjsH4VMxW2jLhTwTdq2VO+m3WM4bRr9C4wpNbc7fRfcy6BHkp55rcKGBJozKTiK1XbRoEaqqqj5Wegx/5q6s+ospjTgIq4+XXk/6ZtzVxUH4VDo6eSasRocq6lFS3UhqO21kpqqyxFHuogPqugY3Y2QmqSQjAMydO9cMYixyJbcE4QEDBpCOgydGBiMs0OTed4SdkoF4b7DLzneET4W8HK3CPTtPQ12SjgkNwMB09dzyoJ7AV8s1OEEAZo7KIrVtaGjAkiVLvgbQofQ4/swtQVgQhIKmpibSyRM1/RAz2vUkgA9mnU4HeU9YfadXPc2izfQc/zNGZird/T9Q76Kr5Rpc/7RYJEWFkNp+//33aG9v/0zpMZyI24q8Hj58+ACl3YA0XpJWE2pxcEuXTemuqxofzFKvspom7CWWN5wyJB2BxJO8ctP6TJg6CwaAb775phrAeqXHcCJuC8KdnZ2/UdrxCWl1oX6gtJhpV3B6CvLBLF6OdotFm2izYW8vA6aNUMdsWMtB2OTthcmDaHevCwoKsGbNmveh0pJQbgvC2dnZ31DapceFw9+Xl9zUgno/r5WD8ClZu+yktJ4+Rg7C7rB8awH5mt2scX1Vcc1Hy0H47KG9ydm7PvroI9HhcKiibOGJuC0Im0ymne3t7U6vSep0AvqmxLj3XWEnFehHy9DU0u789Qh2eiLn43aLFrMF6/YWk9omR4eo4myLllOjUpeibTYbfvjhh7UAipQew8m4LQgLgmAvKysrobTlJWn1oC5Ht3bwTPh0KPWW7SKfOneXBRvoB7QuHtdX6e7jSFMbqZ3SV5RSY8PQL5U2EVu0aBGKi4vfU3QAp+G2IAwAra2tqynt+L6wevBytGsIAkhLllyZyn3W7ytBdQMp+R8mDkhTPJh1Wm1oJ2TNCgs0KXrf+eJxOeS2X3zxRTuA+Yp1/gy4NQgnJCSQcnbmpESTr8YweVELBvDBrFPTCbRfRYeaq657GIdDxPz1+0htvQx6XDy+n9JDIC1Jexn0CFUoX4OP0YBziZnHampqsGTJks+hwrvBx3NrEI6JiVnb1dXl9PqZ0aBHRlKkO7vKToI6E24x857wqeh1tJkGz4Td66e1ubARE89cMr4vfIwGRftf00hbko4ODVCkv+cOyyB/5nz++efo6OhQVcWkE3FrEBYEoaOsrKyK0nYgL0mrAnlPmFglqKeg7AcDgJ2DsFvVt5ixZg/tjE+gnw95VicX6nK6UkH4IglL0V9//XU+AFI9e3dyaxAGgMbGxo2UdoPT493dVXYCvBztGvSZMB/Mcrcf1uwlt71iUn9FrytpKQhnJ0chM5G2Arp27Vrs2rXrbbd3msDtQTgkJISUR3pAeiw5cTeTT4AfbSbcxqejT0lP/NnmibD7bT1wGGU1TaS2qbFhGJFJqwIkB+pydFSIv9v7OkvCifIPPvjACuArt3eawO1RLS0tbTnl27vJ2wvZyVHu7i77k/BA2glPPh19agG+tC83nVZauktGJ4rAN7/vJre/ZsogxfqulZlwgMkbZw/pTWpbV1eHn376aS4AWvkrN3N7EBYEobGiooJUVHloRoK7u8uOo9MJpKpWze2d5GxDPQUnQdGWhRvzyF8sh2UmIEuhg6ZaCcIzRmaSD7F9/PHHaG9v/69bOyyBIuu71dXVWynthvTmfWElhQf6QUfYu6RWb+lJAonL/LzXrgyzpQs/raNdVwKAa88erEi/qxtaQbnVFh3iviAsCMDF42jXuURRxJw5c3IBbHNbhyVSJAj7+/t/TWnXLy0G3l7KHvHvycKJ6etqm2n7UD1JEPHAWzPPhBXzze+7yNeVJg3qhcTIYLf32dJlQ1Ob89dmQwJ83Xa9amzfFCRGBZPaLl26FLm5ua+7paMyUSQIZ2Zm/uIgXHA0GvTon8Z5pJUSTrywX99sVrrrqseZyLTnSGMbft9VSGqrEwRcrdDecHUjbUk6yk2z4csnDiC3/fDDD80ASMWClKJIEBYEobm0tLSG0pb3hZVD3Rei5qztSYKoe8KcBEVRX6/YRW47fUQmIoPdf+pYzfvCKdGh5M/4w4cPY+HChZ8A0NT+l2J3fo4cOUIqsDy0D+8LKyU6NJDUjlq9pSehH8zimbCS9hRVYcfBClJbo5ce1091/94wNQi7o5rSZRPp96g/+ugjdHV1ve/yTspMsSAcHh4+h9IuMykSfsS6kkyauHBaEK6qp/3S9yQxxFkG7wkr7/Nl28ltLxiTg0g338GtJa5MubqucIDJG9NG0DKKWa1WfP7555sA5Lq0ky6gWBBOS0tbbrVand4X1ut0GNxb+dqcPVFMGC0IV9a3KN111YsNDyK141UG5W3YV4KDtFuXMBr0uP6cIW7tbx3xjAY1R8CZOn90Nny9vUhtv/vuO5SWlr7s0g66iGJBWBAEc2lp6WFK2+GZiUp1u0eLDaPN1qqIy189STx5lYG/4ChNFIEvJM2Gs906G6Z+cQsPcl0lJZ1OwKUSqky999571QB+dlkHXUjRPJANDQ2rKO1GZimX9q2n8vX2QrC/r9Ptmto6YCbUMO1J/H2NpD3hhtYOmC2cMUsNlm87SF7xMRr0uGGq+2bD9CDsupnwhP6piCV+Ed24cSPWr1//OgCbyzroQooG4ZiYmC8p7RKjghFLXBplNNTcsTwLPr044lJ0RV2z0l1nR9kdDny5fAe5/fmjs912BYgahF1ZU/gaCclL3n77bSsA1ZcsPBlFg3BiYuJqs9lMymc4IouXpN2J+gHBy6WnRz3wVlHLQVhNfl6/DzXEO7junA23mC2wdjn/sUu9Rnc6A3rFom9KNKltRUUF5s2b9yWAepd0zg0UDcKCIHQVFhYeorTlfWH3os6EqdchepLk6FBSOz7wpi5Wmx2fLaXvDZ8/OsttK3yUU/UBvt7QuaAOo5QUnu+88w46OzvflL1TbqR4bcD29vaFlHbDMhJIeYwZDTUIU0un9SQZxJqp5TwTVp356/eRt2C8DHq35ZSmJHnR6QT4+cp7PTQpKgRj+iaT2losFnz55ZdrAexxwVvkNooH4fT09I8p7QJM3shO4tKG7hLk5/yhLIBnwmciIyGC1O7wkSalu87+pMtmx+fL6LUDzh+d5ZbMVNTCH4HEHOcnc82UQeTZ9VdffYXDhw+/Ivub42aKB+Hw8PD9NTU1pJMCvC/sPv7Eb8CNhGTxPUmgyZt0/9ohisgvp91NZa41f90+8laBl0GPW6YPd3kfqSUwA4k5zk8kNNCE84bTknOIooi33nqrHABpJVVNFA/CAFBWVkbaSBnBV5XchhqE2zr4etKpZCRFktL0HT7SxFe/VMpmd0jKojV9RCZSY8Nc2kdqpjVqoZETuWLSABi99KS2ixcvxq5du54HoPlC5aoIwkaj8StKu5yUKHJwYM7x86X98rVzED6lPvG0pej8w7VKd52dwi8b8shbMTqdgL+fP9Kl/esg3i/3MtCC5p+ZvL0wa1xfcvvXX3+9FcDnrnhv3E0VQbh///7f2e3Of6HR63QYlsFL0u5gJP7ydVg5mcSpUEtzHijjIKxmXTY7Pl1K3xse3z/VpWVbu2y0CaRcQfji8X3JS9vbtm3Db7/99ho0Vi3pZFQRhAVBaCopKammtKWerGPOoZ5DJ5SN7jF0OgGDetOqgh0oO6J099lp/Lx+Hyrr6NfI7rpwtMv6ZqUGYb30kGH00uOKSQPJ7V955ZUuAO+66r1xN1UEYQCoqalZRWk3OieZXPqKMSVlJESQZwO8HK1+NrsDn0k4KT2gV6zLJhk2u4PUTo6Z8AWjs8llEYuLi/HTTz99CoA0aVMj1QTh+Ph4UtqxsEATMhJo9yyZE/iLjuyG9KEVLy+pbuQShhqxYON+SelF77xgtEsSZCi1HG3Q6ySlqHzttddEi8WiyWpJJ6OaIJyYmLiqpaWFtIE4mpekXc5mo31z9jEalO66ag3NoC1Fb8svV7rr7Ax12ex495dN5Pa94sJwLvEazyn7RZwJGyQuR583PINcO7uhoQFz5sxZCOCg7G+IglQThAVBsB88eHAfpe3onGSlu+/x2i20U85+Pnx6/US8vQwY2ItWF3trPqkCKFPI8q0FKJCwfXDrjOHkg5EnQ93bpc6gge4zEFJqJ7/zzjtobGx8XtY3QgVUE4QBwGq1fktpl50URSqzx84c9aoRB+ETG5mdRFolEEVge0GF0t1nTnCIIt6ev4HcPjYsEBdLqLV7ItRlZSlBePKgdCRGBZPatre34913390EYKOsb4QKqCoIjxw58iPKVSWdTsCobE7c4UrtxMQQ/OXoxCYOSCW1O1heiybOQqY5G/aVYssB+grGzdOGyVrFiDqzpp6qFgTg2rMHkfv7/vvvo7KycrZsb4CKqCoIC4JQR72qxEvSrkU9CBQZ4rpC4Fql1+kwtm8Kqe1W3g/WrP/O3wCReGMv0OQta6lDaqYq6kx4XL9UcqESi8WCt956azeAZbK9ASqiqiAMANXV1b9R2o3MSoRep7rheIwjTbRqSJHBtOpLnmxw7zgEEmc1G/aVKt19RrSvpAa/7yJVbgUAXDaxPxIigmXpi0FPDcLOH+gSBOBWCfmwP/30U5SUlDwpy8BVSHVRKz4+nnQJO9DPB31TaYWh2ekdIZYkpBQn8HSTB6eT2rWYLdhewDNhLfvv/I2wO+h3dG8/f4Qs/aAubVtsNqfbTByQht7ESmE2mw2vvfbaIQA/yzJwFVJdEE5KStpYX19PWvsc14+2z8ZO70gTLUNcSnSI0l1XFaOXHlOIQXjd3mJykgWmDqU1jfh5fR65/ZTBvWVJZxkWaCK1a2p17jyCIAA3T6PPgufOnYuCgoLZADz2B191QVgQBLGoqGgnpe3EgRyEXaWSmHAgJSbUJckGtGpC/zRyJZpVuwqV7j6TwQcLN6PT6vyMEugOavdePFZylsCwIFoQrmsxO/XvTxncG73jw0mv5XA48Nprr5UDIN2a0QrVBWEA0Ov1pOoYCRHBSIkOVbr7HqnFbEFds/OzYW8vA+IjgpTuvmpMG0FLvNBptfF+sIeoa27H3BWkeQYAoG9KNCYO6CWpD2GBzh+Y7LLZ0Wo+80VKnSDgxnOHkvs4b9487Nq160kAtG8sGqHKIDxo0KCvu7q6SOcIxxOvfrDTK6pqILXLSeG9egAID/LDiCxa1a+NeaXk2RNTn8+XbUeDk0u7x7vrolHku75Ggx4BhNKk9S1mp053TxmSjl5xtLrIoijipZdeqgHwBflN0ghVBmFBEFoKCgpIX/sn9Ocg7Col1RyEpTh/dBb5BP+SzQeU7j6TUXunFR8spKezTIgIxqxxOaS2USEBpOXsBieWonU6AX+TsBc8b948bN269RkAHl+QXJVBGADq6+t/pLTLSo5CeBDfTXUFag1bV9ZF1QqdTsCFY2gfms3tnVi3t0TpITCZ/bR2H4qJX2wB4ObzhsHf1/mMdKmxtC07Z/aDpw7tg2TioUyHw4HnnnuuGsCH5DdHQ1QbhHNyct4QCTfbdYKAcf1oiRDYqeUW06qHpceHIzSgZ2fOGts3BdHExPXLthaQMxUx9bI7HHhr3npy+2B/X1Iu5rRY2hJxee2ZHc406HW4RcK94B9++AE7dux4EoCF/BANUW0QDgsLO1xUVFRHaTuhf5rS3fdIxdUNaDE7/3uhEwQMy6TthXqKi8f3JbdduGm/0t1nLrJmTzG27Kens7zyrIFOf7mjBuGiqvoz+vdmjetLPozpcDjw4osvVgH4hPymaIxqgzAAVFZWLqW0G5IRDxMXDpCdKAJ5JTWktj05t3diZDCGE7+EFFU1kN9zpg2vz1sHBzGfpdFLj9tnOpfAg7ocXVR5+qVzk7cXbpJwIvqbb77Bjh07nkAP2As+RtVBOCkp6XVKO6NBj5HEU6js1KgZm8b2TZG9HJtWXHnWQPJd6fnrcpXuPnOxgsO1WLoln9z+3OEZyDzDvMxGgx5JUc7v1Yrimc2Er5o8EKHERCB2ux0vvPBCBXrAiejjqT0Ib6+urialapo0UNo9OnZi1LuqASZv8mxQywL9fMh3gy1dNizcxKeie4J3ft4Iaxdt318nCLjtDGfD/dJiSF+GjzS1ou005UyD/X1x9RR6paS5c+di7969j6EHzYIBlQdhACgqKlpHaTe2Xwq8vZyv18pOraC8FvVOZs05ZsoQWrpGLZs1Nge+3l6ktsu2FqCFWL2KaUt1Qyu+XrmL3H50TjKykqNO++8N7ZNAen7hGSxF33juUHL9cLvdjpdeeqkMwBzym6BRqg/C/v7+/6W0M3l7YWQP3od0FVEENuXRZsNnDepFTtmoRV4GPS6d0J/c/oc1e5UeAnOjT5dulVQr+ubzhp323xnaJ5707ILDp76eGB0aIOnw4WeffYbc3NxH4eHZsU5E9UG4X79+i5ubm7sobc8axEvSrrBiBy2HsbeXAecNpy3NatGUwemICKbdWc8rqeEDWT1MW4cVHy3eQm4/rl8KspJOvjds8jGe0Wz5RLad5izIbTNGkM98dHZ24rnnnssH8DV58Bqm+iAsCII9Pz9/F6XtuH4p5OLV7OQ25ZWedn/oZGaNzZGcfF4rrp48kNx2roSlSaZdP67JxeHaJnL7U+VqHpweB4Pe+Y98q82OXYcqT/rPe8WFSfpy/fbbb6OoqOgfAHrkZXjVB+GjSEvSfj5GjMjkJWm5WW12rNlTRGqbGhuGUdnJSg/B5YZlJJBrqB5pasNv2w8qPQSmgC6bHW//tIHcfnz/tJMWsZk4kJY/Ibeo+pR5y++dNRY6He2bdXNzM1555ZXtABbQ3zVt00QQHjZs2Netra2kb0mTB/OStCss3Uq/UnHt2fQTlFpxxVkDyG2/Wbmb6wb3YCt3HsJeYnY6QQAun/TXcwgGvY6cV39L/smTiYzKSSIXJQGAl156CdXV1Q8CoF2U9gCaCMKCIFj379+/i9J2XL/UHns/1ZU25ZWhuqGV1HZw73j08+B80omRwRidk0xqa7Z08d3gHk4Ugfd+oRd3mDYiE4F+Pv/z90ZkJf7l752prQdOHIT1Oh3unTWW3M/q6mr897//XQJgleQ3TcM0EYQBwG63v0tp5+9r7JH3U13N4RDxy4Y8cvu7Lhyt9BBc5vJJ/cnJOX5Zn0dKDco8y+b9ZdhTWEVq62M04PKJ/zsbPn90NulZ5k4r9p3kgOCFY7ORGkOv3/7000+Lzc3N/5LpLdMszQThkSNHzmlra+MlaRWZv34fHA7aKtLAXrEYmeV5+/X+vkZMH5FJausQRXz7+26lh8BU4oNFm8ltrzxr4B/XAUMDTRjbl1bUZl1uyQm3Rkw+RtwioVRhcXExPv3007kAdsn6pmmQZoKwIAiW/fv376G05SVp1zjS2IYVOw+R29978RhyfV21mjEyi5y3fM3uIkknY5ln2ZRXdtJZ6On4+xr/mA1fNDaHdCoawEkPCN507lByekoAeOyxx2wdHR1PyPyWaZKmPgGtVuv7lHYBJm/yHh07tS+Xbye3TYsNw6UT+ik9BFldOJZWMxgAvvptp9LdZyoj5WfimimDEBsWiEvG037HzJYurM/9a2Ke2PBAXDFpALlfO3fuxLfffvsuANoVCw+jqSA8evToz81mM2lJ+tzhfZTuvkfKKz2Crfm0og4AcOuMEQgPoiW0UJsBvWLJe2T7y45g5ynuYrKeacWOQ6hppB2ANPkY8fSN5yCMOGP9fechWLr+ejXpzgtGScq/cP/997fZ7fanXPOOaY+mgrAgCJ379u0jHR0dk5MCf18ub+gKny7dSm7r72vEo1dPUnoIsrhIwiz46xW7lO4+UyG7w4FvfyftwgEA+ku4hTB/3b6//L1B6XGYMrg3+Zk//vgjVq1aNRsAqVa8J9JUEAYAu93+HqWd0UvPlZVcZMv+w5Jmw2P7pmD6SNphJrUIMHmT06TWt5jxKyfnYCcxb+1et5+YL6tpwq7C/12Z0et0eOjy8eSMd1arFY8++uhhAG+7dTAqp7kgPGLEiM+oiTumDuMlaVf57/wNINYlBwA8eOl4JEQEKz0MsimD08lVu35YvQddth6ZsY+dgbYOK+aucO95gZ/W5f7l93nWuL5IjwsnP/Ott95Cfn7+/QD4Dt5xNBeEBUHozM3N3UFpO6RPPCKD/ZUegkfKLa7G6t20wg5A97L083+bqtlc39RrSXaHAz+dYNmPseN9vWKX22bD5k4r5q//35/JID8f3DqDfiWpoaEB//nPf7YC+NEtg9AQzQXho/5DGqwg9Miatu7y+o/ryIXJASAjMRIPXjpe6WE4LTEyGH1TaXtva/cUo665XekhMJVr77RKuongjPnr96H1TwH/rgtHI4iYcQsAZs+eLdbU1NyJHpye8mQ0GYRHjhz5Y21tLelrIS9Ju055bTO+/JW0SPGHi8bm4LKJ9Bq8Spg2IpO8TzaPU1SyM/TVbztRdqTJpa9hdzjwzcr/TRiTmRiJmaOzyM/Mz8/Hhx9++DUAep1GD6bJICwIgiMvL28NpW1mYiSSo0OUHoLH+nTpVlQRc0of88Al4zAqRxvZtHSCgPNG0Mq41TS2YlNemdJDYBphtdnx1rz1Ln2NhRv3o7K+5Y//rxMEPHzFBHIaVgB4+OGHrZ2dnT0+PeXJaDIIA4C3t/dz1LbnDus5heXdrdNqw9Nf/ibpkJZOJ+ClW6ZhYK9YpYdzWoN6xyEmNIDUdtGmA+S0n6xn+n1XIbbsPyz9QSdgszvw8ZL/vW44fWQmclKiyc9csmQJfv7555cAlJIf4uE0G4RHjhy5qqysjDTlmj4yQ9I3O3ZqW/Yfxi8bpB028jEa8ModMySdxnSHacQDWUB3EGbMWS9/txp2h/ylLhdszENl3f/PggP9fHCnhEIrVqsVDz74YCWA55V4n7RCs0EYAA4dOrSI0i4qJADDMhOU7r5He/X7teRSh8cEmrzx/gOzkJ0cpfRwTsjX2wtnEQul7y2uRmlNo9JDYBpUVNWA71bRE3iciNnShQ8W/G/BiHsuGo3QAF/yM1999VXk5eXdA8CsxPukFZoOwpGRkU+JxHXPmaPoBw3Y6bV3WvHEZ8slL7cGmrzx9t0XoK+EJTFXmTggjVysYdGm/Up3n2nYhws3y3qq/ovl21F73PMG9orFzFG08ocAUFFRgRdffHE1gB+UfJ+0QNNBuG/fvvsPHjx4hNJ2Qv80cpFrdmZ2FFTgvQX04uTHBJi88c69F2J8/1Slh/Q/phEPZFltdizfxhmyGF2L2YKnv1wh6ezFMTWNbfhy+f/favAy6PHPqyaRT/wDwD/+8Q97U1PTXUq/T1qg6SAMACUlJd9Q2hm99Jg6lK8rudpnS7dhwz7pZzJ8vb3wn1un4cqzBio9JABAWKAJQ/vQtjTW7ilGS3un0kNgGrc+twTz10u/4lZZ3/I/hRqumTKIXIgEAFavXo1vvvnmTQB7lX6PtEDzQTgjI2N2R0cH6fvgzFHazlesBQ5RxOOfLEN5bbPkZ+l0Au6/ZCyeuuFs+BhpKSLlMnlwOnQ62lSBl6KZXF79fq3kGtQDe8X+8eU2NiwQN0wdQn6W3W7HAw88UO9wOJ5U+r3RCs0H4aSkpMbdu3eTjuJmJEaid0KE0kPweM3tnbjvvwv+koWH6rzhGfjs4cuQEk3/ti7VOUNolWQaWjtkWRlgDAA6LF146vPf4JC4Ln3PrNEY2ice/7pqEny9vcjPeeedd7B9+/YHAEj/1t1DaDNR759cdtllrWlpaRdR2nbZHPyh6AZNbR3IP1yLc4b2luV6WGigCeePzkKn1YZ9JTVuzYUXExqAey8eS9oz+2ndPqzPLXFjb5mnq25oha+3F/qn0e/V6wQBkwenS0pkVFNTg8suu2yr2WzmvWAnaH4mDABTpkyZW1VVRdpkO3d4HxgNHvFdRPU25ZXJdpgEALy9DLj/krF47/6LkBob5rZxTBmSTj60sngz3w1m8nvn543YXVgl6RlSt3geeOABe11d3S3g/NBO8YggLAiCIzc3dwmlbZCfDyYMoN31ZM5buHE/Xv2elHH0pAalx2Huo1fg7ovGkK8MOWNCf9rPS2lNIw6UkQ7zM3ZKNrsD//xwCRpaOxR5/V9//RVfffXV6wB2Kf1eaI1HBGEACAgIeNRBzCJzyYR+Sne/R/l65S5Zri4dz6DX4dqzB+Hnp6/DlWcNdFlJxNAAX3IaP76WxFzpSFMbHvt4qdtToXZ0dODuu++uBDBb6fdAizwmCI8cOXJ/bm5uBaXtwF6x6BXnvuVMBny0aAvenr9B9ueGBPji/kvGYv7T1+GaKYPgJ/PMeHROMvlU9PKtBbKPl7HjbTlwGO8vlPcL7uk8++yzOHDgwO0A2pQevxZ51GboBRdc4N+rV6+JtNYC1vGBGbfadagSLeZOjMxKlpQY4ET8fIwYkZWIS8b3Q2igCUea2tAow1Ld36YPJ53KLiivw8eLuZIbc71dhyrRKy4MKRLu+p6p/Px83HDDDT93dXXxlSQijwrCX3755ZbW1tZHvL29nZ7hJ0eH4LtVe9BloxelZ87LLa5BZX0LxuQkQ6+Tf2HG6KVH39RoXDK+H0ZlJ8HkY0RdczvaOqxOP8vLoMe/rpoEL8JBvh/X7MX2AtJCDWNO25hXiokD0xDsT8/9fDqiKOLSSy81Hzx48DwALZIf2EN5zHI0AAiC0LFz507SWozJx0hOQ8ikWbRpP5784jdQ84CfqZyUaNx/yVgseO4GfPXoFbhn1hiMzkk+4yXrzKRImIh3KFfvLnLp2Bg7XluHFQ+8uxDtnc5/2TxTn376KX7//fd/AShXerxapmzaIRcwm82PAFhLaXvxuL6yVydhpxce5IfbZoyA4Mbykn0SItAnIQLXTBkEhyiivLYZ+YdrUVRZj4q6FlTWt6CuuR2tZgtaOyxwOEQMTo8jvVZNYysKymvdNjbGAKCkuhH//uxX/OfWabJv99TW1uJf//rXbgBvKz1OrfPIorp79+6tzsnJIdW/u/XVedhewF/s3CXA5I0PHpil+rrBUny/eg9e/HqV0t1gPdS9s8bg6imDZH3mVVddZZ87d+5wANuVHp/WedRy9DFFRUXkb2eXjO+rdPd7DB+jAa//faZHB2AA2MgZ2ZiC3p6/AXuKpCXyON7PP/+MuXPnvgIOwLLwyCA8c+bMF+vq6roobScMSENksL/SQ/B4Br0OL/ztPPRPi1G6Ky7lcIjYeagSABAR5Ie48KA//gSavJXuHusBRBGYt1Z6tSUAaGxsxN13310I4N9Kj8tTeNyeMAAIgtC1bNmypWefffYMp98QvQ6XTeyPt35ar/QwPJZOEPDv66ZgTN9kpbvico1tHXju5qnITIw84UnV6oZWFJTXIbe4Gqt2F6Gosl7pLjMPMbBXLGaOzsa4fikIkql2+gMPPCCWlZVdB4BrccrEI4MwAOj1+gdtNtsMg8H5IV40NgcfL9kKswtPFvZk918yDucO6xm1nMMCTRiZlXTSfx4dGoDo0ACM65eCO84fidKaRizadAC/bMhDXXO70t1nGmM06HHBmBxcMqGv7FXG7HY70tPTfxdFcYM7D1HKTRRFAUAygAwA2QAy7HZ7lt1ujxJF0Vev1/vrdDpfm83WZrPZinx8fPJ0Ol0BgBUANgqCIOs1Du2+k2dg8+bNB4cNG9aL0vbV79di7oqdSg/B49w8bRhumzFC6W6ons3uwOLNB/DJkq2y1GJmnk2v02H6yEz8bdowRIcGuPS16urqDoaHhz8IYIHcAUluoij6A+gLoB+AAXa7fQCAfnq93kR5XltbWzWA2f7+/h/INXaPDsK//PLL9TNmzPiU0ra6oRXnP/Y57MR81OyvLhnfDw9fMUGWZ61YsQIjRoyAn5+f0sNyKbvDgZ/X5+HNeetICUaY50uNCcWzN091+wHH9vb2WoPB8KW3t/dXAHYqGZBFUfQBkAKgN7qDbn+73T5Yp9MlCy6Yth85cqQgMjLyLEEQJF+l8eggLIqiUFZW1pqYmEj6pH7sk2VYuiVf6WF4hLOH9MYzN50jSy3hZ555Bo8//vi/srKyQu+44467rr/+em9PD8Y1ja145suV2JjHJ63Z/7tobA7uv2Sc5DKEUlmt1raurq5Nfn5+KwDsAFAIoFQQBJsczxdF0RtAOIB4AGkAUgGkiaKYZrfb0w0GQxTcHM+qq6vbLBZLv+Tk5GIpz/HoIAwAP//88/szZ868hdL2QNkRXP3cN0oPQfOGZSTgjTtnktI9/tm7776LO+644zkAjx79W8FpaWn/uuaaa+66/fbbfSIjI5UersuIIvDhos34cNFm2WoyM23S6QTMvm4Kzhuu3ix/oijaOzs7qwVBKPH29q4VBKEZQOvRP8f2WLwBHL807AsgBEBYV1dXtCiKUXq9PlSv17su/6YEFRUVbcuWLYu96aabWqnP8PggvG7duoCsrKzGkJAQUgS44/WfsOXAYaWHoVm9EyLw4QOzZKlm9O233+Kqq676yG63n6hweHBoaOjNF1988b2XXXZZ3MSJE92agcudFm7cj6e/XMFbJT2UThAw+3p1B+Ce5JtvvllyxRVXnEdt71EFHE7kk08+sY4bN25Eenp6OqV9iL8JS3hJmiQmNADv33+RLEnkly1bhiuuuOInq9V6HYATRZ/Ojo6ODdu3b3/1iy++WLlgwYKQ6urqXiEhIbroaFr9X7XqnRCBlOgQrNxVyDPiHkYQgMevmYzpIzOV7go7KikpqVdra+u3W7ZsqaO098hkHSdwe2dnJ+njamR2EnrHe3ZGJ1cI8vPBW3dfgPAg6Xu1mzZtwmWXXba6o6PjCgBnUuZq7Y4dOy6cPXt2xIABA64aNGjQ4kceecTy66+/wmw2K/3WyGLy4HQ8cgWxaifTrDsvGI2Zo7KU7gY7TkBAgBAUFPQctb1nrtedwIoVK7ZPmjSJlED1912FeOi9RUoPQTO8vQx4594LZcmGtW/fPkyaNGn3kSNHxqJ7L4ncLQATTCbTBWPGjDlr6NChaQMGDNANHDgQqampml26/s+3q/Ht77uV7gZzg1E5SXjj7+fLXoyBSTdnzpyaa665hrTk5rHJOv6svr7+TofDsUFHqFk7oX8aeidEoOAwV8I5HZ1OwHM3T5UlAJeUlGDatGlFR44cORvSAjAAWAAsM5vNy5YvX47ly5f7ARgMYHhkZOTorKysrLi4uLj4+HhTYmIiIiMjERwcjJCQEISEhCA1NVXpt/aE7rt4LPIP12LX0dSYzDP5+RjxxDWTOQCrVFhYWCSAABA+p3rUf9JNmzYVDx8+PJnSdvXuIjzw7kKlh6B6/7xyImaNk14E48iRI5gwYULN/v37RwAoceMQQtGdTScFQBgA39TU1JDCwkLV5sqtrG/B5U99BbOFlC6dacD9l4zDlWcNcNnzD1XUIzk6BAZ9T9mhlNfy5ctxzjnnJAEoc7Ztj5kJA0Bpaem/hg8fPpfSdly/VGQkRuJA2RGlh6FaN503VJYA3NLSgunTp7fs379/MtwbgAGg4eifHQAgiqKX3W5f7uY+OCU2LBC3nz8Sr3y3RumuMBeICQ3ApRP6yfpMS5cN2/LLsWZPMdbtLUFNYysGpcfh39dNRlx4kNJD1pzm5maAeNC5R82EAWDfvn0NWVlZIZS2a/YU4/53Fig9BFWaOSoLj8uwXNbZ2Ylp06ZZVq5cORHARqXHJYrixwBulONZ1i47dhysQFuHBXERQegTHwGdTp5fQYco4qpnvsbBCtIBTaZicq0uddnsWLW7CL9uK8DGvDJ0nGDlxMdowB3nj8TlEwfI9rPZE9xzzz3WN998MwCA02ntetRMGAD27t37UlZW1vOUtmP7piArKRJ5pTwbPt6onCQ8evUkyQHYbrfjqquusq9cuXIW1BGAH4AMAdghivhm5W58unQrGls7/vj7oQG+mDqsDy4a2xfJ0aTvhX/QCQL+fsEo3PvfX5R+25iMAk3ekq8jWbvs+H71Hny+fDsaWk59O6DTasOr36/Fwo37cdN5wzBxYJosWe483YYNG7aAEICBHjgTFkVROHDgQEtGRgapaPDavcW47788Gz4mKzkK7913EUzeXpKfdccdd+Ddd9+9GcDHSo9LFMVJoiguFwRB0l36DksXHvlwCdbnlpz039EJAqYO64MHLh0nueTcTf/5HrsL5SvgzpR16YR++MflE8jtiyrr8chHS8klMlOiQ3HDuUMweVA6jF6ek1aircOKgxV1cDgcGNw7XtKzKisrERcX9wiAFynte9xMWBAE8csvv3w+IyPjWUr7sX1TkJMSjdziaqWHoriEiGC8/veZsgTg5557Du++++5sqCMAJ9nt9u/1er2kTx2zpQv3vv0LdhysOOW/5xBFLN58ADsPVuCNO2ciNTaM/JpXnjWQg7AHkZIVK/9wLW5/bR5azBbyM4qrG/DEp8vx0jerMGFAGs4e0hvDMxOgJ9wyUYJDFFFR14yCw3U4WFGHg+Xdf62sa8GAXrF49Q6nS87/xSeffAIAv1Hb97iZMPDHbLg5IyODVPNrd2EVbn75+x6drSg0wBcf/+MSJEQES37WZ599hptuuulDh8NByvEtJ1EUfWw220aDwTBAynMsXTb8/Y35Tl8dCg004aMHLkZiVDDpde0OB2Y++jlqGqXe6GJKCws0YcmLN5GWgxtbO3DFM3NdUpM6JMAXQ3rHY0CvWAzoFYv0uHDF94/bO62oqG1GeV0zymtbUF7bhEMV9ThUUXfCWwPTR2biX1dOkjy7r62tRUZGxpqGhobx1Gf0uJkw0D0b/uKLL57LyMgg7Q33T4vBWYPS8dv2g0oPRRG+3l54/e8zZQnAS5cuxW233bbI4XDcofS4jnpPagAWReDfn/1Kurvb0GLG/e8uwOePXEbKt63X6TBtRAY+WbLVbW8Yc43ROcnk/dj//rzBJQEY6A7wv24/iF+Pfv75+RiRkxKNpKhgxEcEHf0TjPjwIFmWsNs7rWhoNaOprRNNbR1obO1ARV0zKupaUF7bjIq65v85a3EqBr0O918yTrbT5k8//bTY0NDwgJRn9MiZ8DF5eXnNmZmZgZS2lXUtuHj2l7DaziSLoufQ63R47Y4ZGJWTJPlZ27Ztw+TJk7c1NzePB6B4PklRFO8H8IrU5/x3/gZ8unSbpGdcOCYHj149idQ2r/QIrn2eq39p3ePXnIXzR2c73a6yvgUXPv6F4gU+BAEI8PWGv8kbft5G+Pka4efT/cff14hOq+1/Pj87LF3osttht4toautAc3t30LXZ5RlHbFggnr7xHFkSCQHdn1/jxo37rqOj4zIpz+mRM+FjtmzZ8nRmZuZ/KG1jwwNx+aQB+GL5dqWH4VYPXzFBlgBcWFiI888/v7C5uflcqCMAnyeK4n+kpq9csHG/5AAMAPPX52Lm6Cz0TXE+E15mYiSiQgJ4SVrjcgj/7QFgwYY8xQMw0L0i1GK2SNqTlsu0EZn4x+XjZanmBgCNjY244oorqjs6Ou6S+ixt7K67yPXXX/9ybm5uM7X9jecORWiAKstcusS1Zw/GRWNzJD+ntrYW06ZNa6isrDwXgOIXW0VRzLbb7d8JgiDp92F7QTme+2qlTH0C3v2ZdktLEIDBvePkf6OY23h7GZASHUpq+/uuQqW7rxohAb544W/n4snrp8gWgEVRxPXXX28/dOjQpQAk31ft0UEYALZv3/4kta2/rxG3zhih9BDcYvLgdNx54SjJz2lvb8eMGTPM+fn5ZwNQfFNdFMUEu92+RK/XSyr3VFrTiIfeX4wuGbcnthw4TE6+MbiPtGsXTFnxEUGkw071LWYcqqBdR/IkggDMGJmJH2Zfg8mDSVVsT+rhhx/GL7/88jCAtXI8r8cH4euvv/617du3N1DbXzAmG2kSrpRoQb+0GDx1/dmSL+3bbDZcdtllts2bN18EQPF1fFEUk+12+2q9Xp8g5TntnVbc/85CtLR3yt7HxZsOkNqNyUmWvS/MfRIig0nt9pXUKN11xSVGBeO9+y7Cv6+bIvne/Z89++yz+M9//vM6ZDg7ckyPD8IAsH79+tsdxD0UvU6HR66c6LFZZeIjgvDKbdMln3IURRG33nqruGjRopsBLFN6XKIojrbb7Zv1en2KtOcAT3y6HKU1jS7p57q9JaR2oQG+il8bYXTRoaRcQiiuIs8nNC/Qzwf3XzIO3z5+leQEHCfy1ltv4bHHHvsYwP1yPpeDMIB77rnnu99++y2f2n5gr1hcNE76XqnaBPn54M07z0eIDPve//73v/HJJ588BuBzJcckiqK/KIoviKK4Rq/XR0p93seLt2D17iKX9bekpgHWLueXuAVBQK/YcJf1i7lWkB/td668lnzERbO8DHpcedZAzH/qWlx51gB4GeTP7PXCCy/g3nvvnQvgVgCyZojgIHzUnj17Lm1vbye/uXddOBpRIaTcH6pkNOjx8u3TyUkjjvf+++/j6aeffhfAc0qNRxRFP1EU73E4HAcBPCz1EBbQPUv9YOFmF/cbaLeQUtIiLpx0+46pQLA/bRm1vkXxiwZuY9DrcP7obPw4+xrcf8lYBMq89AwADocD99xzD/75z3++6XA4rgEg+51UDsJHPfTQQ3sWL15MTj3m52PEP6+cqPQwZCEIwBPXTsbAXrGSn/Xzzz/jzjvv/BmA5KP8FKIo9hNF8XWHw1EO4HWdTke79/EnZTVNePzTZXC4IW2azab8dRPmXtSTvM3tZ5a0QssMeh0uGJONeU9ei8evOQuxLvqy2dnZiSuvvFJ88803/wngHgAu+UXs0feE/6ywsPCyqqqqIzExMaT3ZUzfZEwd1gdLt5BXtlXh1ukjMHVYH8nP2bhxI66++upNNpvtCrjgG+TJiKI4EMAFDodjFoBsANDJmOu2xWzBve/8glY33X+kHjdQw11RRmPQ035eLYStC60IDfDFzNHZmDWuL2JCXbvqWFpaiosvvti6bdu2mwDMceVrcRA+zj//+c/GyMjI92+88ca/U5/xwCXjsCmvDE1t2vxGeu6wPrjpvGGSn1NYWIgLL7ywsK2tbToAl74ZoiiGA5gMYIrdbj8XQAwgb+A9xmZ34JEPFqOspsmVQ/ofvsQCGZ1Wm9v6yORlINYOsdk9KwjrdAKG9I7H+aOzMWlgmkv2e/9sxYoVuOqqqw7X1NRcAGCHq1+Pg/CfHD58+O7c3NzrcnJySMcTQwJ88dBl4/Hox0uVHorT+qXF4PFrJkuuC1xfX48ZM2Y01tTUTAUg66VFURQFAH0AjAQwymazjRVFsbdwNNWVxMJHp/Wfb1djy4HDLn2N4wWYvGHypi1N1roodzBzvZ58sN2g12FIn3icNagXJvRPk+Vg6JlwOBx48cUX8cQTT6y02WyXwU2JhDgI/8ns2bMdAQEB92RmZn5M/UA/Z2hvrM8tweLNtDueSogNC8TLMlxFslgsuOiii6z79++fDuCQ1H6JougHYCiA0QBG2u320Xq9PvjYPzcY3PcjPHfFTvy4Zq/bXg8Azh7Sm/ylSM7EIcy9qDnpjV7a/EhPigrB8MwEDMtIwODe8Qgwebv19UtLS3HdddfZV69e/RSAZ+HG7TNt/hdzsQceeOCTxMTEey6++GJyqY1HrpiAvUXVOFzbpPRwTsvPx4jX/j5DcgpOURRxww03iGvWrLkGwAbiMyIBjAEw1uFwjBNFsb8gCH98M3D1TPdk5q3NxWs/yJIg54yZvL1w47lDyO3lSnzP3I+6lTB1aB8UVzWg4wTl+9TCaNCjT0IEslOikJ0cjcHpcYgMod2LlsOcOXNw9913FzY2Nl4JYIu7X5+D8En8/vvv5wwdOvRwUlIS6T0y+Rjx7M1TcfN/vld1pSWdTsBzN0+VJevX448/jq+//vqfAL470zaiKPoCmArgPJvNNh7AHznmXLGnSzFvbS5emPu72+tHP3LlREnX3jgIa5eRuPd55VkDMHNUFpZvK8DSLfnILa5W9PMnMtgfKTGhSI0JRUpMKPokRKB3fLhb9nZPp6KiAnfffbc4b968D9GdgEOR/RsOwifxzjvvVCclJc1+6KGHnqFW1slKisRDl4/Hs3PkServCvddPBajZUhx+Mknn+DZZ5/9EMCLp/t3RVE0ATgLwCUOh+MinU7nB7h3aflMiCLw4aLNLr8LfCIXjsnBecMzJD2Dg7B2RQTTU5n7+xpx0dgcXDQ2B9YuO3KLq7GnqAqlNY0oPdKEspomWQ6O6nU6BPv7INjfFzFhAYgNC0R0aOAf/zsxMtjty8pnwuFw4N1338Vjjz12qKmp6RYAvyvZnx68/X9mFi5cWDht2rRUKc94Zs4KzF+3T+mh/MWscX1ludv822+/Yfr06cstFss0ACddRxNFsReA+xwOxw06nU7V5afaO614ds5KLN9W4PbXzkyMxEcPXQxvift74+99D+2dtEQfTFnznrxWlkQ5J9Nh6UKLuRPN7RY0t3eipb0Toij+pcavl0EPX6MBRi8DfLwM8DEaEOzvi5AAX1UG2NPZvXs3brvttq5Nmza9gO7kQfInfHeSuqYeKrR8+fKpQ4YMORAVFUVeG/3H5RNQXNWA3YVVSg/nD8MyE/DQZeMlPyc3NxeXXXbZPovFcglOEoBFURwB4B+iKF4gCIKglmXmk9lTVIXHPlmGyroWt792RJAfXrljuuQADPBMWMvCJcyEz4Svtxd8vb08KsvfqVRVVeGJJ57AZ599ttJms90FIE/pPh2j7k9DFXjzzTcPfv31129JeYbRoMcrt09HIrEyitySo0Pw4t/OIycEOKa6uhrnn39+TUNDw7kA/hKxRFEMEEXxHXQf0rpQoK7ru0lzeyde+Pp33PzyD4oEYB+jAa/cPh2RwfIcUuEgrE1+PkaYiHfD2f8ym814+umnkZGRkf/RRx/NsNlsZ0FFARjgIHxG7rvvvnt/++03SdPYYH9fvHHXTLfdeTuZ8CA/vHnX+ZKXkjo6OnDRRRd1FhUVTQPwl4uzoiie7XA49gG4HSrf9ui02jB3xS5c+MQX+GH1Xjgcbj6Bhe67kS/dMg1ZyVGyPE8UOWOWVknZD2bdrFYr3n//fWRmZtY/8cQTf29packBsFDpfp0IL0efoTlz5kzp3bv3nsTERPIXl4SIYLxz74W47dV5aHZB7dnTMfkY8cadMxEbJi3XqiiK+Nvf/iZu3LjxKpygLrAoivcBeEWn8lp6Le2d+G7VHny7ajcaW5XLcKYTBDx5/dkYlZMk2zO7PCxzUk+i5HUdrbNarfj222/x9NNPNx08ePBlAG/hBKt0asJB+Ax9/vnn+xISEp6YPXv2M1LuqqbHheOtuy/AHa/PQ1uH+w7NeHt1L3X2SYiQ/Kwnn3wSX3311b8AzPvzPxNF8WEAL7htYE5yiCK2HSjHzxv24fddhaQygXLS6QTMvm4KzhnaW9bn8lK0doUH8kzYWR0dHfj000/x0ksvNZSWlr4M4G0ArUr360yoeqaiRp999tnW6667jp5B4agDZUdw99u/oMENpcd8vb3w2h0zMKSP9ELXX3/9Na6++urPHQ7H9X/+Z6IozhBF8We17f06HCJ2FVZi1a5CrNxZiOoGdfxu6nU6PHn9FFmKZfxZi9mCSfe/r/QQGcF15wzGXReOVrobmpCfn4/33nsPc+bMKaqrq3sHwPsA2pTulzN4JuykDz/8cFJqamrl2LFjJa0ZZSRG4uOHLsZdb/7s0kLc/r5GvP73mRggQ1nCTZs24eabb17vcDhu/fM/E0UxwGazfWowGFQRgBtaO7Blfxk27y/DutwSRZebT8TkY8QLfzsXo7LlW4I+Hs+EtSsiiJejT8VsNmPBggX48MMP7StXrvxZFMX3AKyAi0oNuhoHYSetX7++9Y033pgYHx+/OSUlRdLBtoSIYHzxyGV49ONl2JhXKntfEyKC8cod05EaEyr5WaWlpZg1a1ap2Wy+AMCJavg9YjAYpKfdImpoMWNPURV2F1Zhy4HDKCivdXuGqzMVGeKP1+6YIcvWwMnYVJyljZ1aZAgvR/9ZR0cHVqxYge+//x6//PJLXlNT09cAPgFQqXTfpOIgTPDjjz9ui4uLu/+FF1543ddX2mnnQD8fvHHnTHy4aDM+WbJNthOt4/ql4snrp8hyob61tRXnn39+a2Vl5bk4QWURURT1Vqv1DqORVu3HWQ6HiJKaRhwoO4Jdhyqxq7AKxVX1qg26xxvYKxYv3HIewgJNLn0dnglrF+8Jd8vPz8eKFSuwfPlyccWKFZvb2trmAfgJMhSGURMOwkRvvvnmG6GhoWMef/zxi6Umn9DpBNw6YwTG9U/F01/8hoJyegUtf18jHrh0PGaMzJRlnHa7HVdeeaV99+7dFwPYf5J/bbzRaAyW5QVPwNxpxe6iKuwtqsbuwirsLa6GWWOZoHQ6AdefMwS3zhgOvRuSlXAQ1i5XJ+pQq5KSEqxbtw4rVqzAqlWrjpSUlKxEd0rJBQDUk+lIZhyEJZg9e/alwcHBO+65554BcjwvMzESc/51BRZu2o8PFm526gCRl0GPWeNycOPUoQiVcZb14IMPYuHChXcDWH6yf8fhcAyWMwtWU1sHtuWXY1dhJXYdqkJBea0id3flEhseiNnXTcGg9Di3vaanFXfvKQSh+y6/s+x2O+x2O9y1GiVVU6gloE0AABqeSURBVFMTtm7dis2bN2PLli3Yvn17VWVl5QoAawCsBuD+fLEK4SAsjXjvvfeOiIqKKrr88suln3xC94xp5qgsTBuRgdW7i7F48wFs3l92wtJkggCkxYbhnKF9MGNkJumX91Ree+01vP76668DeOdU/15LS0tmcHCwpNeqa27H77sKsXLHIWw/WKHpoHuMTifgikkDcNuMEfB1cwYkuxbW5tlfBPn5kiooFRYWYuDAgRg5ciTGjx+P8ePHY9iwYfDx8VF0PHV1dSgoKMC+ffuQl5eHvLw8saCgoLSkpGQrgJ3H/alRtKMK4iAsneXxxx8f4O/vXzh9+nTZErHqdTpMGpiGSQPTYLXZUVzVgNKaRrR1WOFl0CMq2B+94sMl1wA+mW+++QYPPfTQdwAeON2/29zcHEINwlabHc98uQJLt+Z7ROA9Zly/VPz9gpGylIik4BisTRHEL9Lp6emrzWbzhBUrVviuWLEiFkBaQEDAkEGDBo1JSEjoGx8fH5uenq5LT09HVFQUQkNDERYWBuptQrPZjLq6OtTW1qK2thZ1dXWorKxEaWkpSktLcfjw4caSkpKDLS0tBejewy08+tc8qDx5hrtxEJbBoUOHah966KF+Xl5eueecc47sGzrHimC78jTt8VauXIkbbrhhtd1uvxZncOy/q6uLvIltNOhx64zhMFu6sHp3oeaDx6DecbjzglHolxqjbEe0/kb2UNSUlYIgVBz9nx3oDniFra2ty1evXn3sX/EFkAMgA0ASgAidThcZFRWVEBYWFhkQEGACAIfDYfL19TV4e3sLAGA2m0Wr1Wppa2vrcDgcrY2NjR1tbW3NbW1trQAa0L1XW3P0TxWAWgDl0EiiDDXgICyTAwcOlDz88MODvLy8dk2aNEnVZfpOZe3atZg1a9bezs7O83Hiq0h/YbfbNwG4mfqaceFBePm2acgrPYJPl2zF6j1FmpoV63QCxvZNwWUT+mNYZoLS3QHQnRmMaY+Eqkanu6rTAWDr0T8AuuvqVlVVoarKY888aYIqEit4kuzs7Kznnntu68yZM117B8UFVq5ciQsvvHBXS0vLZAD1Z9pOFEWf9vb2Nj8/P3o+z+NUNbRiwYY8/L6zEAcr6CfFXS08yA/nj87CRWNzVFcSbn/ZEVzz3DdKd4M56faZI3HTeUMpTe8TBOF1pfvPnMdB2AV8fX0TXnvttZ233nqrYskrnLV06VJcfPHF29rb288G0Ohs+40bN24bMWLEYLn7dbi2Cb/vLMSWA4exr6QGreYzmpy7THxEEMb1S8W4fikYmB7r8utGGzduxMiRI51ul1d6BNc+z0FYa568fgqmjSBdL5wlCMI8SkOmLF6OdoGOjo7Dt912W++mpqadDz74YKKUgg/u8Mknn+DOO+9c39HRcR6IhyY6OjpeAvCt3H1LiAjGtWcPxrVnD4YoAqU1jcgtrsa+khrkFlejqKoBli6by96bxMhgZCdHISclGkP7xCPVjQetvvvuOzz00EO7SktLBzjdmJejNSk6lLyicpjakCmLZ8KuZbrssst+fvPNNydHRkYq3Ze/sNvtePTRR/Hiiy9+iu66v5KmmYsWLSo977zzEt05Bocooqq+BSXVjTh8pBk1ja2oaWxDTWMrWtotaOuwoLXDgk7rXwO10UsPf19vBPh6I8jPB9GhAYgND0RsWCDiw4PQJzECQX7uv+IhiiKeffZZzJ49e8HXX399+yWXXFLu7DP2ldTguhdk/07EXOyXZ65HbDip1GiUIAhHlO4/cx7PhF3L/O23306pq6t76qWXXnps0KBBqvnSU1tbi6uuusrx66+/PgjgNTmeOW/evLNycnIOJCYmum3qrxMExIUHIS48yKl2VpuddB/T1VpaWnDdddeJ8+fPfw7AE5dcckkI5Tkiz4Q1RycI1NPRHeg+lcw0yPX58xhWrFjxxFlnnTXxySefbLBYlN3TBIBFixZh0KBBVb/++uvZkCkAA8DHH3986L333nuktVX9txPUGIB37tyJESNGtM2fP38WgMfQfT2M9DvKIVh7woP84EX7uSwTBIH/k2sUB2E3aWpqWj179uzEGTNmfL1p0yZF+lBfX4+rrroK06dP/7y8vDwL3eW/ZPX888+/fNttt73d0NCgyBi1SBRFvPnmmxg9evTW/fv3D0R3knrJz2TaImE/uEzpvjM6DsLu1f7rr79eOXLkyHFXXXXVoYMHD7rnRdvb8eKLL6J3794lc+fOnQngegBNrnq9uXPn3nXPPfe8Wlmp+SpjLpefn4+JEyfa77nnnqc6OjpG4a8VYmgzYY7BmsNBuGfiIKyMtXPnzu09ZMiQq+66667aXbt2ueRFmpub8frrryM9Pb36kUceuaOhoaE3uiuSuNycOXMemDlz5h3Lly/nSgInYLVa8cwzz2DQoEG7Vq9ePQzAvwGc6Ji3as4RMNfiINwzcRBWjtjS0jL37bffjh04cOAl55577o4vvvgCdXXSklOIoog1a9bguuuuQ3x8/N777rvvrqqqqjQA7wLokvRwJ23fvv3dGTNm9H300UcrW1o4XSzQnaVozpw5yMrKann88ccfNJvNQwHsOEUTUhDm5WjtiQ71pzblIKxh/C1bXTKNRuPlY8eOvXjcuHGZQ4cOFTIyMpCUlISTlQo0m804ePAg1q1bh9WrV2P9+vWllZWViwF8iuNS1CnMu3///k/985//vP/SSy81UJPGa93ChQvx6KOPWvbs2fMGgBfRnXv3lERRjAVQcdqH/8mOgxW45ZUflR4yc8Krd0zHuH6plKZnCYKwUun+M5qe+WmoDREAxgPICAwM7JuWlpbj4+MTBAC+vr4BDQ0NloqKivLa2tpSAKUAtgNYBXVf2k+eNGnSB3fffffkmTNnCj0lGK9evRqPPfaYbd26dR8DeAqnz/P7B1EU49CdEN8pOwoqcMurHIS1ZO5jV6J3fDilabogCIcoDZnyesanIFObvuPHj3/lmmuumXzFFVcIJpPm0myfVltbG7766iu89957ll27ds0F8DwAp0/iiaIYD8IXq+0F5bj1Vc5iqCUrX70VgSZvZ5uJAHwFQVD+7iMj4T1hpoS9q1evPvvmm2/ulZGR8fa9995rXrFiBWw216WfdJd9+/bhzjvvREJCwqHbbrvt/l27dsUAuBGEAHwUcU9Y6XeCOcPkY6QEYACo5gCsbTwTZmrgA2ByYmLi5VOnTj1/+vTp/lOmTIGPj/tTRlLs3LkTv/zyCxYsWGDZvn37QgDvofsOtuRQKIpiIrq3G5yyNb8ct7/GM2GtSIsNw7dPXEVpukkQBOcrfDDV4LSVTA06ASwsKytb+MEHH+g/+OCDcSEhIZcMGzbsvL59+yaOGDFCGD58OOLj45XuJ4Duq18bNmzAokWLsGjRovqSkpL56L769SsAs8wvx6ejewC+ntRzcRBmamMH8HtjY+Pvy5Ytw7Jly4IADAcwLC0tbfzgwYOH9evXLzAjIwOZmZlIT0+Hl5eXyzrT2dmJvLw8bN68GZs3b8b27dub9u3bt1EUxc0AlgPYjO70kqrSUw69eQoOwj0XB2Gmds3oDnbLCwsLnyksLMR3332XAiAbQKaPj09Wr169+sbExCTFxMSEJiQk6GJjYxESEoKgoCAEBwcjODj4hEvbVqsVzc3NaGpqQnNzMxobG1FRUYHi4mKUlpZaysrKSktLSw+iez93G4AtoO/tUpGSneg4BmsKB+Gei4Mw06Lio38WdnZ2Ijc3F7m5uUD3z3MsgAQA4QCCAAQf/fPnI9g+6M5Q1YTuQH/sT+3RZ1cpPcijaEFYx2cutYSDcM/FQZh5Ehu6P5Q86YOJdGRcz8vRmiIhCDt9aI+pC39dZkzdSDNhvZ5/tbUkhmfCPRb/pjKmbsTlaJ4Ja4VOJyAi2I/StE0QBK4ZqnEchBlTN9pMmJejNSMy2B962h4+z4I9AAdhxtSND2Z5ON4P7tn4N5UxdePlaA/H+8E9GwdhxtSNthzNQVgz+HpSz8ZBmDEVEwTBDkIOah3vCWuGhCCs5rKl7AxxEGZM/ZxOi8kTYe2IDQ+kNuU9YQ/AQZgx9XM6YQfvCWtHXFgQtSkHYQ/AQZgx9SPMhDkIa4FOEBAd5vxytCiKNgDlSvefScdBmDH1c/pwFh/M0obwYD8YDXqn24miWHb0vADTOA7CjKmf0x+2PBPWhrgw2n6wIAhFSvedyYODMGPqxzNhDxUXQdsP5iDsOTgIM6Z+zs+EOWOWJsQSZ8LoLrfJPAD/pjKmfjwT9lBx9OtJHIQ9BAdhxtSvy9kGBsJhH+Z+seHk60kchD0EB2HG1K/T2QZGLy8+nKUB1INZAHhP2ENwEGZM/ZwOwgDgxbNhVTMa9Agn1BHu7Oy0CYJQp3T/mTw4CDOmfqQg7O3FQVjNosMCSKsVdXV1zUr3ncmHgzBj6kcKwkYvg9L9ZqdATVdZX1/Ps2APwkGYMfUjzoQ5CKsZtXBDQ0NDtdJ9Z/LhIMyY+vFytAeiXk9qaGjgEoYehIMwY+rHy9EeKI54Pamuro5PRnsQDsKMqR8xCPNMWM2oy9FHjhzZp3TfmXw4CDOmfrTlaL6ipGrUO8Jbt27do3TfmXw4CDOmfh2URrwcrV4mHyMC/XycbnfkyBEsWLCAl6M9CAdhxtSPD2Z5mHhi9aSysjIbAKvS/Wfy4SDMmPrxFSUPQ12KrqysNCvddyYvDsKMqZ+F0oiXo9WLeiirsrKyUem+M3lxEGZM/Xg52sNQ7whXVVUdUbrvTF4chBlTP74n7GFiiSkrq6qquIShh+EgzJj60YIwX1FSrbgI2ky4uLh4v9J9Z/LiIMyY+pGuKPkYeSasRoIAxIQ6H4Ttdju2bdvGd4Q9DAdhxtSPdCLW19tL6X6zEwgNMJG+IJWXl6OpqYmXoz0MB2HG1K+F0sjPx6h0v9kJUHNGFxUVAUCZ0v1n8uIgzJj6kYq4+/t6K91vdgLU60lHE3XUK91/Ji8OwoypXyulkT/PhFUpMTKY1K6qqorvCHsgDsKMqR9pJuzny0FYjagpK2tqaiqU7juTHwdhxtSP94Q9SAJxJlxWVpavdN+Z/DgIM6ZygiB0gpC0359nwqpEXY7et2/fDqX7zuTHQZgxbXB6NswzYfUJMHkjiFDCsLGxEfn5+buV7j+THwdhxrTB6SDs6+0FvY5/xdWEuhR98OBBADikdP+Z/Pg3lDFtoB3O8uGEHWpCXYouLCx0AChVuv9MfhyEGdMGPpzlARKIJ6MrKioaANiU7j+THwdhxrSBFIQ5YYe6UJejjxw5wukqPRQHYca0ge8KewDqHeGqqiou3OChOAgzpg28HO0BqHvC+fn565XuO3MNDsKMaQMHYY3z9zUi2N/X6XbNzc3YunXrJqX7z1yDgzBj2kAKwpQ7qcw1EqNCSO0OHTokAjiodP+Za3AQZkwbGiiNQgNNSvebHZVMDMKVlZXN4JPRHouDMGPaUENpFMZBWDWSo2lBuLGxkU9GezAOwoxpAwdhjUuJCSW1a2pq2ql035nrcBBmTBuqKY14OVo9qDPhjo6O35XuO3MdDsKMaQMpCIcFcBBWA4Neh/hw5+8IOxwOhIeHL1a6/8x1OAgzpgGCIHQAaHW2XVgQB2E1iI8IgpdB73S76upqy80330w6lMe0gYMwY9rh9L6wt5cBJr4rrLjkaNp+8JEjR0hnAZh2cBBmTDt4SVqjUoj7wRaLJVfpvjPX4iDMmHbQTkjzkrTikoh3hMPCwtYo3XfmWhyEGdMOUhAO5Zmw4tLiwkjtevXqtVHpvjPX4iDMmHbwXWEN8jLokRZLC8IADijdf+ZaHIQZ0w7anjAHYUWlxITCSDgZ3dnZ2SYIwhGl+89ci4MwY9pBmglHBPsp3e8eLSMhgtTObrdzpqwegIMwY9pBmgnHEpJEMPlkJEaS2vn5+fF+cA/AQZgx7ThMaRQXFqh0v3u0rCRaEAawQ+m+M9fjIMyYdlQB6HS2UVSoP/Q6/lVXgsnbizwTBrBd6f4z1+PfTMY0QhAEEUCps+30Oh2iQv2V7n6P1C8tBgY96WO2BUCR0v1nrsdBmDFtIX0wU4oHMOkG9oqjNt0uCIJD6f4z1+MgzJi2kAq8U3MXM2kGpsdSm3KmrB6CgzBj2kKaCfciZmxidCYfI3JSoqnNOQj3EByEGdOW/ZRGKTE8E3a3UdlJpCQdALoAbFK6/8w9OAgzpi37KI0kpE1kROP6pVCbbhUEwax0/5l7cBBmTFvKALQ62yjQ5I1Yvi/sNjqdgFHZSdTmvBTdg3AQZkxDjl5TyqO07ZtK3p9kThrYKw7B/r7U5ouV7j9zHw7CjGkPqdB7/7QYpfvdY0wbkUFtWgdgg9L9Z+7DQZgx7dlCaTQgjXxdhjnB5O2FyYPTqc0XC4JgV3oMzH04CDOmPaSZUu+ECMSG876wq501qBdM3l7U5j8r3X/mXhyEGdOePABNlIYT+qcp3XePd8GYHGrTTgDLle4/cy8OwoxpzNF0hqR7pBeOzYYgKD0Cz5WTEi1l732BIAhtSo+BuRcHYca06TdKo5ToUAzpHa903z3WjecOldL8c6X7z9yPgzBj2jQPgEhpeOnE/kr33SOlxYZhbF9ygo4qAMuUHgNzPw7CjGmQIAjFIBZ9H98vlRN3uMDfLxglZan/S0EQbEqPgbkfB2HGtOtHSiOdTsBFY8mHh9gJDM9MlJKmUgTwmdJjYMrgIMyYdn2O7mT/TrtobA5MPkal++8R9Dod7rt4rJRHLBUEgVSYg2kfB2HGNEoQhEoA8yltA/18cPG4vkoPwSNcNXmg1FKRLyo9BqYcDsKMadvb1IZXTx4IH6NB6f5rWkZiJG6fOULKIzYKgrBa6XEw5XAQZkzDBEFYA2APpW1ooAlXnjVQ6SFoltFLjyevnwIvWs3gY15QehxMWRyEGdO+/1IbXnv2YCnVfnosQQCeuGay1DrNuwAsUHosTFkchBnTvjkAGikN/X2NuGX6MKX7rzm3zxyJqcP6SH3MfUdLU7IejIMwYxonCIIZwFvU9heP64espEilh6EZF4zJlpoZCwB+FARhldJjYcrjLLKMeQBRFEMBlAAIoLQ/WFGHq5/9BnaHQ+mhqNpFY3PwyJUToZOWgLsTQNbRhCush+OZMGMeQBCEBgDvU9unx4XjmrMHKT0MVbvunMH455WTpAZgAHiZAzA7hmfCjHkIURQjARwCcTZsszvwt5d/wN7iaqWHoipeBj3uu3gsLp3QT47H7QQwQhAEq9LjYurAM2HGPIQgCEcA/Ifa3qDX4YVbzkWgn4/SQ1GNyBB/vH/fRXIF4E4A13IAZsfjmTBjHkQURT8ABQBiqc/YlFeGe//7C2z2nr0/PL5/Kh6/5iw5r3DdLgjCe0qPi6kLB2HGPIwoijcC+FjKM37ZkIenviCVLNa8iCA/PHT5BEwamCbnY+cLgnCh0mNj6sNBmDEPI4qiAGA1AElVBT5ZshXv/LxR6eG4jZdBj1njcnDbjJHw95W1uMUuAOMEQWhVeoxMfTgIM+aBRFHsA2A3AG8pz/lu1W68/O0aOETPzSmhEwRMGtQLd14wCvERQXI/vhLdB7EOKz1Opk4chBnzUKIoPgXgcanP+WVDHp6ds9Lj7hAbvfQ4Z0hvXD91CJKiQlzxEi0AxgqCQMrtzXoGDsKMeShRFL0BbAQguUrDrkOV+NfHS3GksU3pYUkWFRKAi8f3xQWjsxES4LK82WYAMwVBWKH0eJm6cRBmzIOJotgbwHYA/lKf1dTWgX9/9ivW55YoPSyneXsZMK5fCqYO64MxfZOh17n0dmYTgBmCIKxTetxM/TgIM+bhRFG8FsDn8jwL+HV7Ad6ctx7VDeo+Z2TQ6zAsMwFTh/bBhP6pMPnIetjqZI4AmCoIwk6lx8+0gYMwYz2AKIqfArherud1Wm34Yvl2fL1yF1rNFqWH94eIID+MyknG6JxkDM9MgJ97Au8xZQDOFgQhX+n3gWkHB2HGeoCj+8NLAUyQ87kdli4s3nwA367ag6LKerePK9DPBwPSYjCgVxxGZCYgPT4C0lM7k/wK4CpBEGoVeXWmWRyEGeshRFEMBrAeQJYrnr/rUCVW7izEur3FKDvSJPvzdYKAhMhgZCVFYkCvWAzsFYuUmDClgu4xDgDPAHhSEATPOj7O3IKDMGM9iCiKSQA2QEJayzNxpLENOw9VoqC8Fgcr6lBZ14LK+hZYu+ynbCcIQEiACaEBvoiPCEZiZBASIoORFhuG9Lhw+Hp7Kf0WHq8OwDWCICxVuiNMuzgIM9bDiKKYDWA5XByIT6S904pWswUtZssf9471Oh38fLzg621EkJ+3q08uy2UOgPt5+ZlJxUGYsR5IFMVkdO9j9lK6LxpTBOAOQRCWKd0R5hk08ZWTMSYvQRBKAIwHsE/pvmiEGcBzAHI4ADM58UyYsR5MFMUwAD9A5lPTHsQK4EMAzwqCUKV0Z5jn4ZkwYz2YIAj1ACYDeBKAXeLjPIkDwPcAsgRBuJMDMHMVngkzxgAAoihORveBoyil+6KgRnTXYn5XEIQipTvDPB8HYcbYH0RRjAHwDoALlO6Lm+0B8DaArwRBMCvdGdZzcBBmjP2FKIqTu7q63vby8uqjdF9cqBbdS85zBUFYr3RnWM/EQZgxdkKiKBoA3Gi1Wl8yGo2yV7tXSAeAhQC+BLBUEIQupTvEejYOwoyxU/q/9u5fpaEYCsD4lzsI5VKhkwiC4KLg4isUnN3F1SfQd1NwcBCcRHByKeJkQcThSi/CleY4tIODCNXKtfj9IGTMSYYc8ockInrAYV3Xx2VZLuJ58T1wCpwA5yml17YDkiRpJhFRRMReVVWXOef4w0YRcRYRRxGx1fa4SV9xJSxpZhGxmXPer+v6oNvttv3q1jOTjykupvW128xaFCZhST8yfQKz3zTN7ng87nc6ndVfbK4Cbj6UK+A2pRRtj4P0HSZhSXM1/TJxB9gGNoB1YC3nvAL0iqJY5vO554XJxaknYAg8Ag/AHTAABimlYdv9k+bJJCypFRFRAkvAW0pp1HY8kiRJkiRJkiRJkiRJkiRJkiRJkiRJkiRJkiRJkiRJkiRJkv63dyQOMneRgA+XAAAAAElFTkSuQmCC;" vertex="1" parent="1">
          <mxGeometry x="679.21" y="424" width="48.58" height="50" as="geometry" />
        </mxCell>
        <mxCell id="1DGZzi-8BsjLAn0v7RLl-22" value="" style="shape=image;verticalLabelPosition=bottom;labelBackgroundColor=default;verticalAlign=top;aspect=fixed;imageAspect=0;image=data:image/png,iVBORw0KGgoAAAANSUhEUgAAAeEAAAHvCAYAAABjQGd+AACAAElEQVR42uzddXgbV9YH4N9IsmzLzMxxYgozQ5M2baCQMtOWtgzb7hY2Zdhyu2VumnKaNpw2aZg5jhM7McYYM8mWLGm+P5z0y7YhnRlpZuTzPk+e7ra9o3tVW0eXzgEYY4wxxhhjjDHGGGOMMcYYY4wxxhhjjDHGGGOMMcYYY4wxxhhjjDHGGGOMMcYYY4wxxhhjjDHGGGOMMcZ6OEHpDjDGmJqJougHIBpAFIBIAEHH/Qk++tdAAN6iKPpZrVaDIAiBDofDSxAEffcjRMfxz9Tr9XYAdp1O16TX65sBtAMwA2g8+tdmALUAqo7+tRZArSAIjtN2mGkKB2HGWI8liqIJQAqAZABJABIBJNrt9hSHwxGj1+sjdTqdr9L9PNpX0WazNTocjiqDwVCg1+sPASg67k+ZIAhWpfvJnMNBmDHm8URRDAOQefRPBoAsu92erdfr4+Ehn4OiKDosFkulwWDYYTAYdgLYC2A3gCKeQauXR/zwMcYYAIii6A1gAIAhAPqKophpt9v7GgyGEKX7phSbzWaxWq0HTCbTBgAbAKwXBKFY6X6xbhyEGWOaJYpiKoAxAAbbbLZhOp1ukE6nMyrdL7Xr6OhoEkVxq8lkWgFgPYAtvJStDA7CjGnQ0eXViOP++AHwRfdBIR8AplM07wDQCcCC7kNA7QCa/vSnQRCEDqXH+acx+wAYAWACgLEOh2OYTqfzV7pfnsBms3V0dXWt8PX1/RnAYkEQKpXuU0/BQViFjh4WiUT3h2vQ0b8dBECH7g9b49E/fsc1awVgO/q/G4/+1Q6gBd0fso0AGtD94WoDUzVRFMMB9AWQiqMHh0RRTHU4HGk6nS5UEASDq/tgtVo7Ojo66h0OR63D4Sj39vYu8ff3zwdQDKAEQLErA7Uoil4AhgGYKIriJFEUR+l0Om9Xj7unE0URra2th0wm0w8Gg2EhgE2CINiV7pen4iDsZkc/XI8dDklE99WHYwE36ugfP/ILnJkWdAfkY4G5GkAFgHIApUf/WiEIQo3S75enE0VRANAbwHAAg0RR7Gu32/sbDIYwpft2Jurq6szV1dVVtbW1BxsbG3e2tLSsKy0tXTV79mwz8f2IBTANwDSHw3G2Wk4m92RWq7XN4XDM8/Hx+RzAKj7kJS8Owi4iimIaugNtJoA++P/Aq4kP16M68f+B+SCAAgD5R/9awjNq54miaAAwFMBZAEba7fbRer0+SOJjVaWrqwuHDh2yFhcXN5aUlBwuLi7OW7Jkycp9+/ZtAFAI4H8+xEVRzAZwicPhmKnT6QaAP5dUq729vUkUxbn+/v6fCoKwTen+eAL+YZeBKIohAEaj+8N12NE/oUr3y8Ws6F6WzAewH91XIfYAyOfg/L9EUUxB9+xuisPhmNQT9zEdDgf27NmD9evXd23btq1k3759Ox555BHfKVOm5AQEBKQq3T/mvLa2tgqTyfSxTqf7XBCEIqX7o1UchAmO7tmOBTDp6J+BAPRK90slOgHsQ3dQPvZnhyAIrUp3zJ1EUewL4EKHwzFLp9P1U7o/jLmKKIpiU1PT2pCQkOcBLOflaudwED5DoijGAJgOYAaAyeg+icrOjB3ds+XNx/3Z52mHPURRjAdwtSiK1wmCkKF0fxhzt5aWlhpvb+9XvL29PxIEoVH6Ez0fB+FTEEUxEsClAK5E99UIfr/k0wZgO4B1ANaiO4FAm9KdcpYoikYAswDcJIriJEEQ+GeE9XhdXV1dnZ2d3wYEBPxHEIQ9SvdHzfgD40+OZty5CMDVAM4G4PKrIAxA9/WqnQDWHP2zThCEBqU7dTJHT/He6nA4btPpdJFK94cxNRJFEQ0NDSvCwsIeFARhl9L9USMOwkeJotgLwC0AbgAQrnR/GBwAtgFYBmApgM1qWL4+epL3EVEUL3fHXV2mrA5LF+pa2tHQ0oHGVjPqms1obOtAW4cFbR1WtHVY0NphQZvZgrZOK+x2EXaHA+bO7uRTZksXbPbuLVJ/XyN0xy2U6PU6mLyN8PM1wsdogI/RgECTD3yNBoQGmhAWaEKwvy/CAk0IC/RDSED3/9YiURRRU1OzNjo6+j5BELYr3R816fFBWBTFSQD+ge5Zb49/P1SsCcBv6A7KywRBOOzOFxdFcSiAf4qieAEvOXuOLpsdZUeaUFzVgMr6FlQ3tKKqvvWP/93eqa5Mjt5eBsRFBCEuLBBxEYGICw9CXHgQkqNCEB8RBJ1O3T+aoiiivr5+bXh4+AOCIGxVuj9qoO7/Yi4iiqIOwAUAHkb3dSKmPXnoniEvA7BGEIROV7zI0ZnvcwBmKj1gRtfeaUVpdSOKqhpQXN2AkupGFFc1oKKuBXaHZxzm9TEakBoTivT4CPSKC0N6XDh6x4cj0M9H6a6dUGNj46qQkJDbBEHIV7ovSupRQfhodqILADwDIEvp/jDZdABYCWAegJ8FQaiX+kBRFBMAPHn0pLNO6QEy52w5cBi5xdXYV1KDA2W1qGnsUTfk/kdydAj6p8ViQK9Y9E+LQWJksNJd+oPdbndUV1d/HhcXd58gCM1K90cJPSYIi6I4AcDz6D7lzDyXDcBqdAfknwRBqHKm8dEiAQ85HI5/6XQ6dU4h2GmV1TRhzm87sHDTfli7FD9KoCqhgSYMSIvBkD4JGJ2ThLhw5RO2tbW1mbu6uh4OCQl5p6fdM/b4IHy01Nkb6L7jy3oWB4CN6A7I8wRBKDnVvyyK4jSHw/GWTqdLUbrjp9JitqCuqQ2NbR2obzGjqa0DTW2dsHTZ0Gq2wNJlh6Xr5EnLDHodTN5eEAQB/r5G+PkYEWDyRoCvNwJNPgj080ZEsB9CAkwwGrSdg6ahxYxvV+3G96v3oqXdJTsWmpccHYIxfVMwKjsJA3vFwkvB/+b19fUlYWFh1wqCsFbp98VdPDYIH71q9LAoiv8UBEEzMxqzpQt1ze1obO0+jdnY1gFrlx2dVhscooi2DgsAoK3DClEU/2h37AMVALwMevgavQAAJh8vBPn5HP1w9UGwX/dfj/27PcxWAF8B+Ob44hSiKEYB+C+67/uqgqXLhuKqBhRW1qOwsgHltU2oqGtBZX0LWs0Wt/UjyM8HYYEmxIQFIi48ELFhgYgND0JCZBBSokNh0Gtjpb7D0oX56/fh06Xb0NBCqi3RI5h8jBiRmYDJg9Mxvn8qvL3cfwFAFEXU1dUtjoiIuF4QhFql3xNX88ggfLTs2fuCIPRSui9/1mK2oLSm+1BIaU0jSmuaUNfc/kfgPdUMRk46nYAgPx+EBpgQExaAyGB/RIUEIDq0+6+Rwf6IDg2A0UvbM6GTsAH4Fd0BWXA4HG/odDrFcn3bHQ4UVtRjT1E1ckuqkVtcjbIjTXA4ROkPdyGDXofk6BD0igtHelw4esWFoVdcGKJCApTu2kmZLV34esUufLF8u+pOPquNyceICf1TMXVoHwzPSoBe594vXG1tbebW1tZbYmNjv1L6vXAljwrCoij6AngBwF1Kj81md+BQRR1yi2tQUF6LkppGlFQ1oKFVVXXST0kQgKiQACRGBSMpMqT7r1EhSIwMRmxYoOqvQ6hZSXUjthwow+b9h7G9oBxtHZ4TEAJM3kiPC0dOSjQGpcdhYHos/HxOv/Iiit0/c+7Q3N6JT5Zsxfer9/Ce8RkICfDFlMHpmD4yC1lJ7s1NU1ZWtiIxMfFSNSfvkcJjPkVFURwmiuIXgiD0UeL1LV027D5UhW0F5dheUI4DZbVum9UqwcugR0p0CNLjI5AeF4be8RFIjw9HSACn1D4Rhygit6gav+8qxO+7ClFe23MOgup0AvrER2BgehwG947DwF6xqrk2U9PYivcXbMbCTftVv/KgFtnJUbhsYn9MHpzutjMDLS0t7Tab7fqwsLAflB6/3DQfhI9eO3pAFMUXBEFw69ppeW0z1uwpxto9RdhdWAWrjb9RRwT5IT0+HJlJkchOjkZOchRCNZrlRw4HK+qwaNMBLNuSj9rmdqW7owo6QUBqbChGZiVhwoA09E2N/p9MUkoorm7Aaz+sxYbcUqXfHs0ICfDFBaOzMWtcX0SHumcLoqKiYlFcXNzVgiA0KT1+uWg6CIuiGADgEwAXu+s1y440YemWfPy24xCKKiVfR+0RYsMCkZMSjZyUKGQnRyMzKVLzp25Ppb3TioUb9+Pn9ftQUF6ndHdULzTQhPH9UjFhQCqGZiQo+rOxcmchXvluTY++V+wsnU7AhP6puOHcochMdP1SdXNzc7NOpzsvMDBwg9Jjl4Nmg7AoipmiKP7kjuXnVrMFizcfwJIt+cgtrlZ66Jrn7WVAdkoUBqfHYWCvOPRNjYavt5fS3ZKsuLoB3/2+B4s2H/gjdzBzjsnHiFHZSZg4IA1j+6XApMDPhdnShY8WbcbcFbv+yPvMTk8QgDE5KfjbtGHISo5y6Wt1dXU5ioqK/p2RkfGM0uOWSpNBWBTFSQ6H4yedThfoytfJLa7GvLW5WL6tAJ1Wz93fVZpBr0NWUhSG9InHiKxE9E+LcftJTCnySo/g0yVbsXp3ERwi7yvKxeRjxJTB6Th/VBb6pcW4/fWLKuvxwtersONghdJvheaMzknGzdOGoW9KtEtfp7CwcEVaWtpMQRA0e+9Mc0FYFMWrRFH8VBAEl3xFFkVg7d4ifLZsO/YUOpVsicnEz8eIoRkJGJWdhBGZiYgNd+l3LbK80iN49+eN2JjH+4iulhIdipmjszBteIZbzxiIIrBkywG89sNaNGroZoNajMxKwp0XjkKfhAiXvUZ1dXV1SEjIOB8fn4NKj5dCU0FYFMV/AnjWFf12iCJ+3XYQHy/Zynu9KpMUFYKR2YkYmZWEwb3j4WNUtoJgeW0z3vl5I37dXgCe+LqXQa/DmL4puGhMDkZmJ7ntSlNDixnPzFmJNXuKlH4LNEcnCDh/dDZuP38kQl10e8JsNnc1NTVdGxcX943S43WWZoKwKIrPA3jEFc9en1uC/87fwIdoNMDopceAXrEYk5OCiQPTEOOmU5nAsb3CLfh65S508Ul4xaXGhuGaKYMwdWhvt6Va/GVDHl75bg0n+iDw9zXib9OG47KJ/V2SaU0URZSUlLydkpJytyAImvl6rIkg7KoAXFhZj5e+WY3tBeVKD5ERZSVFYuLAXjhrYC8kRgW77HWWbyvA6z+sw5GmNqWHzP4kIsgPV5w1ABeN7euWdKyV9S2Y/fmv2FHAe8UUSVEheOCScRiVk+SS5+/fv//XzMzM8wRB0MRBHtUHYVcE4A5LFz7k048exaDX4YMHZqFfqrwHeGqb2vH83JVYs6dY6SGy0/DzMeLCsTm4ctIARIb4u/S1HKKIub/txDu/bOSMW0QTBqThX1dOdMke/8GDB/ekp6eP1MKBLVUHYVEU/w1gtpzP3HLgMJ764jdUN/A9QE+hEwQ8feM5OGdob1mfu3jzAbz87Wq0uLFgApPOaNDj4vH9cOO5QxDs79oMboWV9Xj4g8UoqW5UetiaFOTng4evmICzh8j7uwsAZWVlhxMTEwfKUV/clVQbhEVR/BuAD+R6XqfVhrd+Wo/vVu3mwzQeRBCAf145CReNzZHtme2dVjw/93cs3ZKv9PCYBH4+RlwzZRCunDzQpfeNzZYuPPPlCizfVqD0kDXrrEG98PAVE2U/uFVVVdVoMpmGBAcHq/ZEnSqDsCiK00VRnC9XGkr+tuq57r5oNK49e7Bsz8srqcE/P1qKirqek9vZ04UGmnDzeUNx4Zgclx7g+mblbrwxbx0f2iMKCfDFI1dMxFmD5C1+19DQ0Nnc3Dw+NTV1i9JjPBHVBWFRFIc7HI5VOp1Olgzvy7YW4Jk5K9Bh6VJ6aExmN547FHecP1K25y3YuB/Pz13Je3weKi48CHddOAqTB6e77DX2FFXhkQ+X4EgjH+CjOm94Bv555URZs+i1t7fbKisrz+3du/dvSo/vz1QVhEVRjHI4HLt0Op3kNCsOh4jXf1yLuSt2KT0s5gKXjO+Hh6+YIMuz7A4HXvluLb5btVvpYTE3GJGViH9cPgGJkcEueX5jawce+2QZNu8vU3qompUWG4aXbj0PSVEhsj3TbDbbDx06NL1///5LlR7f8VQThEVRNIiiuEIQhHFSn9VpteFfHy3li/UealROEl6/Y6Ys9YzbO6145IMlnPWqhzEa9Lj2nMG4YeoQeHvJn/zF4RDxxrx1+Oq3nUoPVbP8fIz493VTMGlgmmzPNJvN9srKyvPS09OXKz2+Y9QUhF8G8IDU5zS0duD+dxZwoQUPlRgZjM8fuQwBJm/Jz6ppbMW9by/AwQpO0tJTxYUH4aHLxmNM32SXPP/HNXvx0jerYXfwVUgKQQCumTIIf79glGz55M1ms726uvqctLS0FUqPD1BJEBZFcRaA76X2p665Hbe+Og+lNXwAyxOZfIz47OFLkRoTKvlZZTVNuOONn/iqGgMATBqYhkeunOSStIob80rxyAdLOMuWBIN7x+P5m6fKdqe4ra3NVltbO1oNh7UUD8KiKMba7fZ9er0+WMpzGlrMuO21eSiqalB6SMwFBAF44W/nyXJysqiyHn9/Yz5qm9uVHhZTkZAAX/zrqkmYOEC+5c9jiirrce9/F6CyvkXpYWpWRJAf3rz7fKTHhcvyvObmZmtnZ+fg6OjoXCXHpWgQFkVREEVxkSAI50p5Tn2LGbe88iPPgD3YLdOH45bpwyU/p6C8Dre9+iMn4GAnNWNkJh68bDz8fORNgVnfYsb97yzAvpIapYeoWYF+Pnj9jhmylbY8cuSI2W63Z8XGxip2KETpIHwLgPelPKO904q/vfIjCg7XKjkU5kLj+6fi5dumS66YU1bThJtf+QENLarPZMcUFhMagNnXT8Hg3vGyPrfTasM/PliEDbl8EJDK28uA5/82FeP6pcryvLKyssbAwMDUkJCQJiXGo1gQFkUxxeFw5Op0OvIif5fNjnv++wu27D+s1DCYi0UG++Obx69EoJ+0a+M1ja246T8/8B4wO2M6QcBVkwfi7xeMkrXqT5fNjsc/XY7ftmuy/K0q6HQCHrliomyZ8g4cOFCckZHRRxAEtyeUkL+e1Bmy2+1vSwnAAPD0lys4AHswQQD+fd1kyQG4obUDd7w+nwMwc4pDFPHlrztw66s/ylo9y8ugx3M3TcXMUVlKD1GzHA4Rz321Eh8s3CzL8zIyMlL27NnzmyiKbp+YuqcI55+IojhDp9M9IeUZc1fsxBfLdyjRfeYml03sj0sn9Jf0jFazBXe88ROKKlWdw52pWE1jG5ZsPoA+iZGICw+S5ZmCIGBcv1S0dVj4OqUE2wsq0NjagdE5yZK3q6KiopJ27NgR88EHHyx05xjcHoRFUfTt6uparNfryT/Newqr8Piny+FwcCUGT5USHYoXbz1P0jKgwyHiHx8swq5DlUoPh2lch9WGJVvyIYrAwPQ4CFI/8dG90jMqOwneXgZsOcArelR5pTWoa27HmL7Jkv+7REdHD54xY8aRDz74YJu7+q/EcvTDXl5eidTGdc3teOj9RZwk3YMZ9Do8dePZkjMZvTFvHR+AYbJxOER8sHAz7n9ngayn6687ZzDuvGCU0sPTtJ/W5eKlb1ZJrpAnCAL69Onz9tq1a6VfxThDbg3CoijGOhyOR+jtgae++A31fLrVo90yfTgyEyMlPWPx5gOcMpC5xLq9Jbj+xW9xuLZJtmdeP3WILFfwerIfVu/FK9+vlvwcf39/XUpKyory8vIwd/Tb3TPhx3Q6HTnf4Ly1e7FhH89sPFl6XDiuO0daacL9ZUfw7JyVSg+FebCymibc8OL3sm513DJ9uOSf/Z7um5W7ZTmsFRcX51dVVbXBHX12256wKIrJDofjM0EQSIG/oq4ZD72/mJehPZggAM/ffK6kwy8NLWbc/tpPaG7vVHo4zMN1Wm1YuiUfMWGBSI+XJ4vT8MxEdFq7sLuwSunhadb2ggqYvL0kJ/SIjY0Ny8jI8P7xxx9dmmPabTNhh8PxtE6nI23ydS9Dr4CZc696tBkjszCodxy5vSgCj3+6HDWNfBWJuYfVZse/P1uODxZulrwfecxdF47BrHF9lR6apr0xbx2WbsmX/Jyzzz774W+++Ub+PKbHcUsQFkUxSxCEK6ntl23Nx/aCcnd0lSkk0M8Hd104WtIzvv19N9dwZW4nisAHCzdj9ue/ylItSRCAh6+YgGkjMpUemmYdOz+0o6BC0nNCQ0N1CQkJLi176JYgbLfb/0FdhjZ3WvHGj+vc0U2moDsvGIUQCRVsiqoa8NZP65UeBuvBFm3aj3+8vxhWGbbMdIKAx685C6Oyk5QelmZZbXY8+N5CFFdLK+ozatSo1Oeff/4WV/XT5UFYFMVoKbPgDxZt4Wo3Hi47OQoXjMkmt++y2fHEp8th6bIpPRTWw63eXYR73/4FZov07IcGvQ4v3HKe5JsCPVmL2YJ73v4FTW0dkp4zatSoZ13VR3fMhP+u0+m8KA2rGlrx3e+73dBFphRBAB66bDx0Ei7Zf7hoCw6UHVF6KIwBALYcOIw735gvy11ik7cX3rhzpmyZunqiyroWPPLhEtjs9K2CsWPHhj/55JM3uKJ/Lg3Coiiaurq67qa2/3DhZlmWdph6TRyQhpyUaHL7vcXV+GyZ25LbMHZG9hRV4bZXf5SlYldooAlv3XU+gv3p2zU93bb8crz2w1pye0EQMGbMmOdd0TdXz4Sv8fLyCqQ0LKluxMJN+13cPaYknU7AbTNHkts7HCJemPs7py9lqlRQXodbZArEiVHBePWO6ZKzyPVk3/6+Gws30mPKuHHjombNmjVZ7n65NAh3dnb+ndr2/QWb+MPVw00bnoHUmFBy++9W7UE+15FmKlZS3Yg73vhJ8p4kAPRLjcG/r5ssuVBBT/bSt6tRRaymZjAYMH78+Efl7pPLgrAoiv19fHxIl93Ka5uxYuchV3WNqYDRoMctM0aQ29e3mPHego1KD4Ox0zpUUY+/vzEfrTLsEZ89pDdumDpU6SFplrnTiue/omfTGzVq1GgAsi5HuCwIOxyOm6ht567YybNgDzdrXF/EhAaQ27/2w1q0dXDyFqYN+YdrcddbP6NdhoRDt80cgXH9UpQekmZt2FeKncR0o4MHD/a66aabrpWzPy4JwqIoetvt9usobVvaO7FAwro9Uz9fby/ccC792/z2gnIs2yo9Gw5j7pRbXI173v4FHRKvL+kEAU/feI6krZye7pPFW8ltBwwYQN5mPRFXzYRnUg9k/bg2V/IPKVO3C0ZnI5SYmMMhinjluzWypQhkzJ12HarEwx8ulpxZy8/HiJdvn45AE7keTo+2Ma8UJdWNpLYZGRk5kDF2uiQIWyyWqyjtHKKIn9bmuqJLTCUMeh2umjyQ3H751gIUlNcpPQzGyDbkluLZOSslf5FMjAzGMzdNlXTHvidbsuUAqd3IkSONCQkJspW7kj0Ii6Loq9frp1LabjtQjsr6Frm7xFTk7CG9EU3cC7bZHXhvwSalh8CYZL9syMMHC6X/LI/KTsL1U4coPRxNWrzpAOmLkJ+fH6ZPn36NXP1wxUz4HIPBQFoj+WVjngu6w9RCEIBrzh5Ebv/z+n0or21WehiMyeLDRVvw0zrpK3+3zhguqfpYT1XV0Ir8w7RMe9nZ2WfL1Q/Zg7DVar2U0q7FbMFKvpbk0UZmJyE9jlZ3tdNqw0eLtig9BMZk9cLcVVi3t0TSM/Q6HZ69cSr5nEVPtjWfVp0vOTk5DTLFT1mDsCiKRkEQZlLa/rb9IKxdnKLSk113Nn0b5btVu7mQB/M4docD//poCQor6yU9JyLYD0/dcA7vDztpGzEIZ2VlGQDIck9M7pnwGC8vLz9KQ54Fe7Y+CREY3Due1NbSZcOcX3coPQTGXMJs6cL97yxEc3unpOeMyErEDefy/rAzdh6qJJ1UT05ORnp6+nA5+iBrEHY4HFMo7VrNFmyXWHyZqduscaTkaQC6D7E0tEpP+8eYWlXUNePBdxeiS2LBmlumD5dUEKWnMXdaUXakyel2giBg5MiRE+Xog6xBuL29nbQUvWZPkeQfPqZeJh8jpg7tTWrrcIj46redSg+BMZfbeagSr/+4TtIz9Dodnrr+bPgYudDDmTpIvPKYkpJCP2V6HNmCsCiKof7+/hmUtit3FsrVDaZCU4f2hsnHSGq7YuchPhHNeoxvf9+NXzZIuyWSGBWMe2eNVXoomkHdj4+IiEiS4/XlnAlPEgTB6edZbXZs3l8mYzeY2khZiv5i2Xalu8+YW73w9e+Sq4PNGtcXo3JkiREe71AFLQiHh4cHyfH6sgVhi8VCStCxp7AKnVabXN1gKpOVHIU+CRGktlvzy7G/jHaPjzGtsnbZ8cgHSyQVexAE4IlrJiPYn68tnU5FHW2lLTY21gAgTOrryxmEz6K041mwZ5s1Nofc9vtVu5XuPmOKOFzbhGe+XCHpGeFBfnjosvFKD0X1jjS2kdrFx8cDAO3Kx3FkCcKiKAYEBAQkUtpyEPZcRi89zhqUTmpb32LGmj3FSg+BMcX8uv0gvl+9R9IzzhnaG+P6pSo9FFVrMVtgJhQNiouLg7e3d4LU15drJjyEsh/c0t6JAxL3Pph6je+XCn9f2oGsn9fvg80urdIMY1r32vdrcUDilszDV4wnH4zsKSizYaPRiPT0dNJh5OPJFYRJl5Z3FVbC4eCadJ5q6rA+pHYOUcT8dfuU7j5jirPa7Hjsk2WSzs1EhQTgzgtGKj0UVasjZuMLCQmJkfrasgTh5ubmSZR2ucU1crw8U6FAkzdGZtNOZ27cV8rVtBg7qqS6EW/OWy/pGReP74cBvWKVHopqtXVYSO2Cg4PVcTDLy8uLlBQ4t6RajpdnKjR5cDqMBj2p7U88C2bsf3y/ejc25pWS2+sEAf+6ahIMepeUkNc86kn0gICAYKmvLfm/iCiK4SaTKdT5dsD+Ur5+4qmoS9Et7Z1Yn1uidPcZUxVRBJ76/DdJ+aVTY0Jx+aQBSg9FlahB2GQyhUh9bTm+FmVTGpXUNKDVTFsCYOoWGexPXvr6dftBTmHK2AnUNrfjhbm/S3rGLdOGISKIVGPHo7V10IKwn59fgNTXliMIZ1Ea8SzYc43tl0IuqbZ0S77S3WdMtX7dfhC/76Kn+TX5GHHPrDFKD0N1OghXlADAYDBI/kYjOQi3tbWRklhTU4Ux9ZswgHYvsbqhFbsKK5XuPmOq9uLXq9AiYRVx6rA+5LKinsohkm/p0A6+HEdyELZYLKQgXFzVIPWlmQqZfIzkX/ClW/JB/11grGeoa27HWxJPSz942TjodLTVKk8kEj94dDK8iZKDsK+vby9KuyIOwh5pVHYS+VT00q28FM3YmZi/Phfb8svJ7dPjwjFjJGkn0SNR01VQklT9maQHiKIYbDKZAp1t12m1oYrvgXqk8f1pS9GHa5t4i4KxMySKwLNzVsLaRT/EeNuMEfD19lJ6KKqg5ZkwKV90cXWDlDV4plJ6nQ6jc5JJbVfvKlK6+4xpyuHaJny+nF7qMyLYD1dNHqj0MFSBGoQFgXgC9ThSgzApJVJZTZPUfjMVykmJQqDJm9SWizUw5rzPlm6TlF3u2rMHIyzQpPQwFOdF3EKzWq3aDMLVDa1S+81UaHgmaWEETW0dfCqaMQJLlw2vfr+W3N7k7YW/TSOl/vco3l4GUjuLxSI52YWkINze3k6qU1fVwPvBnmgEMQiv3VvChTwYI1q1q1BSlrkLxmQjLjxI6WEoysdI2xu3WCwdUl9bahAmlXHimbDn8fMxIjslitR27R7eD2ZMile+X0Mu/WnQ63DTeUOVHoKifIy05ejOzk56HtGjJAVhnU5HWo6uqucg7GmG9ImHXuf8j5Pd4cCWA4eV7j5jmlZW04R5a/eS208bkYHEyGClh6EY6nJ0Z2cnrQbicSQFYS8vr3BKuyqeCXuc4ZkJpHb7imvIeVsZY//vw0VbyL9Lep0Of5vec/eGqVe1Ojs7zVJfW1IQ9vX19Xe2jbnTCjOxYgVTryF9aEF4M8+CGZNFY2sHPlu2jdz+nCG9kRgVrPQwFBFAvNXR1tbWJvW1yUFYFEUfo9HodM8b2yTvYzOVCfTzQUq009UsAQCb95cp3X3GPMbXK3ahppG20qjTCbjubFJpeM0L8vMltaupqZFciUjKTDiC0qixlYOwpxmQFgPKlXVzpxW5xdVKd58xj2HpsuHDRVvI7aeNyER0qOTqfJoT7O9Danf48GHJdyulBOEwSiMpRamZOvVLjSG1236wgnyikzF2Ygs37kd5bTOprUGvwxWTBig9BLcL8nM+CLe2tqK1tVXRmTDpUFYTL0d7nP69Ykntdh3iBB2Myc1md0iaDV84NgeBhKCkVQa9DiZvo9PtGhoaAEBywnu3z4Sb2ngm7Em8DHpkJUWS2u4urFK6+4x5pCVbDqCkupHU1uTthYvG5ig9BLcJ8vMhbafV19cDCgdh0sYBL0d7lj4JEaQ7dlabHXmlNUp3nzGP5HCI+GgxfTZ86fh+MOglV+nThIhgpy/5APgjCNO+6RyH/C47HA4/SrsOS5fUPjMVyUqiZcnaX3pEUhk2xtipLd9WgMO1TaS2kSH+mDSQVCpec6JCaEG4qqoKAOqkvj45CHd2dpJmwpYum9Q+MxXJSCQdkuelaMZczOEQMefXneT2V5w1QOkhuEVEMGk+icrKSgeAWqmvLyUIkzJ+d1o5CHuSTOJ+8N4iDsKMudqCjXmoa6ZlVuybEo3e8aTzt5oSSVyOrqurawIgeTmPHIS7uroCKe04CHsOby8DUmNoSTrySiWf7GeMnYa1y45vft9Nbj9jVJbSQ3A5ahCura2V5UOMHITtdjtpObqzi/eEPUWfxAhS0YaGFjM5qw9jzDnz1uwln8U5b3gGjMSC91oRRUxOUl1dLUvOXSlpK0kL6TwT9hwZCbT94P1lPAtmzF1azBYs3nyA1DbIzwdj+iYrPQSXig6lzYTLyspK5Hh9Kaejnb/dDMBm4wxJniItlnRVHPt5KZoxt/pm5W6IIq2tJy9J63U6xIQ6v7NqtVpx6NChAjn6IGUmTGorUn8SmOqkUoMwz4QZc6vi6gZsJVYsG5WdhPAg2glitYsJCyDdhy4tLYXNZpOl+oyU29iEHCMAh2DPkUY8lHWwXPLVOsaYkxZszCO10+t0OG94H6W77xIJEcGkdocOHQKAQjn64PaUKKTIzVQnIsiPlF/WbOlCVUOL0t1nrMdZubMQbR20Wu7TRmQq3X2XiIsgXfJBYWEhoIIgTIqnDl6O9ghpcbSl6KLKevLeFGOMztJlw/JttG3MtNgw8qxRzahjKi0tbQfQJEcfpARh0kepQMmUzVQnOTqE1K6oqkHprjPWY/2ygbYkDQCjcpKU7r7sEiJJOadQWVlZLlcf3L8nzNMgjxAbRvvhPVQhuegIY4wot7ia/EXYE68qJUfTzrUUFxcflKsPzpe/+X+kaKrjmbBHiCfupZTU8EyYsdPRCQJCA02ICPJDRLAfQgNNMHkbYfLxgsnbCH/fE98QbTVbYLM7YLZYYe2yo7m9E03tHWhu60Rjawea2jqwcGMe7r5ojNN9Gtw7HiZvL5g9pAiPt5cB8eHOTyYcDgfy8vL2yNUPchC22+0W0sCNUuI+UwvqTLiilg9lMXaMIABJUSHITo5GakwokqNDkBITirjwQFI2ujNBrV5mNOgxPDMRv++S5TyS4pKjQ6DTOT8pLC4uRnNzMy37yQlIiYgdlEZGL89OgdZTxIY7PxN2iCKq6tUVhAUBCA0wIdDkAx+jAV5eevgc/aLY1WVHp9WGTqsNrR0W1Le086EyJlmvuDCMzknGoPQ49E2NQaDJ262vL+UzeFROkscEYWqyoX379gHAPrn6QQ7CgiCQSnP4EArAM3UJDfCFydvL6XZ1Te2w2txfQ9ho0CM1NgyJkcFIiQlFUlQw4sODEB7sh7BA0xnPOKw2O6obWlHd0IrSmkbkFtdgX0k1SmsaOTizU8pJicZ5w/tgbL9UxBBzFatBv9QYpbsgG3Lxmbw8EUC+XP0gR0S9Xk8Kwt4chDUvjrCPAgDldc1u6V98RBAGpcchKykKWclRSI8Lg5cMSeiNBj0SI4ORGBmMYRkJuGR8999vNVuwNb8cK3cewrq9xeS7mMyzBJi8ccHobMwYlUX+wFeblOhQj9kXpmb8KywsPAKAVh/yBKQE4TZKOyMHYc2LiyAe669zzVJ0aKAJo7OTMDQjAYN7xyEqxL0zjQCTNyYNTMOkgWmw2uzYsv8w5q3Nxbq9xXwvvgcKCzThqskDMWtcX/j5kFLsq5ZOJyA5JhR5JTVKd0WytFjaF6NDhw7Jth8MSAjC3t7epE9UnglrX2wY7WR0hYwz4V5xYRjfPxXj+qUiMylSNafujQY9xvRNxpi+ySitacScX3di0eb95MMwTDt8vb1w/TlDcPWUgR79ORcTGqD5IOzvayQdLrXb7di5c+cWOfsiJQiTZsI+Rj6YpXXxxJlwhcSZcGSIP6YO7Y1zh2cgPS5c6bfhtJKiQvDo1ZNw64zheO2HtVi2VZaiK0yFpgxOx30Xj0VkCK0snpaEBpiU7oJkfRIiQfneXlhYiObm5t1y9oUchH19fUnTmgCT8/mGmbrEuHEm7OdjxIQBaZg8uBdGZSe57NqGK4UH+eHZm6biorE5eGHuKhRX811pT+Hva8TDV0zEucM8s8DBidgc2i9Hm5FIq4W+Z88eQMaT0YC0PWFSKZwgQtJ/pi7hQbRvws7MhPulxeDyif0xvn+qxyztDe4dj68evQJv/bQeX6/cpXR3mESZiZF48dbzyNszWmW1an9rpU8CLQjv3LnTDmC/nH2R8ulGCsLB/r5y9p8pIIywHGWzO1DfcuoDhV4GPcb3T8WVkwagX5rnXIU4ntFLjwcuHYfs5Cg8/eUKWLpsSneJEYzvn4pnbjwHvoSrelpXVK391LMZiZGkdvn5+cUASImqTkZKECb9lwgL1P5+Qk9m0OtIWwoNreaT3qUNCfDFzFFZuHRCP7efbFbK1GF9kBwdggfeXYSaxlalu8OccMn4fnjo8vGqOQzobuZObV9P8vX2QnIUrQCN3IeyAGlBuJbSKKoHHFzwZCH+vqQDDY2tf02wFhnsjxvPHYqZo7J6ZCa1jMRIvH//Rbj55R9Q1yzbtUPmQheMycY/Lp9A+h3wFHq99s5lHC89PpyUrrK8vBxFRUXr5e4P+d0UBKG5s9P5r0QRwX6kN4CpQyhxJaOh1fzH/w7298VdF47GT09fi4vH9+2RAfiY+Igg/PeeC/ishAacM7Q3/nXVpB4dgAHAoPHP75zkKFK7HTt2AMAOufsj6cRLU1NTc3R0tFN3RfQ6HSKC/HkJTqOo1xMaWswI9PPB5RP746rJAz0uiYEUabFhePOu83H76z/B3MnZttQoKykS/752ituWoO0OBypqW1Be24z6VjNqGlrR2NaBDksXzJYutJg7T9jO38cbep2AAJM3TD5GBPn5IMTfF8H+PggJMCEqxB/hQX4wSJjNavGGwvFyUqJJ7Xbu3OkAIFv1pGMkBeH29vYaAE5f2IwO5SCsVSEBtIN1MWGB+OWZ609agq2ny06OwlPXT8GD7y1SuivsT0IDfPGf26a5bMXGIYoormpAdUMrOq02eHsZ4OdjREiAL3JSonBs6t3eaUVreyeqGlpRWFmP/aVHsHl/mdMpJHWCgLBAE/593RSMyEp0ur9aX46m5r8+cODAYQBmUuNTkBSEu7q6DgPIdrZdXHgQdhdWyT0W5gbUg3WD0uOU7voJNbZ2oKHVjNqmdrR1WNDWYf2fVJMBJm/4+RgRHRqA2LDAPyosucKEAWmYNa4vflyzV+m3hR3nX1dNkv3AoN3hQF7JEVi6bIgJC0BabNhpq/oEmrwRExqA3gkRGN8/FUB3WcItBw7jy193YHtB+Rm9tkMUUdvcTj6Zb7Fq90R/ZLA/ookFNLZu3brZFX2S9Imi0+kOApjqbLvkaNrJNKY86kxYaS1mC/JKapBXWoPCynqU1TShtKbR6VlEfEQQclKi0S81GuP7p8r+4XzfxWOxo6CCE3qoxJTB6ZgwIE225zW0dqCwsh6pMaHom0pbFj2e0ev/06Ru2FeKl79djbIjTWfU1kTcEmq3aHfLhLoUXVRUhMLCwt9d0SdJQTgkJIS0SZ0YGeyKsTA30Mpebm1TO7YVlGN7QTl2HKzA4SNNspQbLK9tRnltM5Zuycd/vl2N7ORoXDQ2B1OH9YFRhkpNPkYDnrnpHFz/4nfoUqDsI/t/fj5GPHTZeFme1WK2YH9pDfqlxmBon3iX9HdUdhI+evBi3P76TyisPP0NUj/iHWctX1HqR/zis3HjRgDY5Io+SQrCERERpByaSTwT1izqt2dXc4gicouqsXZvMdbuLcahCuevset1OsRFBCLY3xeBJm/4GL1g7rQeTTRiRl1zO5rb//9AjCgCucXVyC2uxn/nb8BN5w3DxeP6Sj793ychAheOycF3q2RNUcucdM2UQeTbAMfbvL8MceFBGJ7p/P6rs0IDTXj//ovw9zfmI//wqW+RUn+XtXx4sC9xP3jr1q1WALmu6JPUDa4CURQhOHliMDEyGDpB4DJvGmRSWYaggvI6LN58AMu3FuBIk3M1RXQ6AQN7xWHCgFQMTo9DSkzoaesOt3daUVhRj0OV9dh1qBJbDhxGXXM76lvMeOmbVVi4MQ+zr5tCrlV6zM3nDcXCjXkeUbdVi0IDfHHl5IGSnmG12fHD6j2YNa6vW1OvBvv74vmbz8UVz8w95b6vycf53+Uumx1Wja7QGA16ZBIzZe3du3c3AJdshkv6yRAEob2+vr49NDTUz5l23l4GRIcGoLLeNfVlmeuoYSZc09iKpVsKsHjzgTNadvsznU7A9BGZuHXGcKf3dP18jOiXFoN+aTG4aGwOACD/cC2WbMnHsi35yCs9gutf/A5P3XC2pL3E0KM1aT9cJHuCHnYGLps4QNIXzvZOKz5ZvBW3zRxx2i92rpAYFYxZ43Iwd8WuE/5zQaDl8dfyl8Ls5CjSCXez2YyNGzeucFW/JH89a2xsrAwNDU13tl1iVDAHYQ1SaibsEEWs21uCb37fhW0HysmrKNGhAXjjzpmnPYnqjD4JEeiTEIG7LhyFpVvy8enSbXjo/UV4/JrJmDkqi/zcq6cMwg9r9p4w2xhzHaNBjwvHOH3p4w+WLhse+WAxZl9/tiIB+JipQ/ucNAgHmnxIs/OT3U/WgkG9aTc0tm/fjo6ODtkzZR0jOQh3dHQUAHA6CCdFhWBTXpmrxsVchLKEJYW504pfNuzHt7/vxuHaJknPig0PxHv3XeSyqjd6nQ7TRmTi3OEZ+Gblbrz83WqYvL0webDTvx4AumfdF47JwSdLtrqkv+zEJg3qJWkv+Nk5KzGod7ziefIzk6IQGex/wm0aavrgI42kMvKqQL0muWHDBgBwyfUkQIYg7OXltRPANGfbJRETaDNl+RrdE4SrGlrx9Yqd+Hl9HtplOAgSExqADx+Y5ZYCETpBwJVnDcC4fil45MMlSI0JJe8Rnz86C58u3SrLyW52ZqYOpdcGXrBxP7bll+Oxq89SehgQBCA5JuSEQTiSGoSbtJnj3KDXkZN0bN26tQLEWglnQnLqk+Tk5I2UdklRwa4aE3MhV+f9bmjtwFs/rcesf3+BuSt2yRKAAeDBy8a7vUJTfEQQ3rrrfLy/cDOsXbTDLHHhQRjaJ8Gt/e7JAkzeGJ5Je7+b2zvx2g9rMTA9VjX50LtO8nMXGdyzZsJZSVGkspN2ux3r16//zZV9kzwT9vb2JhU45pmwNrkqb2xDawc+W7oNP67ZK3uN3ZjQAIztl+KOt+cvQgJ88ejVZ+HHtbm4YlJ/0jPOH52NLQcOK9L/nmZMTjJ5H/fTpdvQ0t5JLhjvCtUNJ04PHEEMwrXN2gzCA9NjSe127dqF6upqdQdhAKVdXV12Ly/nvvpFhQTAx2hAp4ZToPVEcl+1sHTZ8NnSbfjqt50uO3k5IitJ0dqvgSZvhAX6orm9k3QideKANPj7GtHWod37mVoxuDctkUar2fJHutFgf3VklTN3WlFzkplrfEQQ6ZlanQkPTqf9d129ejUArHFl3yRPawRBcNTV1TmdY08QeDasRUaDfDPh1buLcMnsOfhw0RaXXn0Y11+ZWfDxpgzujaVb8kltjV56XpJ2E+rhnUWbDqDj6M+wWjJK/bbj0ElvESQQg3CNBoOwQa/DgF60/eAtW7bUAHDpCWJZPlGbm5tJnUyPd7oAE1OYTobl6PLaZtzz9i944N2FbrmmFkYsvygnQeg+DENdandHtqWeLsjPB4nEsyrLtxf88b/3lx1ReigAgPnr9p30nyUQUwcfrm1WelhO65caQ8pv4HA4sG7dOpfkiz6eLEHYZrPto7TrzUFYc/QSD2bNX7cPVzwzF+tzS9zW56Z2ddxtTIsJw4odh0hth2fxTNjVesXRPo8aWjuwt+j/q8Kt2VOkeN7vPUVV2FN04kp1ASZv0rZIi9mCFpX8LjmD+gU2NzcXFRUVy13dP1mCcGBg4DpKu/R49RxgYGfG7qDdlWkxW/DwB4vxzJwVfyzbuUteSY1bX+9kEqOCsXzbQVLbhIhgl91vZt16xdGuke08WPE/V8hazRZszT+zsoKuYHc48MLck0/gyLPgM6zOpDbU0+6rVq0CXLwfDMgUhBMTE0nZRHgmrD3UAHrjS9+RZ4FSVdSpZwmtuKqePJsYmsGzYVeiVnfbV1L9l7/33oJNcBC/sEr1+bLtKCivO+k/p+4HazEIB5q8kZUURWq7du3aWgCFru6jXKdsCqxWq9PrL0F+PuRL40wZdc20y/oNCqZeXLHjkCoqv1htdtS3mMmzpOxk2ocJOzPUazuHTpC/PK+kBnN+I1V6lWTDvlK8t+DUFfeoB2LPtE6xmgzNSCDlNujq6sLq1asXu6OPsgRhQRBs1dXVpNMIPBvWlvoWM6mdktWXzJYuLNtWIP1BEm3ZfxidVhs276cdtlTT/VNPRE3lWH7kxCst7y3YhB0FFW7rf1FlPf710ZLTzsCpy9HlGjyURd0P3rRpE2pra7UThAGgubmZlLSjN+8La4rZQptRKl196ZPFW92+F/1nv+3o3g/eeoA2E06PC3dZshQGBPh6k9qdrISmtcuOe99ZgH1uOJOQV1KDW16dd0Z3yZOIQViLM+ERxCD866+/igBWuqOPsv1G63S6DZR2fE1JWzostCs2StchrmpoVbQsoLnTijW7iwAA5XVNpH1ho5ceqTGhio3B0xkId+AtXbZTJhwyd1rx9zd+wtq9xS7r94Z9pbjttXloajuzLZ/4HhKEk6NDEBtOO8y4YcOGAwDqSI2dJFsQTktLI9Vb5OVobaHPhJUNwgAwd8VO7DxUqchrvzFvPVrMFgCAKAL55bTf7z6JvHLkKkZCusoum+O0/05bhxX3v7MA7y3YBJv99P/+mbJ02fDq92tw79u/nHGym5AAXwSanJ/xN7V1aO560pi+tCQ9jY2NWLt27Xx39VO2IOzj47NLJJR6SYgMJiXWZsqgZgPy81Z2ORoAbHYHHnpvkdtPS285cBjz1u79n793gJjQISMh0q1970koQdh6hveBRRH4aNEWXPH0XGzILZXc1415pbj62W8wd8Uup2prU0+Al9U0Se6zu43tm0xqt3LlSlitVpffDz5GtiAsCEJTfX19q7PtdIIga4F15lrU9JJK7wkf09TWgXve/gW1birJVlBeh0c+WPyXUoT5h2mV0Xgm7DoGQhC2OZmUo7i6AXe//TNufXUelm7JdyqDmsMh4rftB3H1c9/grjd/RnG109mCe8zJaH9fI/qn0Yo2rFy50gKAVB2QQtZs/HV1dcXh4eH9nG3XOz4cucXVzjZjCuggLkf7qWA5+piS6kbc9PL3ePvuC8gzgzNRVNWAO9+c/8cy9PGoM+E+CRHQCYJTsx92Zrz0zs9J7MT/DtsLyrG9oBz+vkaM7ZuC3gkR6B0fjtSYMHgbDei0dqHLZkeL2YKdByuwLb8cOw5WSC7iQT0ZrbUgPCIrCQbCf08AWLFixXoAFlJjAlmDsMVi2Q7A6SDMh7O0g/oh4KeSmfAxlXUtuPnlH/DMDedgGDGjzqms3l2EJz5dftJ6yGU1TTBbupw+sGby9kJ8ZJAmlwfVrsNqc7qMIWV/9XhtHVYs2ZKPJcTiHs4iL0drLAiPyUkmtdu9ezfy8/O/d2dfZb3vEBkZSTycxUtsWqH15ejjNbSY8fc3f8JL36yWraRmW4cVr36/Fg++t/CkARgAHKKIg8TDWbwv7BqUg0cmbyN5xqUEaoGKsppGpbt+xnSCgFHZSaS2ixYtAoAlbu2vnA+LiYnZRGnXKy4MCpZ7ZU6gZp5S03L08UQR+G7Vblz61Bz8uGYvrF20xPs2uwPz1ubioic+x9wVO3Emq5Tkw1m8L+wSlCAsCNJnw+4iCEB8uPMpK0VRW4k6MpMiERpIq5y2atWqIgDST845Qd4K7UBRR0eHzdfX16nn+vkYkRARrLklj56ojRyE1TcTPl5lXQuen/s7Pli4GZdO6I9ROUnoEx9x2pR3ByvqsGDDfizdcsDp1Jzkw1mcOcslqNW2gvx8FU3LeqZCA0ykmyi1TW0urfctt/H9U0ntGhoasHr1arcuRQMyB2FBEMSioqLKlJQUp9OUZCdHcRDWAOoVJV8VXFE6E/UtZrz7y0a8+8tGBJi8MbBXHFJiQuBj9PrjCktdczsOVtShoLxO0t1J6kw4JZoTdrgC9b9lWJCJdFLZ3SKJubG19rk8cWAaqd2SJUtgtVoXuru/cs+E0draug8AIQhHu+1wAqOjpn708ZL9R83lWs0WrNlThDV7XPP8wsoGWLvsMHo5dxgoItgfvt5eiqfh9DTNxCCcGBmMbQqWLjxTUaEBpHZVDU7fPFVMUlQI+Uvq8uXL2wGQtlSlkP1EgV6vX0Vpl53CFWK0wJl7jcfzNjp/B9PT2R0OlB5x/sCLINDL0bGTq6xvIbVLjqbdvXU36kz4SGMbqZ0SqLNgu92OFStWLAUgzwlNJ8gehLOzs0mVJ/rERzh9PYC5HzUIGzU4E3YH6lUjatIFdnLU/xaJkdr4bxEZ7Edqd7ICFWo0aQAtCK9duxYVFRU/KdFnV5ytzzObzU5/Uhu99EiP48xZamchXuXx5iB8QqXEqx/Uqybs5Kj/LZKig5Xu+hmh1m7Xykw4MtgfmUm0FdX58+fbAbildOGfyR6EBUFwVFRUkDZIspOjlXgPmBM6iTNhLe4JuwP10IsrM331VBV1LehyMg0lAMSFBcHHqP6f7/Ag2ky4ttk9KV6lmjAglXTVVRRFLFu2bD0ARS5Du+SWeVtb21ZKu6xk3hdWO4dDJFWC4T3hEyMvgfJytOzsDgcq6pzfF9bpBGQRZ2DuRL3PrJXl6IkDe5Habd++HQcOHPhaqX67JAgHBgaSpvXZHIQ1gbIvzMvRJ1ZCXQLlIOwS1CXpnBT1r+IFEINwc5v6SxiGBPhiUDqtYMP8+fNFAD8r1XeXBGFqbeGU6FDyDwpzH0qKRz6YdWIt7Z1nXIz9eIEmb4QE+CrdfY9DTaDSN1X9Qdjf1/nP1g5LF+wO+Wogu8qkgb2g19HC2dKlS3cBqFKq7y4JwoIgHG5oaHD6k0UQgMxEzourdnbCcrSO85KeFO8Lq8feIlo1t/6pMUp3/bQoWeukVm1yl7OHpJPaFRQUYPv27XOV7LvLMo9XV1cXUtrxvrD6UcronS79Y09WyteUVGNfSfUZ5f3+s9BAE2LDA5Xu/kn5GA2kQhNtnW6r6EcWFmjCwF5xpLbz5s0DgF+U7L/LgnBnZ+d6SjveF1Y/SgVVDsEnd5g4E44iXjlhJ9ditqCkhpaCcliG/CUx5ULN3a6FmfBZg9LJX/KXLFlyCECBkv13WRBOTExcQGnXVwMHHHo60eF8GKbu1/QE1OVo6pUTdmrUJenhmU5n63UbP19aEG7XQBA+Z2hvUruioiKsW7fuS6X777JPxvDw8HUOwoZ+eJAfOb0acw/KcjRPhU+OegUkgpgBiZ1abjE9CKt128Wgp10R7LSqOz95ZIg/+VDct99+C4fD4faqSX/msiAsCEJzTQ1ts4uXpNVNJCxI88Gsk6troiVDCA/kIOwKOw5WkNoFmryRrdL7wtTfPsKil1tNHpRO/mxZsGBBPoD9So/BpWuEdXV1eZR2HITVTSTeWOBAfGJ1ze2kw0DhPBN2iZLqRnLloBFZ6lySpv/qqTsKU5eiCwoKsHHjxi+U7j/g4iBst9tXUdpl876wqpGWowEIHIRPyGqzo9XsfEKEsECTapc/tW5TXimp3eicZKW73mMkRYWQJ2zffvstAHyn9BgAFwfhPn36kA5nZSVF8oeLilGDMP83PTlKfl69Todgf07Y4Qob95WR2mUnRyOaWLfXlQTigjTxV90tzhueQW67YMGCfQAOKT0GwMVB2NfXd0dXV5fTi5d+Pkakx4Ur966wUzIQTzprIfOOUuqISfIj+IS0S2zNP0z6eRUEYBKxpq0r2YnRVK3lZQUBOHdYH1Lb3NxcbN269TOlx3CMS4OwIAjWioqKGkrbgcQ8oMz1DAbnf2wcDhEOtZ/yUFAt9XAWB2GXaDVbsK+Y9NGFScRCAq7U0Um7auTn46V0109oYK84cnKU77//XgTwg9JjOMbllzcbGxt3UtpRM6Aw1zMSvh1bCSXiehLyTJgPZ7nMutwSUrt+aTGqW6Fot9CuGpmIST5c7dzhtFmwKIr46aefdgEoUXoMx7g8CHt7e5NSgg3oxTNhtaIsUVHqtPYkdS20IBxo8lG66x5rxQ7alqFOEMhl9VzFTJ0Je6svCBu99Jg8iJYreuPGjdi7d+9HSo/heC4PwllZWaQSUWGBJiREBLv9DWGnx0FYfi3ttBy9vt7qXC70BKU1jSisrCe1nTqMdnXGVWx2B2k1yqTC5ehx/VLJ1fbmzJljh0pORR/j8iAsCEJ1dXU16dId7wurkxchETwvR5+ambpcyEHYpaiz4X6pMUiMCla6+/+DMhsO8vORcMfYNainoq1WK+bPn78cQJ3SYzieWxL6VldX76G04yVp9REEWgq8LjsH4VMxW2jLhTwTdq2VO+m3WM4bRr9C4wpNbc7fRfcy6BHkp55rcKGBJozKTiK1XbRoEaqqqj5Wegx/5q6s+ospjTgIq4+XXk/6ZtzVxUH4VDo6eSasRocq6lFS3UhqO21kpqqyxFHuogPqugY3Y2QmqSQjAMydO9cMYixyJbcE4QEDBpCOgydGBiMs0OTed4SdkoF4b7DLzneET4W8HK3CPTtPQ12SjgkNwMB09dzyoJ7AV8s1OEEAZo7KIrVtaGjAkiVLvgbQofQ4/swtQVgQhIKmpibSyRM1/RAz2vUkgA9mnU4HeU9YfadXPc2izfQc/zNGZird/T9Q76Kr5Rpc/7RYJEWFkNp+//33aG9v/0zpMZyI24q8Hj58+ACl3YA0XpJWE2pxcEuXTemuqxofzFKvspom7CWWN5wyJB2BxJO8ctP6TJg6CwaAb775phrAeqXHcCJuC8KdnZ2/UdrxCWl1oX6gtJhpV3B6CvLBLF6OdotFm2izYW8vA6aNUMdsWMtB2OTthcmDaHevCwoKsGbNmveh0pJQbgvC2dnZ31DapceFw9+Xl9zUgno/r5WD8ClZu+yktJ4+Rg7C7rB8awH5mt2scX1Vcc1Hy0H47KG9ydm7PvroI9HhcKiibOGJuC0Im0ymne3t7U6vSep0AvqmxLj3XWEnFehHy9DU0u789Qh2eiLn43aLFrMF6/YWk9omR4eo4myLllOjUpeibTYbfvjhh7UAipQew8m4LQgLgmAvKysrobTlJWn1oC5Ht3bwTPh0KPWW7SKfOneXBRvoB7QuHtdX6e7jSFMbqZ3SV5RSY8PQL5U2EVu0aBGKi4vfU3QAp+G2IAwAra2tqynt+L6wevBytGsIAkhLllyZyn3W7ytBdQMp+R8mDkhTPJh1Wm1oJ2TNCgs0KXrf+eJxOeS2X3zxRTuA+Yp1/gy4NQgnJCSQcnbmpESTr8YweVELBvDBrFPTCbRfRYeaq657GIdDxPz1+0htvQx6XDy+n9JDIC1Jexn0CFUoX4OP0YBziZnHampqsGTJks+hwrvBx3NrEI6JiVnb1dXl9PqZ0aBHRlKkO7vKToI6E24x857wqeh1tJkGz4Td66e1ubARE89cMr4vfIwGRftf00hbko4ODVCkv+cOyyB/5nz++efo6OhQVcWkE3FrEBYEoaOsrKyK0nYgL0mrAnlPmFglqKeg7AcDgJ2DsFvVt5ixZg/tjE+gnw95VicX6nK6UkH4IglL0V9//XU+AFI9e3dyaxAGgMbGxo2UdoPT493dVXYCvBztGvSZMB/Mcrcf1uwlt71iUn9FrytpKQhnJ0chM5G2Arp27Vrs2rXrbbd3msDtQTgkJISUR3pAeiw5cTeTT4AfbSbcxqejT0lP/NnmibD7bT1wGGU1TaS2qbFhGJFJqwIkB+pydFSIv9v7OkvCifIPPvjACuArt3eawO1RLS0tbTnl27vJ2wvZyVHu7i77k/BA2glPPh19agG+tC83nVZauktGJ4rAN7/vJre/ZsogxfqulZlwgMkbZw/pTWpbV1eHn376aS4AWvkrN3N7EBYEobGiooJUVHloRoK7u8uOo9MJpKpWze2d5GxDPQUnQdGWhRvzyF8sh2UmIEuhg6ZaCcIzRmaSD7F9/PHHaG9v/69bOyyBIuu71dXVWynthvTmfWElhQf6QUfYu6RWb+lJAonL/LzXrgyzpQs/raNdVwKAa88erEi/qxtaQbnVFh3iviAsCMDF42jXuURRxJw5c3IBbHNbhyVSJAj7+/t/TWnXLy0G3l7KHvHvycKJ6etqm2n7UD1JEPHAWzPPhBXzze+7yNeVJg3qhcTIYLf32dJlQ1Ob89dmQwJ83Xa9amzfFCRGBZPaLl26FLm5ua+7paMyUSQIZ2Zm/uIgXHA0GvTon8Z5pJUSTrywX99sVrrrqseZyLTnSGMbft9VSGqrEwRcrdDecHUjbUk6yk2z4csnDiC3/fDDD80ASMWClKJIEBYEobm0tLSG0pb3hZVD3Rei5qztSYKoe8KcBEVRX6/YRW47fUQmIoPdf+pYzfvCKdGh5M/4w4cPY+HChZ8A0NT+l2J3fo4cOUIqsDy0D+8LKyU6NJDUjlq9pSehH8zimbCS9hRVYcfBClJbo5ce1091/94wNQi7o5rSZRPp96g/+ugjdHV1ve/yTspMsSAcHh4+h9IuMykSfsS6kkyauHBaEK6qp/3S9yQxxFkG7wkr7/Nl28ltLxiTg0g338GtJa5MubqucIDJG9NG0DKKWa1WfP7555sA5Lq0ky6gWBBOS0tbbrVand4X1ut0GNxb+dqcPVFMGC0IV9a3KN111YsNDyK141UG5W3YV4KDtFuXMBr0uP6cIW7tbx3xjAY1R8CZOn90Nny9vUhtv/vuO5SWlr7s0g66iGJBWBAEc2lp6WFK2+GZiUp1u0eLDaPN1qqIy189STx5lYG/4ChNFIEvJM2Gs906G6Z+cQsPcl0lJZ1OwKUSqky999571QB+dlkHXUjRPJANDQ2rKO1GZimX9q2n8vX2QrC/r9Ptmto6YCbUMO1J/H2NpD3hhtYOmC2cMUsNlm87SF7xMRr0uGGq+2bD9CDsupnwhP6piCV+Ed24cSPWr1//OgCbyzroQooG4ZiYmC8p7RKjghFLXBplNNTcsTwLPr044lJ0RV2z0l1nR9kdDny5fAe5/fmjs912BYgahF1ZU/gaCclL3n77bSsA1ZcsPBlFg3BiYuJqs9lMymc4IouXpN2J+gHBy6WnRz3wVlHLQVhNfl6/DzXEO7junA23mC2wdjn/sUu9Rnc6A3rFom9KNKltRUUF5s2b9yWAepd0zg0UDcKCIHQVFhYeorTlfWH3os6EqdchepLk6FBSOz7wpi5Wmx2fLaXvDZ8/OsttK3yUU/UBvt7QuaAOo5QUnu+88w46OzvflL1TbqR4bcD29vaFlHbDMhJIeYwZDTUIU0un9SQZxJqp5TwTVp356/eRt2C8DHq35ZSmJHnR6QT4+cp7PTQpKgRj+iaT2losFnz55ZdrAexxwVvkNooH4fT09I8p7QJM3shO4tKG7hLk5/yhLIBnwmciIyGC1O7wkSalu87+pMtmx+fL6LUDzh+d5ZbMVNTCH4HEHOcnc82UQeTZ9VdffYXDhw+/Ivub42aKB+Hw8PD9NTU1pJMCvC/sPv7Eb8CNhGTxPUmgyZt0/9ohisgvp91NZa41f90+8laBl0GPW6YPd3kfqSUwA4k5zk8kNNCE84bTknOIooi33nqrHABpJVVNFA/CAFBWVkbaSBnBV5XchhqE2zr4etKpZCRFktL0HT7SxFe/VMpmd0jKojV9RCZSY8Nc2kdqpjVqoZETuWLSABi99KS2ixcvxq5du54HoPlC5aoIwkaj8StKu5yUKHJwYM7x86X98rVzED6lPvG0pej8w7VKd52dwi8b8shbMTqdgL+fP9Kl/esg3i/3MtCC5p+ZvL0wa1xfcvvXX3+9FcDnrnhv3E0VQbh///7f2e3Of6HR63QYlsFL0u5gJP7ydVg5mcSpUEtzHijjIKxmXTY7Pl1K3xse3z/VpWVbu2y0CaRcQfji8X3JS9vbtm3Db7/99ho0Vi3pZFQRhAVBaCopKammtKWerGPOoZ5DJ5SN7jF0OgGDetOqgh0oO6J099lp/Lx+Hyrr6NfI7rpwtMv6ZqUGYb30kGH00uOKSQPJ7V955ZUuAO+66r1xN1UEYQCoqalZRWk3OieZXPqKMSVlJESQZwO8HK1+NrsDn0k4KT2gV6zLJhk2u4PUTo6Z8AWjs8llEYuLi/HTTz99CoA0aVMj1QTh+Ph4UtqxsEATMhJo9yyZE/iLjuyG9KEVLy+pbuQShhqxYON+SelF77xgtEsSZCi1HG3Q6ySlqHzttddEi8WiyWpJJ6OaIJyYmLiqpaWFtIE4mpekXc5mo31z9jEalO66ag3NoC1Fb8svV7rr7Ax12ex495dN5Pa94sJwLvEazyn7RZwJGyQuR583PINcO7uhoQFz5sxZCOCg7G+IglQThAVBsB88eHAfpe3onGSlu+/x2i20U85+Pnx6/US8vQwY2ItWF3trPqkCKFPI8q0FKJCwfXDrjOHkg5EnQ93bpc6gge4zEFJqJ7/zzjtobGx8XtY3QgVUE4QBwGq1fktpl50URSqzx84c9aoRB+ETG5mdRFolEEVge0GF0t1nTnCIIt6ev4HcPjYsEBdLqLV7ItRlZSlBePKgdCRGBZPatre34913390EYKOsb4QKqCoIjxw58iPKVSWdTsCobE7c4UrtxMQQ/OXoxCYOSCW1O1heiybOQqY5G/aVYssB+grGzdOGyVrFiDqzpp6qFgTg2rMHkfv7/vvvo7KycrZsb4CKqCoIC4JQR72qxEvSrkU9CBQZ4rpC4Fql1+kwtm8Kqe1W3g/WrP/O3wCReGMv0OQta6lDaqYq6kx4XL9UcqESi8WCt956azeAZbK9ASqiqiAMANXV1b9R2o3MSoRep7rheIwjTbRqSJHBtOpLnmxw7zgEEmc1G/aVKt19RrSvpAa/7yJVbgUAXDaxPxIigmXpi0FPDcLOH+gSBOBWCfmwP/30U5SUlDwpy8BVSHVRKz4+nnQJO9DPB31TaYWh2ekdIZYkpBQn8HSTB6eT2rWYLdhewDNhLfvv/I2wO+h3dG8/f4Qs/aAubVtsNqfbTByQht7ESmE2mw2vvfbaIQA/yzJwFVJdEE5KStpYX19PWvsc14+2z8ZO70gTLUNcSnSI0l1XFaOXHlOIQXjd3mJykgWmDqU1jfh5fR65/ZTBvWVJZxkWaCK1a2p17jyCIAA3T6PPgufOnYuCgoLZADz2B191QVgQBLGoqGgnpe3EgRyEXaWSmHAgJSbUJckGtGpC/zRyJZpVuwqV7j6TwQcLN6PT6vyMEugOavdePFZylsCwIFoQrmsxO/XvTxncG73jw0mv5XA48Nprr5UDIN2a0QrVBWEA0Ov1pOoYCRHBSIkOVbr7HqnFbEFds/OzYW8vA+IjgpTuvmpMG0FLvNBptfF+sIeoa27H3BWkeQYAoG9KNCYO6CWpD2GBzh+Y7LLZ0Wo+80VKnSDgxnOHkvs4b9487Nq160kAtG8sGqHKIDxo0KCvu7q6SOcIxxOvfrDTK6pqILXLSeG9egAID/LDiCxa1a+NeaXk2RNTn8+XbUeDk0u7x7vrolHku75Ggx4BhNKk9S1mp053TxmSjl5xtLrIoijipZdeqgHwBflN0ghVBmFBEFoKCgpIX/sn9Ocg7Col1RyEpTh/dBb5BP+SzQeU7j6TUXunFR8spKezTIgIxqxxOaS2USEBpOXsBieWonU6AX+TsBc8b948bN269RkAHl+QXJVBGADq6+t/pLTLSo5CeBDfTXUFag1bV9ZF1QqdTsCFY2gfms3tnVi3t0TpITCZ/bR2H4qJX2wB4ObzhsHf1/mMdKmxtC07Z/aDpw7tg2TioUyHw4HnnnuuGsCH5DdHQ1QbhHNyct4QCTfbdYKAcf1oiRDYqeUW06qHpceHIzSgZ2fOGts3BdHExPXLthaQMxUx9bI7HHhr3npy+2B/X1Iu5rRY2hJxee2ZHc406HW4RcK94B9++AE7dux4EoCF/BANUW0QDgsLO1xUVFRHaTuhf5rS3fdIxdUNaDE7/3uhEwQMy6TthXqKi8f3JbdduGm/0t1nLrJmTzG27Kens7zyrIFOf7mjBuGiqvoz+vdmjetLPozpcDjw4osvVgH4hPymaIxqgzAAVFZWLqW0G5IRDxMXDpCdKAJ5JTWktj05t3diZDCGE7+EFFU1kN9zpg2vz1sHBzGfpdFLj9tnOpfAg7ocXVR5+qVzk7cXbpJwIvqbb77Bjh07nkAP2As+RtVBOCkp6XVKO6NBj5HEU6js1KgZm8b2TZG9HJtWXHnWQPJd6fnrcpXuPnOxgsO1WLoln9z+3OEZyDzDvMxGgx5JUc7v1Yrimc2Er5o8EKHERCB2ux0vvPBCBXrAiejjqT0Ib6+urialapo0UNo9OnZi1LuqASZv8mxQywL9fMh3gy1dNizcxKeie4J3ft4Iaxdt318nCLjtDGfD/dJiSF+GjzS1ou005UyD/X1x9RR6paS5c+di7969j6EHzYIBlQdhACgqKlpHaTe2Xwq8vZyv18pOraC8FvVOZs05ZsoQWrpGLZs1Nge+3l6ktsu2FqCFWL2KaUt1Qyu+XrmL3H50TjKykqNO++8N7ZNAen7hGSxF33juUHL9cLvdjpdeeqkMwBzym6BRqg/C/v7+/6W0M3l7YWQP3od0FVEENuXRZsNnDepFTtmoRV4GPS6d0J/c/oc1e5UeAnOjT5dulVQr+ubzhp323xnaJ5707ILDp76eGB0aIOnw4WeffYbc3NxH4eHZsU5E9UG4X79+i5ubm7sobc8axEvSrrBiBy2HsbeXAecNpy3NatGUwemICKbdWc8rqeEDWT1MW4cVHy3eQm4/rl8KspJOvjds8jGe0Wz5RLad5izIbTNGkM98dHZ24rnnnssH8DV58Bqm+iAsCII9Pz9/F6XtuH4p5OLV7OQ25ZWedn/oZGaNzZGcfF4rrp48kNx2roSlSaZdP67JxeHaJnL7U+VqHpweB4Pe+Y98q82OXYcqT/rPe8WFSfpy/fbbb6OoqOgfAHrkZXjVB+GjSEvSfj5GjMjkJWm5WW12rNlTRGqbGhuGUdnJSg/B5YZlJJBrqB5pasNv2w8qPQSmgC6bHW//tIHcfnz/tJMWsZk4kJY/Ibeo+pR5y++dNRY6He2bdXNzM1555ZXtABbQ3zVt00QQHjZs2Netra2kb0mTB/OStCss3Uq/UnHt2fQTlFpxxVkDyG2/Wbmb6wb3YCt3HsJeYnY6QQAun/TXcwgGvY6cV39L/smTiYzKSSIXJQGAl156CdXV1Q8CoF2U9gCaCMKCIFj379+/i9J2XL/UHns/1ZU25ZWhuqGV1HZw73j08+B80omRwRidk0xqa7Z08d3gHk4Ugfd+oRd3mDYiE4F+Pv/z90ZkJf7l752prQdOHIT1Oh3unTWW3M/q6mr897//XQJgleQ3TcM0EYQBwG63v0tp5+9r7JH3U13N4RDxy4Y8cvu7Lhyt9BBc5vJJ/cnJOX5Zn0dKDco8y+b9ZdhTWEVq62M04PKJ/zsbPn90NulZ5k4r9p3kgOCFY7ORGkOv3/7000+Lzc3N/5LpLdMszQThkSNHzmlra+MlaRWZv34fHA7aKtLAXrEYmeV5+/X+vkZMH5FJausQRXz7+26lh8BU4oNFm8ltrzxr4B/XAUMDTRjbl1bUZl1uyQm3Rkw+RtwioVRhcXExPv3007kAdsn6pmmQZoKwIAiW/fv376G05SVp1zjS2IYVOw+R29978RhyfV21mjEyi5y3fM3uIkknY5ln2ZRXdtJZ6On4+xr/mA1fNDaHdCoawEkPCN507lByekoAeOyxx2wdHR1PyPyWaZKmPgGtVuv7lHYBJm/yHh07tS+Xbye3TYsNw6UT+ik9BFldOJZWMxgAvvptp9LdZyoj5WfimimDEBsWiEvG037HzJYurM/9a2Ke2PBAXDFpALlfO3fuxLfffvsuANoVCw+jqSA8evToz81mM2lJ+tzhfZTuvkfKKz2Crfm0og4AcOuMEQgPoiW0UJsBvWLJe2T7y45g5ynuYrKeacWOQ6hppB2ANPkY8fSN5yCMOGP9fechWLr+ejXpzgtGScq/cP/997fZ7fanXPOOaY+mgrAgCJ379u0jHR0dk5MCf18ub+gKny7dSm7r72vEo1dPUnoIsrhIwiz46xW7lO4+UyG7w4FvfyftwgEA+ku4hTB/3b6//L1B6XGYMrg3+Zk//vgjVq1aNRsAqVa8J9JUEAYAu93+HqWd0UvPlZVcZMv+w5Jmw2P7pmD6SNphJrUIMHmT06TWt5jxKyfnYCcxb+1et5+YL6tpwq7C/12Z0et0eOjy8eSMd1arFY8++uhhAG+7dTAqp7kgPGLEiM+oiTumDuMlaVf57/wNINYlBwA8eOl4JEQEKz0MsimD08lVu35YvQddth6ZsY+dgbYOK+aucO95gZ/W5f7l93nWuL5IjwsnP/Ott95Cfn7+/QD4Dt5xNBeEBUHozM3N3UFpO6RPPCKD/ZUegkfKLa7G6t20wg5A97L083+bqtlc39RrSXaHAz+dYNmPseN9vWKX22bD5k4r5q//35/JID8f3DqDfiWpoaEB//nPf7YC+NEtg9AQzQXho/5DGqwg9Miatu7y+o/ryIXJASAjMRIPXjpe6WE4LTEyGH1TaXtva/cUo665XekhMJVr77RKuongjPnr96H1TwH/rgtHI4iYcQsAZs+eLdbU1NyJHpye8mQ0GYRHjhz5Y21tLelrIS9Ju055bTO+/JW0SPGHi8bm4LKJ9Bq8Spg2IpO8TzaPU1SyM/TVbztRdqTJpa9hdzjwzcr/TRiTmRiJmaOzyM/Mz8/Hhx9++DUAep1GD6bJICwIgiMvL28NpW1mYiSSo0OUHoLH+nTpVlQRc0of88Al4zAqRxvZtHSCgPNG0Mq41TS2YlNemdJDYBphtdnx1rz1Ln2NhRv3o7K+5Y//rxMEPHzFBHIaVgB4+OGHrZ2dnT0+PeXJaDIIA4C3t/dz1LbnDus5heXdrdNqw9Nf/ibpkJZOJ+ClW6ZhYK9YpYdzWoN6xyEmNIDUdtGmA+S0n6xn+n1XIbbsPyz9QSdgszvw8ZL/vW44fWQmclKiyc9csmQJfv7555cAlJIf4uE0G4RHjhy5qqysjDTlmj4yQ9I3O3ZqW/Yfxi8bpB028jEa8ModMySdxnSHacQDWUB3EGbMWS9/txp2h/ylLhdszENl3f/PggP9fHCnhEIrVqsVDz74YCWA55V4n7RCs0EYAA4dOrSI0i4qJADDMhOU7r5He/X7teRSh8cEmrzx/gOzkJ0cpfRwTsjX2wtnEQul7y2uRmlNo9JDYBpUVNWA71bRE3iciNnShQ8W/G/BiHsuGo3QAF/yM1999VXk5eXdA8CsxPukFZoOwpGRkU+JxHXPmaPoBw3Y6bV3WvHEZ8slL7cGmrzx9t0XoK+EJTFXmTggjVysYdGm/Up3n2nYhws3y3qq/ovl21F73PMG9orFzFG08ocAUFFRgRdffHE1gB+UfJ+0QNNBuG/fvvsPHjx4hNJ2Qv80cpFrdmZ2FFTgvQX04uTHBJi88c69F2J8/1Slh/Q/phEPZFltdizfxhmyGF2L2YKnv1wh6ezFMTWNbfhy+f/favAy6PHPqyaRT/wDwD/+8Q97U1PTXUq/T1qg6SAMACUlJd9Q2hm99Jg6lK8rudpnS7dhwz7pZzJ8vb3wn1un4cqzBio9JABAWKAJQ/vQtjTW7ilGS3un0kNgGrc+twTz10u/4lZZ3/I/hRqumTKIXIgEAFavXo1vvvnmTQB7lX6PtEDzQTgjI2N2R0cH6fvgzFHazlesBQ5RxOOfLEN5bbPkZ+l0Au6/ZCyeuuFs+BhpKSLlMnlwOnQ62lSBl6KZXF79fq3kGtQDe8X+8eU2NiwQN0wdQn6W3W7HAw88UO9wOJ5U+r3RCs0H4aSkpMbdu3eTjuJmJEaid0KE0kPweM3tnbjvvwv+koWH6rzhGfjs4cuQEk3/ti7VOUNolWQaWjtkWRlgDAA6LF146vPf4JC4Ln3PrNEY2ice/7pqEny9vcjPeeedd7B9+/YHAEj/1t1DaDNR759cdtllrWlpaRdR2nbZHPyh6AZNbR3IP1yLc4b2luV6WGigCeePzkKn1YZ9JTVuzYUXExqAey8eS9oz+2ndPqzPLXFjb5mnq25oha+3F/qn0e/V6wQBkwenS0pkVFNTg8suu2yr2WzmvWAnaH4mDABTpkyZW1VVRdpkO3d4HxgNHvFdRPU25ZXJdpgEALy9DLj/krF47/6LkBob5rZxTBmSTj60sngz3w1m8nvn543YXVgl6RlSt3geeOABe11d3S3g/NBO8YggLAiCIzc3dwmlbZCfDyYMoN31ZM5buHE/Xv2elHH0pAalx2Huo1fg7ovGkK8MOWNCf9rPS2lNIw6UkQ7zM3ZKNrsD//xwCRpaOxR5/V9//RVfffXV6wB2Kf1eaI1HBGEACAgIeNRBzCJzyYR+Sne/R/l65S5Zri4dz6DX4dqzB+Hnp6/DlWcNdFlJxNAAX3IaP76WxFzpSFMbHvt4qdtToXZ0dODuu++uBDBb6fdAizwmCI8cOXJ/bm5uBaXtwF6x6BXnvuVMBny0aAvenr9B9ueGBPji/kvGYv7T1+GaKYPgJ/PMeHROMvlU9PKtBbKPl7HjbTlwGO8vlPcL7uk8++yzOHDgwO0A2pQevxZ51GboBRdc4N+rV6+JtNYC1vGBGbfadagSLeZOjMxKlpQY4ET8fIwYkZWIS8b3Q2igCUea2tAow1Ld36YPJ53KLiivw8eLuZIbc71dhyrRKy4MKRLu+p6p/Px83HDDDT93dXXxlSQijwrCX3755ZbW1tZHvL29nZ7hJ0eH4LtVe9BloxelZ87LLa5BZX0LxuQkQ6+Tf2HG6KVH39RoXDK+H0ZlJ8HkY0RdczvaOqxOP8vLoMe/rpoEL8JBvh/X7MX2AtJCDWNO25hXiokD0xDsT8/9fDqiKOLSSy81Hzx48DwALZIf2EN5zHI0AAiC0LFz507SWozJx0hOQ8ikWbRpP5784jdQ84CfqZyUaNx/yVgseO4GfPXoFbhn1hiMzkk+4yXrzKRImIh3KFfvLnLp2Bg7XluHFQ+8uxDtnc5/2TxTn376KX7//fd/AShXerxapmzaIRcwm82PAFhLaXvxuL6yVydhpxce5IfbZoyA4Mbykn0SItAnIQLXTBkEhyiivLYZ+YdrUVRZj4q6FlTWt6CuuR2tZgtaOyxwOEQMTo8jvVZNYysKymvdNjbGAKCkuhH//uxX/OfWabJv99TW1uJf//rXbgBvKz1OrfPIorp79+6tzsnJIdW/u/XVedhewF/s3CXA5I0PHpil+rrBUny/eg9e/HqV0t1gPdS9s8bg6imDZH3mVVddZZ87d+5wANuVHp/WedRy9DFFRUXkb2eXjO+rdPd7DB+jAa//faZHB2AA2MgZ2ZiC3p6/AXuKpCXyON7PP/+MuXPnvgIOwLLwyCA8c+bMF+vq6roobScMSENksL/SQ/B4Br0OL/ztPPRPi1G6Ky7lcIjYeagSABAR5Ie48KA//gSavJXuHusBRBGYt1Z6tSUAaGxsxN13310I4N9Kj8tTeNyeMAAIgtC1bNmypWefffYMp98QvQ6XTeyPt35ar/QwPJZOEPDv66ZgTN9kpbvico1tHXju5qnITIw84UnV6oZWFJTXIbe4Gqt2F6Gosl7pLjMPMbBXLGaOzsa4fikIkql2+gMPPCCWlZVdB4BrccrEI4MwAOj1+gdtNtsMg8H5IV40NgcfL9kKswtPFvZk918yDucO6xm1nMMCTRiZlXTSfx4dGoDo0ACM65eCO84fidKaRizadAC/bMhDXXO70t1nGmM06HHBmBxcMqGv7FXG7HY70tPTfxdFcYM7D1HKTRRFAUAygAwA2QAy7HZ7lt1ujxJF0Vev1/vrdDpfm83WZrPZinx8fPJ0Ol0BgBUANgqCIOs1Du2+k2dg8+bNB4cNG9aL0vbV79di7oqdSg/B49w8bRhumzFC6W6ons3uwOLNB/DJkq2y1GJmnk2v02H6yEz8bdowRIcGuPS16urqDoaHhz8IYIHcAUluoij6A+gLoB+AAXa7fQCAfnq93kR5XltbWzWA2f7+/h/INXaPDsK//PLL9TNmzPiU0ra6oRXnP/Y57MR81OyvLhnfDw9fMUGWZ61YsQIjRoyAn5+f0sNyKbvDgZ/X5+HNeetICUaY50uNCcWzN091+wHH9vb2WoPB8KW3t/dXAHYqGZBFUfQBkAKgN7qDbn+73T5Yp9MlCy6Yth85cqQgMjLyLEEQJF+l8eggLIqiUFZW1pqYmEj6pH7sk2VYuiVf6WF4hLOH9MYzN50jSy3hZ555Bo8//vi/srKyQu+44467rr/+em9PD8Y1ja145suV2JjHJ63Z/7tobA7uv2Sc5DKEUlmt1raurq5Nfn5+KwDsAFAIoFQQBJsczxdF0RtAOIB4AGkAUgGkiaKYZrfb0w0GQxTcHM+qq6vbLBZLv+Tk5GIpz/HoIAwAP//88/szZ868hdL2QNkRXP3cN0oPQfOGZSTgjTtnktI9/tm7776LO+644zkAjx79W8FpaWn/uuaaa+66/fbbfSIjI5UersuIIvDhos34cNFm2WoyM23S6QTMvm4Kzhuu3ix/oijaOzs7qwVBKPH29q4VBKEZQOvRP8f2WLwBHL807AsgBEBYV1dXtCiKUXq9PlSv17su/6YEFRUVbcuWLYu96aabWqnP8PggvG7duoCsrKzGkJAQUgS44/WfsOXAYaWHoVm9EyLw4QOzZKlm9O233+Kqq676yG63n6hweHBoaOjNF1988b2XXXZZ3MSJE92agcudFm7cj6e/XMFbJT2UThAw+3p1B+Ce5JtvvllyxRVXnEdt71EFHE7kk08+sY4bN25Eenp6OqV9iL8JS3hJmiQmNADv33+RLEnkly1bhiuuuOInq9V6HYATRZ/Ojo6ODdu3b3/1iy++WLlgwYKQ6urqXiEhIbroaFr9X7XqnRCBlOgQrNxVyDPiHkYQgMevmYzpIzOV7go7KikpqVdra+u3W7ZsqaO098hkHSdwe2dnJ+njamR2EnrHe3ZGJ1cI8vPBW3dfgPAg6Xu1mzZtwmWXXba6o6PjCgBnUuZq7Y4dOy6cPXt2xIABA64aNGjQ4kceecTy66+/wmw2K/3WyGLy4HQ8cgWxaifTrDsvGI2Zo7KU7gY7TkBAgBAUFPQctb1nrtedwIoVK7ZPmjSJlED1912FeOi9RUoPQTO8vQx4594LZcmGtW/fPkyaNGn3kSNHxqJ7L4ncLQATTCbTBWPGjDlr6NChaQMGDNANHDgQqampml26/s+3q/Ht77uV7gZzg1E5SXjj7+fLXoyBSTdnzpyaa665hrTk5rHJOv6svr7+TofDsUFHqFk7oX8aeidEoOAwV8I5HZ1OwHM3T5UlAJeUlGDatGlFR44cORvSAjAAWAAsM5vNy5YvX47ly5f7ARgMYHhkZOTorKysrLi4uLj4+HhTYmIiIiMjERwcjJCQEISEhCA1NVXpt/aE7rt4LPIP12LX0dSYzDP5+RjxxDWTOQCrVFhYWCSAABA+p3rUf9JNmzYVDx8+PJnSdvXuIjzw7kKlh6B6/7xyImaNk14E48iRI5gwYULN/v37RwAoceMQQtGdTScFQBgA39TU1JDCwkLV5sqtrG/B5U99BbOFlC6dacD9l4zDlWcNcNnzD1XUIzk6BAZ9T9mhlNfy5ctxzjnnJAEoc7Ztj5kJA0Bpaem/hg8fPpfSdly/VGQkRuJA2RGlh6FaN503VJYA3NLSgunTp7fs379/MtwbgAGg4eifHQAgiqKX3W5f7uY+OCU2LBC3nz8Sr3y3RumuMBeICQ3ApRP6yfpMS5cN2/LLsWZPMdbtLUFNYysGpcfh39dNRlx4kNJD1pzm5maAeNC5R82EAWDfvn0NWVlZIZS2a/YU4/53Fig9BFWaOSoLj8uwXNbZ2Ylp06ZZVq5cORHARqXHJYrixwBulONZ1i47dhysQFuHBXERQegTHwGdTp5fQYco4qpnvsbBCtIBTaZicq0uddnsWLW7CL9uK8DGvDJ0nGDlxMdowB3nj8TlEwfI9rPZE9xzzz3WN998MwCA02ntetRMGAD27t37UlZW1vOUtmP7piArKRJ5pTwbPt6onCQ8evUkyQHYbrfjqquusq9cuXIW1BGAH4AMAdghivhm5W58unQrGls7/vj7oQG+mDqsDy4a2xfJ0aTvhX/QCQL+fsEo3PvfX5R+25iMAk3ekq8jWbvs+H71Hny+fDsaWk59O6DTasOr36/Fwo37cdN5wzBxYJosWe483YYNG7aAEICBHjgTFkVROHDgQEtGRgapaPDavcW47788Gz4mKzkK7913EUzeXpKfdccdd+Ddd9+9GcDHSo9LFMVJoiguFwRB0l36DksXHvlwCdbnlpz039EJAqYO64MHLh0nueTcTf/5HrsL5SvgzpR16YR++MflE8jtiyrr8chHS8klMlOiQ3HDuUMweVA6jF6ek1aircOKgxV1cDgcGNw7XtKzKisrERcX9wiAFynte9xMWBAE8csvv3w+IyPjWUr7sX1TkJMSjdziaqWHoriEiGC8/veZsgTg5557Du++++5sqCMAJ9nt9u/1er2kTx2zpQv3vv0LdhysOOW/5xBFLN58ADsPVuCNO2ciNTaM/JpXnjWQg7AHkZIVK/9wLW5/bR5azBbyM4qrG/DEp8vx0jerMGFAGs4e0hvDMxOgJ9wyUYJDFFFR14yCw3U4WFGHg+Xdf62sa8GAXrF49Q6nS87/xSeffAIAv1Hb97iZMPDHbLg5IyODVPNrd2EVbn75+x6drSg0wBcf/+MSJEQES37WZ599hptuuulDh8NByvEtJ1EUfWw220aDwTBAynMsXTb8/Y35Tl8dCg004aMHLkZiVDDpde0OB2Y++jlqGqXe6GJKCws0YcmLN5GWgxtbO3DFM3NdUpM6JMAXQ3rHY0CvWAzoFYv0uHDF94/bO62oqG1GeV0zymtbUF7bhEMV9ThUUXfCWwPTR2biX1dOkjy7r62tRUZGxpqGhobx1Gf0uJkw0D0b/uKLL57LyMgg7Q33T4vBWYPS8dv2g0oPRRG+3l54/e8zZQnAS5cuxW233bbI4XDcofS4jnpPagAWReDfn/1Kurvb0GLG/e8uwOePXEbKt63X6TBtRAY+WbLVbW8Yc43ROcnk/dj//rzBJQEY6A7wv24/iF+Pfv75+RiRkxKNpKhgxEcEHf0TjPjwIFmWsNs7rWhoNaOprRNNbR1obO1ARV0zKupaUF7bjIq65v85a3EqBr0O918yTrbT5k8//bTY0NDwgJRn9MiZ8DF5eXnNmZmZgZS2lXUtuHj2l7DaziSLoufQ63R47Y4ZGJWTJPlZ27Ztw+TJk7c1NzePB6B4PklRFO8H8IrU5/x3/gZ8unSbpGdcOCYHj149idQ2r/QIrn2eq39p3ePXnIXzR2c73a6yvgUXPv6F4gU+BAEI8PWGv8kbft5G+Pka4efT/cff14hOq+1/Pj87LF3osttht4toautAc3t30LXZ5RlHbFggnr7xHFkSCQHdn1/jxo37rqOj4zIpz+mRM+FjtmzZ8nRmZuZ/KG1jwwNx+aQB+GL5dqWH4VYPXzFBlgBcWFiI888/v7C5uflcqCMAnyeK4n+kpq9csHG/5AAMAPPX52Lm6Cz0TXE+E15mYiSiQgJ4SVrjcgj/7QFgwYY8xQMw0L0i1GK2SNqTlsu0EZn4x+XjZanmBgCNjY244oorqjs6Ou6S+ixt7K67yPXXX/9ybm5uM7X9jecORWiAKstcusS1Zw/GRWNzJD+ntrYW06ZNa6isrDwXgOIXW0VRzLbb7d8JgiDp92F7QTme+2qlTH0C3v2ZdktLEIDBvePkf6OY23h7GZASHUpq+/uuQqW7rxohAb544W/n4snrp8gWgEVRxPXXX28/dOjQpQAk31ft0UEYALZv3/4kta2/rxG3zhih9BDcYvLgdNx54SjJz2lvb8eMGTPM+fn5ZwNQfFNdFMUEu92+RK/XSyr3VFrTiIfeX4wuGbcnthw4TE6+MbiPtGsXTFnxEUGkw071LWYcqqBdR/IkggDMGJmJH2Zfg8mDSVVsT+rhhx/GL7/88jCAtXI8r8cH4euvv/617du3N1DbXzAmG2kSrpRoQb+0GDx1/dmSL+3bbDZcdtllts2bN18EQPF1fFEUk+12+2q9Xp8g5TntnVbc/85CtLR3yt7HxZsOkNqNyUmWvS/MfRIig0nt9pXUKN11xSVGBeO9+y7Cv6+bIvne/Z89++yz+M9//vM6ZDg7ckyPD8IAsH79+tsdxD0UvU6HR66c6LFZZeIjgvDKbdMln3IURRG33nqruGjRopsBLFN6XKIojrbb7Zv1en2KtOcAT3y6HKU1jS7p57q9JaR2oQG+il8bYXTRoaRcQiiuIs8nNC/Qzwf3XzIO3z5+leQEHCfy1ltv4bHHHvsYwP1yPpeDMIB77rnnu99++y2f2n5gr1hcNE76XqnaBPn54M07z0eIDPve//73v/HJJ588BuBzJcckiqK/KIoviKK4Rq/XR0p93seLt2D17iKX9bekpgHWLueXuAVBQK/YcJf1i7lWkB/td668lnzERbO8DHpcedZAzH/qWlx51gB4GeTP7PXCCy/g3nvvnQvgVgCyZojgIHzUnj17Lm1vbye/uXddOBpRIaTcH6pkNOjx8u3TyUkjjvf+++/j6aeffhfAc0qNRxRFP1EU73E4HAcBPCz1EBbQPUv9YOFmF/cbaLeQUtIiLpx0+46pQLA/bRm1vkXxiwZuY9DrcP7obPw4+xrcf8lYBMq89AwADocD99xzD/75z3++6XA4rgEg+51UDsJHPfTQQ3sWL15MTj3m52PEP6+cqPQwZCEIwBPXTsbAXrGSn/Xzzz/jzjvv/BmA5KP8FKIo9hNF8XWHw1EO4HWdTke79/EnZTVNePzTZXC4IW2azab8dRPmXtSTvM3tZ5a0QssMeh0uGJONeU9ei8evOQuxLvqy2dnZiSuvvFJ88803/wngHgAu+UXs0feE/6ywsPCyqqqqIzExMaT3ZUzfZEwd1gdLt5BXtlXh1ukjMHVYH8nP2bhxI66++upNNpvtCrjgG+TJiKI4EMAFDodjFoBsANDJmOu2xWzBve/8glY33X+kHjdQw11RRmPQ035eLYStC60IDfDFzNHZmDWuL2JCXbvqWFpaiosvvti6bdu2mwDMceVrcRA+zj//+c/GyMjI92+88ca/U5/xwCXjsCmvDE1t2vxGeu6wPrjpvGGSn1NYWIgLL7ywsK2tbToAl74ZoiiGA5gMYIrdbj8XQAwgb+A9xmZ34JEPFqOspsmVQ/ofvsQCGZ1Wm9v6yORlINYOsdk9KwjrdAKG9I7H+aOzMWlgmkv2e/9sxYoVuOqqqw7X1NRcAGCHq1+Pg/CfHD58+O7c3NzrcnJySMcTQwJ88dBl4/Hox0uVHorT+qXF4PFrJkuuC1xfX48ZM2Y01tTUTAUg66VFURQFAH0AjAQwymazjRVFsbdwNNWVxMJHp/Wfb1djy4HDLn2N4wWYvGHypi1N1roodzBzvZ58sN2g12FIn3icNagXJvRPk+Vg6JlwOBx48cUX8cQTT6y02WyXwU2JhDgI/8ns2bMdAQEB92RmZn5M/UA/Z2hvrM8tweLNtDueSogNC8TLMlxFslgsuOiii6z79++fDuCQ1H6JougHYCiA0QBG2u320Xq9PvjYPzcY3PcjPHfFTvy4Zq/bXg8Azh7Sm/ylSM7EIcy9qDnpjV7a/EhPigrB8MwEDMtIwODe8Qgwebv19UtLS3HdddfZV69e/RSAZ+HG7TNt/hdzsQceeOCTxMTEey6++GJyqY1HrpiAvUXVOFzbpPRwTsvPx4jX/j5DcgpOURRxww03iGvWrLkGwAbiMyIBjAEw1uFwjBNFsb8gCH98M3D1TPdk5q3NxWs/yJIg54yZvL1w47lDyO3lSnzP3I+6lTB1aB8UVzWg4wTl+9TCaNCjT0IEslOikJ0cjcHpcYgMod2LlsOcOXNw9913FzY2Nl4JYIu7X5+D8En8/vvv5wwdOvRwUlIS6T0y+Rjx7M1TcfN/vld1pSWdTsBzN0+VJevX448/jq+//vqfAL470zaiKPoCmArgPJvNNh7AHznmXLGnSzFvbS5emPu72+tHP3LlREnX3jgIa5eRuPd55VkDMHNUFpZvK8DSLfnILa5W9PMnMtgfKTGhSI0JRUpMKPokRKB3fLhb9nZPp6KiAnfffbc4b968D9GdgEOR/RsOwifxzjvvVCclJc1+6KGHnqFW1slKisRDl4/Hs3PkServCvddPBajZUhx+Mknn+DZZ5/9EMCLp/t3RVE0ATgLwCUOh+MinU7nB7h3aflMiCLw4aLNLr8LfCIXjsnBecMzJD2Dg7B2RQTTU5n7+xpx0dgcXDQ2B9YuO3KLq7GnqAqlNY0oPdKEspomWQ6O6nU6BPv7INjfFzFhAYgNC0R0aOAf/zsxMtjty8pnwuFw4N1338Vjjz12qKmp6RYAvyvZnx68/X9mFi5cWDht2rRUKc94Zs4KzF+3T+mh/MWscX1ludv822+/Yfr06cstFss0ACddRxNFsReA+xwOxw06nU7V5afaO614ds5KLN9W4PbXzkyMxEcPXQxvift74+99D+2dtEQfTFnznrxWlkQ5J9Nh6UKLuRPN7RY0t3eipb0Toij+pcavl0EPX6MBRi8DfLwM8DEaEOzvi5AAX1UG2NPZvXs3brvttq5Nmza9gO7kQfInfHeSuqYeKrR8+fKpQ4YMORAVFUVeG/3H5RNQXNWA3YVVSg/nD8MyE/DQZeMlPyc3NxeXXXbZPovFcglOEoBFURwB4B+iKF4gCIKglmXmk9lTVIXHPlmGyroWt792RJAfXrljuuQADPBMWMvCJcyEz4Svtxd8vb08KsvfqVRVVeGJJ57AZ599ttJms90FIE/pPh2j7k9DFXjzzTcPfv31129JeYbRoMcrt09HIrEyitySo0Pw4t/OIycEOKa6uhrnn39+TUNDw7kA/hKxRFEMEEXxHXQf0rpQoK7ru0lzeyde+Pp33PzyD4oEYB+jAa/cPh2RwfIcUuEgrE1+PkaYiHfD2f8ym814+umnkZGRkf/RRx/NsNlsZ0FFARjgIHxG7rvvvnt/++03SdPYYH9fvHHXTLfdeTuZ8CA/vHnX+ZKXkjo6OnDRRRd1FhUVTQPwl4uzoiie7XA49gG4HSrf9ui02jB3xS5c+MQX+GH1Xjgcbj6Bhe67kS/dMg1ZyVGyPE8UOWOWVknZD2bdrFYr3n//fWRmZtY/8cQTf29packBsFDpfp0IL0efoTlz5kzp3bv3nsTERPIXl4SIYLxz74W47dV5aHZB7dnTMfkY8cadMxEbJi3XqiiK+Nvf/iZu3LjxKpygLrAoivcBeEWn8lp6Le2d+G7VHny7ajcaW5XLcKYTBDx5/dkYlZMk2zO7PCxzUk+i5HUdrbNarfj222/x9NNPNx08ePBlAG/hBKt0asJB+Ax9/vnn+xISEp6YPXv2M1LuqqbHheOtuy/AHa/PQ1uH+w7NeHt1L3X2SYiQ/Kwnn3wSX3311b8AzPvzPxNF8WEAL7htYE5yiCK2HSjHzxv24fddhaQygXLS6QTMvm4KzhnaW9bn8lK0doUH8kzYWR0dHfj000/x0ksvNZSWlr4M4G0ArUr360yoeqaiRp999tnW6667jp5B4agDZUdw99u/oMENpcd8vb3w2h0zMKSP9ELXX3/9Na6++urPHQ7H9X/+Z6IozhBF8We17f06HCJ2FVZi1a5CrNxZiOoGdfxu6nU6PHn9FFmKZfxZi9mCSfe/r/QQGcF15wzGXReOVrobmpCfn4/33nsPc+bMKaqrq3sHwPsA2pTulzN4JuykDz/8cFJqamrl2LFjJa0ZZSRG4uOHLsZdb/7s0kLc/r5GvP73mRggQ1nCTZs24eabb17vcDhu/fM/E0UxwGazfWowGFQRgBtaO7Blfxk27y/DutwSRZebT8TkY8QLfzsXo7LlW4I+Hs+EtSsiiJejT8VsNmPBggX48MMP7StXrvxZFMX3AKyAi0oNuhoHYSetX7++9Y033pgYHx+/OSUlRdLBtoSIYHzxyGV49ONl2JhXKntfEyKC8cod05EaEyr5WaWlpZg1a1ap2Wy+AMCJavg9YjAYpKfdImpoMWNPURV2F1Zhy4HDKCivdXuGqzMVGeKP1+6YIcvWwMnYVJyljZ1aZAgvR/9ZR0cHVqxYge+//x6//PJLXlNT09cAPgFQqXTfpOIgTPDjjz9ui4uLu/+FF1543ddX2mnnQD8fvHHnTHy4aDM+WbJNthOt4/ql4snrp8hyob61tRXnn39+a2Vl5bk4QWURURT1Vqv1DqORVu3HWQ6HiJKaRhwoO4Jdhyqxq7AKxVX1qg26xxvYKxYv3HIewgJNLn0dnglrF+8Jd8vPz8eKFSuwfPlyccWKFZvb2trmAfgJMhSGURMOwkRvvvnmG6GhoWMef/zxi6Umn9DpBNw6YwTG9U/F01/8hoJyegUtf18jHrh0PGaMzJRlnHa7HVdeeaV99+7dFwPYf5J/bbzRaAyW5QVPwNxpxe6iKuwtqsbuwirsLa6GWWOZoHQ6AdefMwS3zhgOvRuSlXAQ1i5XJ+pQq5KSEqxbtw4rVqzAqlWrjpSUlKxEd0rJBQDUk+lIZhyEJZg9e/alwcHBO+65554BcjwvMzESc/51BRZu2o8PFm526gCRl0GPWeNycOPUoQiVcZb14IMPYuHChXcDWH6yf8fhcAyWMwtWU1sHtuWXY1dhJXYdqkJBea0id3flEhseiNnXTcGg9Di3vaanFXfvKQSh+y6/s+x2O+x2O9y1GiVVU6gloE0AABqeSURBVFMTtm7dis2bN2PLli3Yvn17VWVl5QoAawCsBuD+fLEK4SAsjXjvvfeOiIqKKrr88suln3xC94xp5qgsTBuRgdW7i7F48wFs3l92wtJkggCkxYbhnKF9MGNkJumX91Ree+01vP76668DeOdU/15LS0tmcHCwpNeqa27H77sKsXLHIWw/WKHpoHuMTifgikkDcNuMEfB1cwYkuxbW5tlfBPn5kiooFRYWYuDAgRg5ciTGjx+P8ePHY9iwYfDx8VF0PHV1dSgoKMC+ffuQl5eHvLw8saCgoLSkpGQrgJ3H/alRtKMK4iAsneXxxx8f4O/vXzh9+nTZErHqdTpMGpiGSQPTYLXZUVzVgNKaRrR1WOFl0CMq2B+94sMl1wA+mW+++QYPPfTQdwAeON2/29zcHEINwlabHc98uQJLt+Z7ROA9Zly/VPz9gpGylIik4BisTRHEL9Lp6emrzWbzhBUrVviuWLEiFkBaQEDAkEGDBo1JSEjoGx8fH5uenq5LT09HVFQUQkNDERYWBuptQrPZjLq6OtTW1qK2thZ1dXWorKxEaWkpSktLcfjw4caSkpKDLS0tBejewy08+tc8qDx5hrtxEJbBoUOHah966KF+Xl5eueecc47sGzrHimC78jTt8VauXIkbbrhhtd1uvxZncOy/q6uLvIltNOhx64zhMFu6sHp3oeaDx6DecbjzglHolxqjbEe0/kb2UNSUlYIgVBz9nx3oDniFra2ty1evXn3sX/EFkAMgA0ASgAidThcZFRWVEBYWFhkQEGACAIfDYfL19TV4e3sLAGA2m0Wr1Wppa2vrcDgcrY2NjR1tbW3NbW1trQAa0L1XW3P0TxWAWgDl0EiiDDXgICyTAwcOlDz88MODvLy8dk2aNEnVZfpOZe3atZg1a9bezs7O83Hiq0h/YbfbNwG4mfqaceFBePm2acgrPYJPl2zF6j1FmpoV63QCxvZNwWUT+mNYZoLS3QHQnRmMaY+Eqkanu6rTAWDr0T8AuuvqVlVVoarKY888aYIqEit4kuzs7Kznnntu68yZM117B8UFVq5ciQsvvHBXS0vLZAD1Z9pOFEWf9vb2Nj8/P3o+z+NUNbRiwYY8/L6zEAcr6CfFXS08yA/nj87CRWNzVFcSbn/ZEVzz3DdKd4M56faZI3HTeUMpTe8TBOF1pfvPnMdB2AV8fX0TXnvttZ233nqrYskrnLV06VJcfPHF29rb288G0Ohs+40bN24bMWLEYLn7dbi2Cb/vLMSWA4exr6QGreYzmpy7THxEEMb1S8W4fikYmB7r8utGGzduxMiRI51ul1d6BNc+z0FYa568fgqmjSBdL5wlCMI8SkOmLF6OdoGOjo7Dt912W++mpqadDz74YKKUgg/u8Mknn+DOO+9c39HRcR6IhyY6OjpeAvCt3H1LiAjGtWcPxrVnD4YoAqU1jcgtrsa+khrkFlejqKoBli6by96bxMhgZCdHISclGkP7xCPVjQetvvvuOzz00EO7SktLBzjdmJejNSk6lLyicpjakCmLZ8KuZbrssst+fvPNNydHRkYq3Ze/sNvtePTRR/Hiiy9+iu66v5KmmYsWLSo977zzEt05Bocooqq+BSXVjTh8pBk1ja2oaWxDTWMrWtotaOuwoLXDgk7rXwO10UsPf19vBPh6I8jPB9GhAYgND0RsWCDiw4PQJzECQX7uv+IhiiKeffZZzJ49e8HXX399+yWXXFLu7DP2ldTguhdk/07EXOyXZ65HbDip1GiUIAhHlO4/cx7PhF3L/O23306pq6t76qWXXnps0KBBqvnSU1tbi6uuusrx66+/PgjgNTmeOW/evLNycnIOJCYmum3qrxMExIUHIS48yKl2VpuddB/T1VpaWnDdddeJ8+fPfw7AE5dcckkI5Tkiz4Q1RycI1NPRHeg+lcw0yPX58xhWrFjxxFlnnTXxySefbLBYlN3TBIBFixZh0KBBVb/++uvZkCkAA8DHH3986L333nuktVX9txPUGIB37tyJESNGtM2fP38WgMfQfT2M9DvKIVh7woP84EX7uSwTBIH/k2sUB2E3aWpqWj179uzEGTNmfL1p0yZF+lBfX4+rrroK06dP/7y8vDwL3eW/ZPX888+/fNttt73d0NCgyBi1SBRFvPnmmxg9evTW/fv3D0R3knrJz2TaImE/uEzpvjM6DsLu1f7rr79eOXLkyHFXXXXVoYMHD7rnRdvb8eKLL6J3794lc+fOnQngegBNrnq9uXPn3nXPPfe8Wlmp+SpjLpefn4+JEyfa77nnnqc6OjpG4a8VYmgzYY7BmsNBuGfiIKyMtXPnzu09ZMiQq+66667aXbt2ueRFmpub8frrryM9Pb36kUceuaOhoaE3uiuSuNycOXMemDlz5h3Lly/nSgInYLVa8cwzz2DQoEG7Vq9ePQzAvwGc6Ji3as4RMNfiINwzcRBWjtjS0jL37bffjh04cOAl55577o4vvvgCdXXSklOIoog1a9bguuuuQ3x8/N777rvvrqqqqjQA7wLokvRwJ23fvv3dGTNm9H300UcrW1o4XSzQnaVozpw5yMrKann88ccfNJvNQwHsOEUTUhDm5WjtiQ71pzblIKxh/C1bXTKNRuPlY8eOvXjcuHGZQ4cOFTIyMpCUlISTlQo0m804ePAg1q1bh9WrV2P9+vWllZWViwF8iuNS1CnMu3///k/985//vP/SSy81UJPGa93ChQvx6KOPWvbs2fMGgBfRnXv3lERRjAVQcdqH/8mOgxW45ZUflR4yc8Krd0zHuH6plKZnCYKwUun+M5qe+WmoDREAxgPICAwM7JuWlpbj4+MTBAC+vr4BDQ0NloqKivLa2tpSAKUAtgNYBXVf2k+eNGnSB3fffffkmTNnCj0lGK9evRqPPfaYbd26dR8DeAqnz/P7B1EU49CdEN8pOwoqcMurHIS1ZO5jV6J3fDilabogCIcoDZnyesanIFObvuPHj3/lmmuumXzFFVcIJpPm0myfVltbG7766iu89957ll27ds0F8DwAp0/iiaIYD8IXq+0F5bj1Vc5iqCUrX70VgSZvZ5uJAHwFQVD+7iMj4T1hpoS9q1evPvvmm2/ulZGR8fa9995rXrFiBWw216WfdJd9+/bhzjvvREJCwqHbbrvt/l27dsUAuBGEAHwUcU9Y6XeCOcPkY6QEYACo5gCsbTwTZmrgA2ByYmLi5VOnTj1/+vTp/lOmTIGPj/tTRlLs3LkTv/zyCxYsWGDZvn37QgDvofsOtuRQKIpiIrq3G5yyNb8ct7/GM2GtSIsNw7dPXEVpukkQBOcrfDDV4LSVTA06ASwsKytb+MEHH+g/+OCDcSEhIZcMGzbsvL59+yaOGDFCGD58OOLj45XuJ4Duq18bNmzAokWLsGjRovqSkpL56L769SsAs8wvx6ejewC+ntRzcRBmamMH8HtjY+Pvy5Ytw7Jly4IADAcwLC0tbfzgwYOH9evXLzAjIwOZmZlIT0+Hl5eXyzrT2dmJvLw8bN68GZs3b8b27dub9u3bt1EUxc0AlgPYjO70kqrSUw69eQoOwj0XB2Gmds3oDnbLCwsLnyksLMR3332XAiAbQKaPj09Wr169+sbExCTFxMSEJiQk6GJjYxESEoKgoCAEBwcjODj4hEvbVqsVzc3NaGpqQnNzMxobG1FRUYHi4mKUlpZaysrKSktLSw+iez93G4AtoO/tUpGSneg4BmsKB+Gei4Mw06Lio38WdnZ2Ijc3F7m5uUD3z3MsgAQA4QCCAAQf/fPnI9g+6M5Q1YTuQH/sT+3RZ1cpPcijaEFYx2cutYSDcM/FQZh5Ehu6P5Q86YOJdGRcz8vRmiIhCDt9aI+pC39dZkzdSDNhvZ5/tbUkhmfCPRb/pjKmbsTlaJ4Ja4VOJyAi2I/StE0QBK4ZqnEchBlTN9pMmJejNSMy2B962h4+z4I9AAdhxtSND2Z5ON4P7tn4N5UxdePlaA/H+8E9GwdhxtSNthzNQVgz+HpSz8ZBmDEVEwTBDkIOah3vCWuGhCCs5rKl7AxxEGZM/ZxOi8kTYe2IDQ+kNuU9YQ/AQZgx9XM6YQfvCWtHXFgQtSkHYQ/AQZgx9SPMhDkIa4FOEBAd5vxytCiKNgDlSvefScdBmDH1c/pwFh/M0obwYD8YDXqn24miWHb0vADTOA7CjKmf0x+2PBPWhrgw2n6wIAhFSvedyYODMGPqxzNhDxUXQdsP5iDsOTgIM6Z+zs+EOWOWJsQSZ8LoLrfJPAD/pjKmfjwT9lBx9OtJHIQ9BAdhxtSvy9kGBsJhH+Z+seHk60kchD0EB2HG1K/T2QZGLy8+nKUB1INZAHhP2ENwEGZM/ZwOwgDgxbNhVTMa9Agn1BHu7Oy0CYJQp3T/mTw4CDOmfqQg7O3FQVjNosMCSKsVdXV1zUr3ncmHgzBj6kcKwkYvg9L9ZqdATVdZX1/Ps2APwkGYMfUjzoQ5CKsZtXBDQ0NDtdJ9Z/LhIMyY+vFytAeiXk9qaGjgEoYehIMwY+rHy9EeKI54Pamuro5PRnsQDsKMqR8xCPNMWM2oy9FHjhzZp3TfmXw4CDOmfrTlaL6ipGrUO8Jbt27do3TfmXw4CDOmfh2URrwcrV4mHyMC/XycbnfkyBEsWLCAl6M9CAdhxtSPD2Z5mHhi9aSysjIbAKvS/Wfy4SDMmPrxFSUPQ12KrqysNCvddyYvDsKMqZ+F0oiXo9WLeiirsrKyUem+M3lxEGZM/Xg52sNQ7whXVVUdUbrvTF4chBlTP74n7GFiiSkrq6qquIShh+EgzJj60YIwX1FSrbgI2ky4uLh4v9J9Z/LiIMyY+pGuKPkYeSasRoIAxIQ6H4Ttdju2bdvGd4Q9DAdhxtSPdCLW19tL6X6zEwgNMJG+IJWXl6OpqYmXoz0MB2HG1K+F0sjPx6h0v9kJUHNGFxUVAUCZ0v1n8uIgzJj6kYq4+/t6K91vdgLU60lHE3XUK91/Ji8OwoypXyulkT/PhFUpMTKY1K6qqorvCHsgDsKMqR9pJuzny0FYjagpK2tqaiqU7juTHwdhxtSP94Q9SAJxJlxWVpavdN+Z/DgIM6ZygiB0gpC0359nwqpEXY7et2/fDqX7zuTHQZgxbXB6NswzYfUJMHkjiFDCsLGxEfn5+buV7j+THwdhxrTB6SDs6+0FvY5/xdWEuhR98OBBADikdP+Z/Pg3lDFtoB3O8uGEHWpCXYouLCx0AChVuv9MfhyEGdMGPpzlARKIJ6MrKioaANiU7j+THwdhxrSBFIQ5YYe6UJejjxw5wukqPRQHYca0ge8KewDqHeGqqiou3OChOAgzpg28HO0BqHvC+fn565XuO3MNDsKMaQMHYY3z9zUi2N/X6XbNzc3YunXrJqX7z1yDgzBj2kAKwpQ7qcw1EqNCSO0OHTokAjiodP+Za3AQZkwbGiiNQgNNSvebHZVMDMKVlZXN4JPRHouDMGPaUENpFMZBWDWSo2lBuLGxkU9GezAOwoxpAwdhjUuJCSW1a2pq2ql035nrcBBmTBuqKY14OVo9qDPhjo6O35XuO3MdDsKMaQMpCIcFcBBWA4Neh/hw5+8IOxwOhIeHL1a6/8x1OAgzpgGCIHQAaHW2XVgQB2E1iI8IgpdB73S76upqy80330w6lMe0gYMwY9rh9L6wt5cBJr4rrLjkaNp+8JEjR0hnAZh2cBBmTDt4SVqjUoj7wRaLJVfpvjPX4iDMmHbQTkjzkrTikoh3hMPCwtYo3XfmWhyEGdMOUhAO5Zmw4tLiwkjtevXqtVHpvjPX4iDMmHbwXWEN8jLokRZLC8IADijdf+ZaHIQZ0w7anjAHYUWlxITCSDgZ3dnZ2SYIwhGl+89ci4MwY9pBmglHBPsp3e8eLSMhgtTObrdzpqwegIMwY9pBmgnHEpJEMPlkJEaS2vn5+fF+cA/AQZgx7ThMaRQXFqh0v3u0rCRaEAawQ+m+M9fjIMyYdlQB6HS2UVSoP/Q6/lVXgsnbizwTBrBd6f4z1+PfTMY0QhAEEUCps+30Oh2iQv2V7n6P1C8tBgY96WO2BUCR0v1nrsdBmDFtIX0wU4oHMOkG9oqjNt0uCIJD6f4z1+MgzJi2kAq8U3MXM2kGpsdSm3KmrB6CgzBj2kKaCfciZmxidCYfI3JSoqnNOQj3EByEGdOW/ZRGKTE8E3a3UdlJpCQdALoAbFK6/8w9OAgzpi37KI0kpE1kROP6pVCbbhUEwax0/5l7cBBmTFvKALQ62yjQ5I1Yvi/sNjqdgFHZSdTmvBTdg3AQZkxDjl5TyqO07ZtK3p9kThrYKw7B/r7U5ouV7j9zHw7CjGkPqdB7/7QYpfvdY0wbkUFtWgdgg9L9Z+7DQZgx7dlCaTQgjXxdhjnB5O2FyYPTqc0XC4JgV3oMzH04CDOmPaSZUu+ECMSG876wq501qBdM3l7U5j8r3X/mXhyEGdOePABNlIYT+qcp3XePd8GYHGrTTgDLle4/cy8OwoxpzNF0hqR7pBeOzYYgKD0Cz5WTEi1l732BIAhtSo+BuRcHYca06TdKo5ToUAzpHa903z3WjecOldL8c6X7z9yPgzBj2jQPgEhpeOnE/kr33SOlxYZhbF9ygo4qAMuUHgNzPw7CjGmQIAjFIBZ9H98vlRN3uMDfLxglZan/S0EQbEqPgbkfB2HGtOtHSiOdTsBFY8mHh9gJDM9MlJKmUgTwmdJjYMrgIMyYdn2O7mT/TrtobA5MPkal++8R9Dod7rt4rJRHLBUEgVSYg2kfB2HGNEoQhEoA8yltA/18cPG4vkoPwSNcNXmg1FKRLyo9BqYcDsKMadvb1IZXTx4IH6NB6f5rWkZiJG6fOULKIzYKgrBa6XEw5XAQZkzDBEFYA2APpW1ooAlXnjVQ6SFoltFLjyevnwIvWs3gY15QehxMWRyEGdO+/1IbXnv2YCnVfnosQQCeuGay1DrNuwAsUHosTFkchBnTvjkAGikN/X2NuGX6MKX7rzm3zxyJqcP6SH3MfUdLU7IejIMwYxonCIIZwFvU9heP64espEilh6EZF4zJlpoZCwB+FARhldJjYcrjLLKMeQBRFEMBlAAIoLQ/WFGHq5/9BnaHQ+mhqNpFY3PwyJUToZOWgLsTQNbRhCush+OZMGMeQBCEBgDvU9unx4XjmrMHKT0MVbvunMH455WTpAZgAHiZAzA7hmfCjHkIURQjARwCcTZsszvwt5d/wN7iaqWHoipeBj3uu3gsLp3QT47H7QQwQhAEq9LjYurAM2HGPIQgCEcA/Ifa3qDX4YVbzkWgn4/SQ1GNyBB/vH/fRXIF4E4A13IAZsfjmTBjHkQURT8ABQBiqc/YlFeGe//7C2z2nr0/PL5/Kh6/5iw5r3DdLgjCe0qPi6kLB2HGPIwoijcC+FjKM37ZkIenviCVLNa8iCA/PHT5BEwamCbnY+cLgnCh0mNj6sNBmDEPI4qiAGA1AElVBT5ZshXv/LxR6eG4jZdBj1njcnDbjJHw95W1uMUuAOMEQWhVeoxMfTgIM+aBRFHsA2A3AG8pz/lu1W68/O0aOETPzSmhEwRMGtQLd14wCvERQXI/vhLdB7EOKz1Opk4chBnzUKIoPgXgcanP+WVDHp6ds9Lj7hAbvfQ4Z0hvXD91CJKiQlzxEi0AxgqCQMrtzXoGDsKMeShRFL0BbAQguUrDrkOV+NfHS3GksU3pYUkWFRKAi8f3xQWjsxES4LK82WYAMwVBWKH0eJm6cRBmzIOJotgbwHYA/lKf1dTWgX9/9ivW55YoPSyneXsZMK5fCqYO64MxfZOh17n0dmYTgBmCIKxTetxM/TgIM+bhRFG8FsDn8jwL+HV7Ad6ctx7VDeo+Z2TQ6zAsMwFTh/bBhP6pMPnIetjqZI4AmCoIwk6lx8+0gYMwYz2AKIqfArherud1Wm34Yvl2fL1yF1rNFqWH94eIID+MyknG6JxkDM9MgJ97Au8xZQDOFgQhX+n3gWkHB2HGeoCj+8NLAUyQ87kdli4s3nwA367ag6LKerePK9DPBwPSYjCgVxxGZCYgPT4C0lM7k/wK4CpBEGoVeXWmWRyEGeshRFEMBrAeQJYrnr/rUCVW7izEur3FKDvSJPvzdYKAhMhgZCVFYkCvWAzsFYuUmDClgu4xDgDPAHhSEATPOj7O3IKDMGM9iCiKSQA2QEJayzNxpLENOw9VoqC8Fgcr6lBZ14LK+hZYu+ynbCcIQEiACaEBvoiPCEZiZBASIoORFhuG9Lhw+Hp7Kf0WHq8OwDWCICxVuiNMuzgIM9bDiKKYDWA5XByIT6S904pWswUtZssf9471Oh38fLzg621EkJ+3q08uy2UOgPt5+ZlJxUGYsR5IFMVkdO9j9lK6LxpTBOAOQRCWKd0R5hk08ZWTMSYvQRBKAIwHsE/pvmiEGcBzAHI4ADM58UyYsR5MFMUwAD9A5lPTHsQK4EMAzwqCUKV0Z5jn4ZkwYz2YIAj1ACYDeBKAXeLjPIkDwPcAsgRBuJMDMHMVngkzxgAAoihORveBoyil+6KgRnTXYn5XEIQipTvDPB8HYcbYH0RRjAHwDoALlO6Lm+0B8DaArwRBMCvdGdZzcBBmjP2FKIqTu7q63vby8uqjdF9cqBbdS85zBUFYr3RnWM/EQZgxdkKiKBoA3Gi1Wl8yGo2yV7tXSAeAhQC+BLBUEIQupTvEejYOwoyxU/q/9u5fpaEYCsD4lzsI5VKhkwiC4KLg4isUnN3F1SfQd1NwcBCcRHByKeJkQcThSi/CleY4tIODCNXKtfj9IGTMSYYc8ockInrAYV3Xx2VZLuJ58T1wCpwA5yml17YDkiRpJhFRRMReVVWXOef4w0YRcRYRRxGx1fa4SV9xJSxpZhGxmXPer+v6oNvttv3q1jOTjykupvW128xaFCZhST8yfQKz3zTN7ng87nc6ndVfbK4Cbj6UK+A2pRRtj4P0HSZhSXM1/TJxB9gGNoB1YC3nvAL0iqJY5vO554XJxaknYAg8Ag/AHTAABimlYdv9k+bJJCypFRFRAkvAW0pp1HY8kiRJkiRJkiRJkiRJkiRJkiRJkiRJkiRJkiRJkiRJkiRJkv63dyQOMneRgA+XAAAAAElFTkSuQmCC;" vertex="1" parent="1">
          <mxGeometry x="679.21" y="159" width="48.58" height="50" as="geometry" />
        </mxCell>
        <mxCell id="1DGZzi-8BsjLAn0v7RLl-24" value="&lt;font color=&quot;#999999&quot; face=&quot;Lucida Console&quot; style=&quot;font-size: 14px;&quot;&gt;&lt;u&gt;Исходные данные&lt;/u&gt;&lt;/font&gt;" style="verticalLabelPosition=bottom;html=1;verticalAlign=top;align=center;strokeColor=#10739e;fillColor=#b1ddf0;shape=mxgraph.azure.cloud;" vertex="1" parent="1">
          <mxGeometry x="50" y="215" width="185" height="120" as="geometry" />
        </mxCell>
        <mxCell id="1DGZzi-8BsjLAn0v7RLl-25" value="" style="shape=image;verticalLabelPosition=bottom;labelBackgroundColor=default;verticalAlign=top;aspect=fixed;imageAspect=0;image=data:image/png,iVBORw0KGgoAAAANSUhEUgAAApwAAAECCAYAAABTzwcLAAAACXBIWXMAAAsTAAALEwEAmpwYAAAAB3RJTUUH3gkMDzIv7tskIwAAIABJREFUeNrt3U9sU1f+9/HvJTdxnOQm2IX0cZBAmghTiUhFbtGURYlUsUsWPKtmkx0s0tWwyW9FFmT1Y5NZlUVYPdmkq6eLZDMPQjIsmBGpf6kEUjHKSEEiHgzYYCexHTucZ2GcpjSB/PE999/7JY06nU5xcn3uOZ/zXwQAAACwkbH9b1K5imr2B3SZRyTe3WrwqAEA0C9dqKrV2jvadrgjcI4+eKXSxZotHzLUF5aJgR4KJgAAGo09zKlUfsOWPzsRaZNb56O07diTIyIis8trtoVNEZH5lZIks2XF4wYAQI+55+u2hU0RkVR+Q+aer9O2Y++Bs1izv7zYGWgBAMAfZcrvfPEZ8FHgBAAAAAicAAAAIHACAAAABE4AAAAQOAEAAEDgBAAAAAicAAAAIHACAACAwAkAAAAQOAEAAEDgBAAAAIETAAAAIHACAACAwAkAAAAQOAEAAEDgBAAAAIETAAAAIHACAACAwAkAAAACJwAAAEDgBAAAAIETAAAABE4AAACAwAkAAAACJwAAAAicAAAAAIETAAAABE4AAACAwAkAAAACJwAAAAicAAAAAIETAAAABE4AAAAQOAEAAAACJwAAAAicAAAAIHACAAAABE4AAAAQOAEAAAACJwAAAAicAAAAIHACAAAABE4AAAAQOAEAAEDgBAAAAAicAAAAIHACAACAwAkAAAAQOAEAAEDgBAAAAAicAAAAIHACAACAwAkAAAAQOAEAAEDgBAAAAIETAAAAIHACAACAwAkAAAACJwAAAHBYJo8AdkoXqmq19k5+yVdFRORpsSrFqvr9v9fUnv6cWLhFYu0tIiKSiLaJiMhXkdb6/x42DZ608zKlmsqUNre+61Ruo/6/lzclU9rc058Rt0zpMo/wPftQKldR6WJNijVF2YBvy/hKaVMy5XeSKf1etvfT1jXKudVqyGmrVSzTkLhlSiIa8nwZN0REppdW1e2lVVs/6Ep/l1zt76JS8Hm4TOU3JF2sydNiVdLFmrbPTkTa3r+UbTLY20450/h9p/Ibkspt7LlC5XsOVtlIF2t7DpXNKBunLVO+irYRQmnbbQ+Xv+Srkspt7CtQHkYs3FKv/yJt9fLe3eqp507gPERB02m4r911FWimVFPJbEVr4NiruGXKxd52GTwe8txL6WbJbFklsxW5ly274vtuVL5DfeFDf8+zy2vKjt/Jje+unWUjld/QEjD30jgPHg/JYG/o0KNDc8/XVab8znNlg7a9uZ2o5Mt63adzMOVjLNOQRLRNLh4PyfCJDtd/BwTOfbrx6K2aXyk5UrBmLnzmeMPVCJnzKyXXvHR7aXiG+sKBafjtqGhnn627JmR+KmAcJHyOPnil7CrPlmnIj19HfdnxSReqan6lJPMrJVeXDcs05GJvu4yc7Nj39zD2MKdS+Q3bfrZbX0dsmy6lbT98eze7vC7JlxVXdKI+ZbA35OrwSeD0QNhsuHbGkpFTnY48w7nn6+qnZ+ueCZm7SUTaZORUB9OxPv/O45Yp35/s2FPFm8pV1NhC3tafZ6gvLBMDPb4pc8lsWc0ur4udQcwNZSNdqKrRf762PSTcPBchcFL3NbWDNdQXlpFTHa4aZGGXukfCpohoH0HIlGpqemlVXbr7Qk0+Lng+bIqIpPIbMr74Ri7ff6nmnq8rSvbOle3l+y89/Z2nizWZfFyQy/dfqtnlNce/Zy+MjuynbIwvvvFk2NxeNi7dfaGml1Y/WjZWa+9s/3kamyjhPL+0d8Waktln63L5/iu58eitypTcMf1A4PRI2LRMQwaPh7QFzRuP3qrL91/J7aVVV0+VHSYANAJJKlehxpf6SF8jaPolIGVKmzL1pCiX7r6gg3HIsjH2MOerslGsKbm9tLqn4IlgBE0/tnfzKyW5fP+VjC/mHQ+eBE6PhE0da8C2B02nf2edgWRsIS9jD3Ou6QXqfwY1Nb6YV2MLed+EiZ3CxeTjgow+eEUH4wB14NhC3rMjmnsNnpfvv1TJbJmyESCNEXu/Dqxsl8xWtkY8CZyETUfD5vTSaqCC5odS+Q0ZffBa3DD9qtPs8poaffBaktlKIH7fdLEmYwt5mfqtQLD4ZANVVpfuvlBB6nyOL76R8cU8ZcPv9UCh6rsR+72aXynJpbsvHFlqROAMeNice76+NZUQdMWakqknRRl7mAtEgzO+mFdTT4q+79nvGLSfrbOc4hP13/jim0CWjWS2IpfuvmC006eml1bV6D9f+3bEfr9tnc6ZPQJnQMPm9h5esUa9ul0qvyGX7r5Q6YI/V/OnC1VVnz6sBPp7biynmFspU+i3lY3RB69UUGc6tjfI44tvZHppjULhm/e9psYe5hhc+aCt0zmzR+AMYNikh7e3BueHhZz4baPJ3PN19cNCLnDTSB8T9HC11fjkKuqHhZwvTqNoZoMM70tmy2r0AW3ebm3d1JOilqUkBM4Ahc3G6AU9vL2/iJOPC74JnbPLa4xoY9eOyNhCnrIB35ldXgvs8pD9hfJK/QIMG2f2CJwBCZuNUU1GL/bPD6HzxqO3aupJkS8TO4bNyccFHgR82a5T7+1duliTHxZyYtfadgKnS8Jm3DLlznefG80Om4xqEjrdUL5B2AR0Gl/MU+8dQLGm6mvbbWjvAh843RI2Zy4cs2W9Jmuymhs6vbarmbAJwiaCZvTBq8BvimxGe9fs0BnowOn3sDm7vKZYt9LsXvMb8coB8XPP1wmbIGwicGGTQRZ3hs7ABk6/h00RYZG0Tc90fPENgQKelcpVKBsgbEJ76Axk4AxC2BQRibWzRNcO6WJN3Hz3crpQVX9noTx2UL/G9A0PAoRNaA+dgUskQQmbIiLDJzqMRKSNt8UGt5dWxa0Hw4//yhEg2KVscDwMfNquEzbtD52H3cNwJGiFMihhs+HW+ahhmQZviy0v4FsXBoq84lB37GTqtwKNMmjXcagO62EGWo5QKPUZ7A1pDZsN1wd6eFNskC7WXHVU0uzyGjszsaNktqxmn63zIOArXtsYGbdMSUTadvxPLNzi+p+/WFMy/uvBl+SYhE09hvrCMjHQ48hQ42Bvu+HGXmBjut9qNeS01brj/yeVq19F9rRYdeVU4O1/u+Ou5UyppkYfvKYFwo4mH73lIcBfHf5CVY3+0711XiLSJolom3wVaZVENGSIiPxrj3V5uliTdLEmqdyG667jzJQ2ZexhTt06H913nvF94Ax62GyYGOgxLt9/6ch0ayzcIolIm8Qts97D28fL9+GL+EtuQ1L5qtzLll0RQDOlTZleWlVX+7sMZ8s5V1ZiZ+OLeUa+4b9y/av7Nr8N9obk4vGQDJ/oMP51wD8jFv7zGri55+vq3suKuOU9TuU3DtTu+TpwEjb/6OaXR0VXjzBumTLUF5bB3pDEwqbxc1OC6x9fxGS2rGaX1x3vATpdxrxyBJJl/j6SnYjuvpntabEqxaqS1do7Li04bMOQq6ixhTxlA3SibCy735/qlOG+domFTeOmDZ8xfKJjq+2bXlpVPy2vOT7A0Ng4u5/bEX0bOAmbO4TA7lZjemnVtmsuY+EWGTnZsRUyZ2zvTbYbIvWplaknRceCZ6a0KXPP19X2SkEntx6BFLdMudjb/ocppTsH+HPSharKlDe3ppcIGvuoB13aEdlayxZt23qP7xzo3XP39COab3Z5zRX3ozeC5tX+LuOOxs9tjCq6IXjud5TZl4HTDSM+bgub2wtrs88rS0TaZORUhwz2tjdlJPMgQVqkPuI5+eitIy/g/ErZke9z6reCqzaDxC1Tvj/ZsTWlNNPE7/fDdzyVrwq7U3dnZ+fSLR3SnaYfk9mySmYrrll2g2Z27t2xVr3Rvt9x8GdoBE8nR3v3u6TMd4GTsPlpN88dldEHrw9dGScibXK1v1MS0ZBxywW/V2OkxIkDgFP5DcmUamqnBtDOyvfy/VeuKFPby8KMhs/bPpo893xd/fRsnZHPD/y0vOa6svGzxnqgUTbmV8qMfPqE02vVY+EWmTjbvTVj4472PGI4Odiyn6l1Xx2LRNjc+6jA385YB/7345Ypt76OyK3zUcNNL17DzIVjxlBfWPvnzi7rHWmcXnI+UCQibY6XheETHcbMhWPGra8jwkUHjbKxqpwe3XNDPTF8osO4dT5K2fCBZLasnOw4DPaG5Odvj7uyzRvsbTfufPe5Yxe97HWJg28CpxvC5vWz3a4Pm9sr4sHe0L7+Hcs05PrZbpm5cMyVL912EwM92kNn8qW+aY1MqeboGmXLNOTaGctVnY5ENLQVLrxwpp2dnB7dvNLf5ap6YnvZIHh6k5PrNq/0d8nNcxHXt+23zkcdGWxJ5TckmS1/sofri8DplrDp1KaRg7p5LrLnW4iG+sJy57vPDS/9jhMDPUbc0rdqJFPalExJz7CSk6ObccuUH7+OysipTleWhUQ0ZPz87XHjSn9XIBtmJ0c3Y+EWmfnmM3H6mLBPBc9rZyzhBjZvlWmnblC7frbbteV5t3bv+tluV3YIPB84CZuHDZ1HP9mA3Po64pmR251+P50Ni47F206ObiYibTJz4Zixn6MwnHK1v8uY+eYz0dnpcAOnRjfjlik/f3vcE2Vj5FSnMXMheGWDMh2Mtn34RIf20Nk4rcW3gZOw2Zwe/8jJjh3/2ZX+LteuWdmrWNg0dF7tqWONke61og1DfWE5yO0STop3txozF47te/mIV80urzkyuhm3TEeu7T1s3eDUem/snVMj9l5v24dPdBjXDrFX4yA+dfOeZwMnYbN5rn3R/YfFxnHLdPW02H4N9rZrW0zduIrTTk6MbnphM9zH3DwXCUSwcOKILC+Gze0mBnoCu/zCC5wY3fRL2z5yqlNrvfepUU5PBk7CZvPdOh81fv72mMx885lnpkz342p/p5bPKdaUres4556va+/txy3T02Fze7Dwc+hMZsva17l5PWz+Xj90ObLuDR/nxOjmyPtzhP3yDHXvZfjYmdSeC5yETfvEwqbvgmZDIhrSNspp53mQP2kewbJMwxeBIgihU/fId/3Uih7fPL/hEx1Mr7uM7tHNRKRNrn3R7bs2UOdehlR+Q9KFqvJ84HQ6bDaOBfJj2AyCob52TwfOxjV+uisqv9Hd49dF920jfztjid86qBMDPYFZ7+uF9l7n6KZlGp5bo75Xuvcy7La054iXCp/TYfPHr6OETQ/T9d3ZtY5T92ahkZMd4uUNY27p8Wup4JfXtM47DvaGfFsX3jwXMYJ+jqsb6J7N0RnInKBzL8O9bNm7gdMtYdOv081BomP0YrX2zpY/V+fB8pZp+HJqaXuP/2+ad3DaSed0euPQfz+bYD2no9KFqtbZnMHe0B+uRPVtuR7QU66LNbXjQfCuD5yETTTTaavV/srShooyXahq3RDyN58HCpH6iLcfbp3RvdTi+1OdEgv7+9T0RDTE1HpAOlAi4vsO1PaOtq51yjt9h64OnIRNNNtXkVZP/tw6Rzdj4ZbALB3RdXqBnX7J6btf2jIN3xyXRgghcIrUlw75vQPlRJ2309Iy1wZOwibsoGtNYipXaeqaut3WxNjhyl86A1UevD7KeU9jZ+T7U8EpGzpHg7Ctc50ta9ss5PelQ06W652m1V0ZOAmbwB/pmjIN0uhmw8ipDo830HoCZ5BGNxuGNZ1sge2ddX0j9hd7g/n96irXH36XrguchE3gz++Ers8K4oiOl3erN3skncYZjnegNI7Y+2FJzUEkoiEtJzF8+F26KnA6HTbrt2Z8Rtj0+8vmsSnUVL7qu54vmuMXjWVj5GQHDxy20rk5crA3FKi1m3/6/Y/bvykuU9r8w817rgmc7gibx4wgF8CgsOvYIruCwNOinlAR9ArYi3RNP8bCLXTEoaFzrXE6/XiwTyHQdQrD9k2NrgicbgmbvO4B6UVrvq3HKz9v0CtgGujdsXkGfgucQb/ERdcG2qfb2i/H73cjbMKWiuv92rZ0sSbFmno/tL8pq7V3ngqcqVxFjS3ktXzWV9E2Co6XOiKFqhr952stnzVIZwRa6js9gXOwNyT/4nFL3DJtbw/TbgmcOitMwqb/AmWxpiRdrMlqtR4it4dJXSHNbrrW6MUtk+l0rwVOTUstLNNgOh22y5Rq6vL9V1o+6+LxkNzkkctpq9X2wLl91NqxwJkuVNUPCznCJj4aKldKm5Ipv5OnxaoUq2qr8PolUH6KrvWbiUibzFDkPFY29IzUJ6JtcofHDds7UPpmnpjNqdOxU72R9+LdrYYjgbMRNnUd7krY9E6wTOU2JFOuT38HJVS6oRJOUAFTNj7SGQH8Up4t02A2R7NMuX7ygPbA6XTYTETa5Nb5KIXNwXCZLtYkXazJ02JV0sUawfJjL6qmI0LilsnD9hhdo9+UDehpG/Ss3+xqPSLTS6uKJ66vfWl0JrTWJE6HzaG+sEwM9BA2NUpmyyqV25B0sSap/Abhcp/vi441zvT4vUlXPaprNysCHn7KesJPprQpt5dWeeAOBFttgfNpsSo/La8RNn3fS62oZLYiqXw9ZI4vvuGhHJCO80JF6gvHWaPnvfdMR+ctbpns5oXWUAIC56Hpuu+XsKnf3PN1de9lRVI5RjCbSecOdXiLro57l3mEhw0NgUTfDnU48P06tYaTsOkPyWxZJbMVmV8piZPnqKIJoaKVUOE1bCaDvwIno5tB+H59HTgHe0OEzSabXV5Ts8/WmSrXQNci+q8irTxsAI5xaqkd9PJ14PTaFYbu7Z3U1OzyusyvlGTqSZEHAtAZAWirsffvuFBVvg6cmdKmjD3MKY5BOnjQnF5aE9bW+Juuw38BAMG0Wnsnvl+8lcpvyNRvBcbr92l6aVWNPngt8yslHoaDZVdP4ORIJOyMTUMAmiUQtcnss3WZe75O6NyDZLasLt9/qW4vrbKuBnApXWcWcoc6tJRnNg0ROP1k8nFB0oUqCeojxhfzanzxDS8/QAMNUJ7RNMWakkDNl/ywkONb30EyW1aX7r5QTp6VCgAA/CldrAUrcBZrSkYfvGKUc5up3wpqfPEN0+cBlYhwziIAwH6BWxGeLtbkxqO3pCsRGXuYU7PP1nkQAACAwNls8yulwG8iGn3wSunaBQ0AAAicgRTUTUTpQlVduvtCcdAuAMANLA5D8L24ZUqgD1kL2iaidKGqfljIsV4TW54WqzwEAI46bXGjle87FaYR7MAZtE1Ek4/fEjbxp3cAAAC7Bf4aiaBsIhp98Crw0+ixcAu7suGb0QIA8BKTR/D7JqLhEx2+rMVvPHqrgnBFZdwypcs8Uv9ra/2vlmnIaavV6NrWQH/z/14wrAdPO221Cpv+QAcKBE4PmnxckFSuohLRkK9KfjJbVuOLb3wVKmPhFjlttUqs/Yj01f/7HwKlX8TCLdzAAUf5sU6EO+t1+FuXeYTAuV39WseaioX9k14mH731bNiKW6actlrrIbO9RU4HrBsca9cTOAkVAAC7WKYh8e5Wg8C5TbGmxE+jgeOLeU9cV/l+2lsS0Tb5KtLq2xFLoJkdMsnb/zkrjLBDg0Q0ZPz1H/9hqZNPw+bNc0clIS6cUrdMQ670d8n8Skmc2OTS2EQ0MdDj6cSTylXU2ELetT/fYG9IEpE2SUTaAjdy6bZQwZmsHi0bGmTK73jY8JW4Zcq1MxYPQoMu84jEu1uNxPu/d1XgtExDfvw6KvHuViNTqqnRB68dObZlfqUks8trauRUp2eD0PTSmus6Ehd722WwNyQXjzN966ZQwdFI3hw10BI4GeGEJolIm5aNcMWaEpYQOcM1gXN72Kw3tqbh5Cjd1JOiZ9e2uWl0c7A3JEN9YULmQQJn+xFN5YXdzl6ja5MFgRNaO9h5yrSfueIczg/D5laPJxoyrvR3OfZzNTYRee1LnX227vjPMNQXlp+/PSb//eVRg7B5MH2aRjhXa0ybek2XqakzwtFL0Bk4NUnlKkzrBDFw7hY2G672dxmDvSFHfjYvbiLKlGqObhQa7A3Jz98ek+tnu43/1d5C0PRABcwaTu/Zrb60q07hicNuX0X0XW/5S54rfQMXOGPhlo+GzYab5yKGU+d0ee0mIqfCZmMn2n9/eZSg2bT3Q99mKnr8dEjokMBJOpevsYwoYIEzbpny87fHjb321K+f7XHsNoLGJiIvfKFO3CgUt0z5v98eZ+rcjkpY01Wc9Pg9GDjb9QROGmfobEu0lGmWigQncMYtU2YuHNtXOIl3txrXB3oce1BTT4qSzJZdHTozpZr2+9KH+sLyf775jHMz7QoVmkaxnhYJnJ7rjET1dEZonOG3DraIyNzzdWZ1/B44DxI2GwZ7242Rkx2OPazJR28lXai6tpD+onkkYqgvLNfPdpM0fdDj98IFAXCmbDClDr91okRE7r2kzvN14DxM2Gy49kW3obMXtF2xpmTysXuvikxpnBZ9f3guYdMnoaIeOsv0+CkbO2I0CDoM9rZra1OS2Qob4vwaOBORtkOHzYZb56OGziMUPuztjy/mXVlIdZ0v1tggxDS6jh5/SGsFDO+IhU1t9SCjQfBlR2qlzAP3ZeBs8lD5zS+POvbQktmKTC+tui506lprdaW/S9iJrjF0ahrRv5el8qVxpjMCZw31hbV91k/LazxwPwbOple03a3G9bPdjn3+7aXVQE5BxsIt8v3JDsKmzsCpaV1TsaaYVqczsium1aGDznO3izXlysEjAqcLDZ/oMHT2hj7kpk1Eus5RdHLTVlDpPBDZiWO14I3A+ZMLbjCD/8XCptZztxnlJHDu2cRAj2OHwrt9E5HXe594HyqiIUPXGbRBXEjv5TNI492ths4D4IN2QQA79J2hcyCpWFMy9VuBUU4C597cPHfUsUPh3byJqOmNm2WydtOx0KlvJGt6KVg9fq+PcOgc5Qxa2ZhlVNcRugc2Zp+tc9sagXNvYmHTuHmOTUT2P+cW3hiHXDyurwKeXykFZpRzemlVFT3+q+psnFP5jcA0zHPP15Wukz/w5zZdd+i88bjAgydw7rGXHw0Z185Yjn3+7aVV3y+qP2218sY4ZPiE3o1aU0+Kvn+mmVJN+WH91mBvu6Fzhicoo5x/D8A74Ga692dkSpty49FbRjkJnHszcqrTcHKN4d+fFF19ExG8Hiz0le1ktuL7kawbjwpS9MlA7sXedm2flcpv+L5zPb6YV0XOBHe8I6V7Vm1+pcRpDATOvbt5LuLoJqLxX9/4trAwveRwqDjOFFOzTC+tKj/dEa67o+3n0b+55+uKc0fd4cpfOrV/5uTjAgNHBM69u362x7FNRJnSpow9zPmysD4tVnljHKR7Wt2vU0zJbFndXlr11e+ke1q9WFO+rOfShaqaZC2fq+o8J9ryHxZyhE4C597Eu1uN6wM9jn1+Kr+h/ZgFHVMP6WJNVplmcpTudU1+m2JKF6pq8tFbykaT6jk/bZZMF6rqh4UclYzLfH9K/yhnsaYInQTO/fX4nTykfPbZutaGOhbW0w3kJhqHe/x97do/c/JxwRfrORuBwq9r80ZO6a/v/LJZ0u9lw8uu9nc5MspJ6CRw7su1L7oNnWfUfUj3JiIda1dv/9vbO1SferxFSURDhhPHU40vvvF0xTv3fF2N/vO1rwNFLGw6Ut9NPi54OnQms2XCpstd6e9y5HMbodPPG4kypZoaX8yrv/7jP+rS3RfKzlmLI34vqLfORw2nzo/UvYlIx++ZKW3K/ErJky/f02LNF1NmTiykb1S8XhzpnPqtEJh1eVf7Ox35XK+GzumlVTW++Iaw6XIjpzodbccnHxd8eRvR7PKaGn3wWhqb5Io1JbeXVm1bu38kCIX15pfOHQqvcxORrnMy//6k6Lm1nPMrJd+McA2f6HCk8i3WlIwt5D0TLNKFqhp98EoF6bYYp0bAG6FzdnnNE2UjU6qpsYc5320e87OJs93OhrNn6zL64JXyw6UYqVxFjT54paaeFHdsE+dXSra8y4EInPHuVuO6g4VV1yairyJ6Auf70S5PvHSrNSX/9esb341w6d4g8mGwcPvu9emlVTX6z9eBvAvbiRHwhqknRddf9Tu9tKpGH7wWPx2LFZTOlJPnbIvUN85evv/Ks5vlGtPnYwv5T9aNU0+KTR9cOBKUwjp8osNwspHWsYkoEQ0ZOl+8ycfunmK497Ki/vf9l748U8+phfTbe8CX779Ubptin11eU5fuvgj0yJVTI+ANyWxFLt19ody2wXDu+bq6fP+lur20yhS6R107Y4mT9V7D7aVVuXz/pfLKbE+mVFM3Hr1Vl++/kv20h81eKnMkSIV1YqDHsUPhG1+e3RsvdPYA51dK8l+/vlFum17/n/yG+mEh7/u1WU4tpP+9EtuUsYW8jD3MOTrNlCnV1PTSqrp098WuU0RB4+Qop8j79euLb2TsYc7xTsns8pq6fP+lmnxc4PIKj4uFTcPpem97/Tf5uODq4JnKVdT4Yl5dvv9K5ldKB84tzfr9jgStwN48d9TRHpLdm1Z071JNZivyw0JOuWH39//kN9Tk44IaW8gHYrrMyYX0f6jU8hty+f4rGV/Maw0Xc8/XtypTRq3+aPhEh6MndGwvG41Oic4Rz2S2rG48eqv++o//qKknRYKmz+o9N5TtnYLn9NKq42s8M6WaanSyxhby0owZvmaFTkOkvqbF7imoK/1dcrW/y3BDAUnlKmpsIe/Y58ctU2YuHLPtWfz1H/9xpMBf6e+SkZMdRpfmQD+/UlLzK2VXhUxd5T2ZLavxRXddpxoLt8jg8ZAM9oaauswjlauodLEmqfyGeG2ZRCLSJrfOR7W+GE7XczuxTEOG+sKSiLbJYG97055HulBVqfwGZeMDfm7bL9194dr77uOWKUN9YRnsDWk5I7tR/udXSrauW79+tvtQN94FMnCK1KdZphy8D3ioLywTAz22PI/xxbxj6xYt05DvT3XaHjzvvayoZLYi97JlV45s6SzvYw9zrr4XPBFpk0S0TWLtR6Qv3CJB5DxeAAAQIklEQVRd5hGJd7cau4UkkfqUbLpYk0xpUzKlTc+PWDsROEVEbjx6qw46labrucQtU2LhFolb5kfLRrpQVau1d5QNAqdrO1S7dcAb5TxumU3phG/vfKdyG1rbwMOEzsAGTqeDWTN6C25/EYf6wpKItMpgb/uhw+f/5DfUL/mqpHIbnmhgdJb3TKmmRh+8ZkqZwLkjN48EgcDp9t/ProGZxjGGieinlwekcvU272mx6op6/qDZxQzyi37zXMQYffBKOXV0SmMT0W49+gNXYNGQcfn+S+X0uqX5lZLMr5Rk8nFBxS1TTlutEgu3bI107WSltCmZ8rutlyxT3mT91Sd70Kbh1YoXGhqHgR5x27ILoBmu9ncZTg8cHUSxprYGTrw4Qt9Y07nf0GkGvcBeP9sjTl5rZtcmoit/6RQ3nT2ZLtYCeSaizorX7VPrcMZgb7snG2VgL5weOAqqg4TOI0F/aPHuVuP6QI+jPZ3RB6+annaHT3Q4egQU9JsY6HbFGXVwZ6NM2YBfzVw45ooTO4IaOgmc+xwBGDnZ4djnp4s1W25uuXbG4ssNkFjYdLTzBLeHzqM8BPi3fH95lA63y0MngbMRzr7odvRsr/mVUtNvIkpEQ47eroTgdZ7gXoloyKATCr+Kd7caP34dJXQ6FDr3cqkNgXObW+ejjg7LTz4uSLMPzp4Y6GEqjc4TICL1Q7PphILQiWa7/e9Pb1olcH7g5pfOTjuNL76RZt9UwFRaMDtPrOHFbp1QygYInWimvWxKJHDuUFivn+127PMbdxA3UyIacs39s9CHhfT4WNkgdMLP7fid7z6njGs02BsicB7E8IkOR6ed7NhEdLW/y9hLgYC/sJAehE4EuYyzvEhDwLdMufKXTw9qETh34fS00/xKSWaX15o8tR6hgQlgT5/pJRA6EVS3zkfZSGmjob5wvR7ZwwU2BM6PBjRnR4emnhSbvomIBiaYoZPpJVAnIKiufdFtON2e+41lGnLz3FGZGOjh4PdmiIVNw+kNN3ZsIqKBIVgAH5YNltzAzwZ7242ZC58JdWAznmVI7nz3uTHY276vBE/g/ASnz66zYxMR4SPYwYJjcf7cU0d9yQ2bC+FnsbBpzFw4Rjk/RF1589xRuXkucqBKk8C5ByOnOh3t/dt1ExHhI5gmBnqM62e5BlNEJBFpE25n+t3V/i6mHt+LW6Y4eWIJ7C3nM998Jmwo2kcOOtlxoFFNAucBe/9+20S0PXwEp4fLMUEi9ZMYfvw6GujppSv9XXLrfJSLET7QmHoMcmM8crJDZi4cM/qoL/zboehuNW6dj9L53kOnfOabz+TaF92HfkgEzn24frbH8U1EyWy56aFz+ESHMfON/9e2jJzskJ+/PU7Nsq3CbUwvBanCjYVb5NbXEbna30VZ2PUZmcat81Hj2hkrkGWjGY0rvNP5vvPd54GrB/f6Ltw6H93TDvS9YBHfPhvoZLas7FhTuVeTj95KulBVzSoA2383EZHppVV1e2nVV99bItIm185Y0uxn5hdX+7uMTKmm6h2aiq9/1yv9XXK1v8v4ma99b520U52GiMiNR2/V/ErJ9x3Sa190UzYCXA822sCfltekWFOBfA5xy5TvT3bI8ImOpr8LBM59GuxtN5wMZcWaksnHbwkfewyaV/s7JRENGbcoup/ozda79qlcRU0vrUkqv+Gr32+oLyxX+zu3fk/sz8RAj+HXspGItMnEQDdlA4EOntvbyxmbPoPAecACOfYwp5yqeNPFmi2jnH4JH0N9YRnua3c0aHp1aiYRDfkqeG4PmhNUXZQNOqTYZ/Cce76ufnq2LulizXe/o2UaMtQXlpFTHfVlNDZ/nikiEmu3fynn4HF/nfF263zUGH3wSjlVCC0Ns8PbG5i5lbK4eUotbpnvX5xO418iMvGJEGL37+L1Mw0b3326UFWzz9blXrbsmZ7+h5UoQdOespEp1dT00prnysbF3vatTojfg+ZXkVa5reEz/Gz4RMdWXTi/UpLky4pkSpueDpkXe9tlsDckg73txh0Ruabps7dSi13Dx5ZpyN/OWFtfmt/cePRW6axwnXyemVJNJbMVmX227ooXLm6Z9RfneGjf6zPtWpMWC7fIlb90+rK8zz1fV/deVly51OLDSnQ//24qV1FjC3l7Q1qkTW6dj/p2ytbNZaPRAbx4PLTv99IPZcPOtv37U52B3HzXCJ+p/IYnRj5j4RYZPB6SRLRNDnOsUdMCJ7DfFy75siL3smVtL1ws3CKJSJskIq3yVbSNNVcOB4xUviqp/IZjnY+4ZdbLwyErUQJncyWzZZXMVigblI1AyJRq6pfchjhdH35Y/k9bra5rK1nDiYMV6A9GFJPZskoXa5LKbUimvHnoly5umRILt8hpq1Xilvn+7012kLrE9pGiTKmm0sWaNPP7/3AkpVEOYuGWepiIhox/icgMX4XrfBjwGnXD02JVMqXNpnZQG2WjUS4oG9BtpzCXylXUL/l6ec+UNuVpsWrLLGjjrNxEtE1i7UekL9yyVf7diMAJWxoZkfoo6GrtnayUNiVTfvfRRqNxBmgs3CKxsOnaFwZ7q3AbQbQRPNPF2p4q3Ealub0siIjc4TH7qm6gbMDPGuucd2sT91PuReoDMI2NqF3mka0BH6+1kwRO2IZzLwmiPAVQNgDaRBFuGgIAAACBEwAAAAROAPCoX/JV2z/DYnUJAAInAMBOp61WHgIAAicAANAv9n7nPUDgBAAggHRcakHgBIETANAUFqcAeZJX7ogHCJwA4HI6rqJrXGwA0BkBgRMACJzAlqdF+08woDMCAicABCFwlu0PnLtddQd3K1aZUgcInADQjMDJCCd2oWOEk84ICJwA4HPpgv1DWEyZehebhgACJwAcPnBqGMHqMqlmvSiVq9ieNhORNh40CJwA4HdPNZyzmIgSKryIK08BAicANEUqv2H7Z8TaqWY9WTZy9pcNrjwFgRMAfC5TqikdN8n0cZMMnZFdfBUhcILACQC+9ouGESwRdiF7UTJb1rJbiGstQeAEAJ+797Ji+2ewQ92rgdP+shELt0gszDVDIHACgG9lSjWlI1SwC9mjnZFsmc4IQOAEgMOZWylr+ZzThArvlY3n60rH+Zt0RkDgBOB7qVxFTS+tKh0Hn7vRT8trWj5n+ESH56ZM04Wqml5aVTrOoXSj2//WUzYInAga1o8AATP2MKe278Ad6gvLxEBPYOqC6aVVdXtp1fbPiVumzFw45qnneuPRWzW/UvL073AYc8/X1eTjgu2fY5mG3Pnuc9pfBAojnECAjD54pT487mV+pSQ3Hr0NzGiWrtFNr41gfRg2RUTSxZqMPngVmLKha3TzYm87lREInAD8GzZ3O3cyKKFz6reC0nU/9lBf2NNhc3voDELZmF5aVZnSppbPGuwNUSGBwAkgWGEzKKEzXaiq2WfrWj4rFm6ReLc37i38WNgMStnIlGpK18h3PXC2M50OAieA4IXNIASL8V/f6AsUx70xgrWXsBmIsrH4Rhj5BgicADSETT8Hi/HFvLbpUq+Eiv2Eze1lw29rOm88eqvlitOtzgjT6SBwAgh62PRjsLjx6K2WQ94bvDCdfpCw2eCnjURzz9cP/BwOwjINptNB4ARA2PwwWFy+/9LTZ3UeJlgd1MjJDt8/k3SxJpfuvvB02dB1BNJ2TKeDwAmAsLmDTGlTfljIydzzdc8FCyfCpmUaMnKq0wjCMynWlIz+87XMLq95rmxML61qD5siIiOnOgQgcAIgbO4SLCYfF2R8Me+ZYDG+mNceNkXcfb6iXQF86klRxh7mPFM2bjx6q+Xg/w8N9YUlFjaZTgeBEwBh82OS2YpcuvtCJbNl14aLVK6iLt9/qXXN5nZX+zsDFTa3nnt+Qy7dfaHcPNqZLlTV6INXjnRERESG+zjsHcFGbwsgbO5bItIm185YrtkckynV1PTSmjgVJkTce0Wo7qUFiUibXO3vlEQ05JpnMfVbQdsZrLs9k1vno7S3IHACIGweNGSNnOxwLHhmSjU1t1KWn5bXtJ2juJufvz3muilTJ9axuil4Ti+tKjeUjVtfR1wVwAECJwDPhM0Pw8VQX7sMn+jQUqcks2WVzFYcHdHcbuRkh1z7opuw6YKy0bhR6l627HjQbHTK3DjyDRA4AeyJE8e6fIplGnKxt10Ge0NNP2+wETJT+Q3ReYj7Xn7nO9997qq6NJktq/HFN4EqG6nchiRfVlxXNmYufMZmIYDACXjX9NKqI7tt9yMRaZO4Zcppy5S+cMsnpxUzpZrKlDalWFOSLtbkabEqmdKmuGEUdzfXz3ZrG73zU9mIW6YkIm31g/ItU2Lhlk8Gs1SuohplI1PalKfFqqvLxpX+Lrna30U7CxA4AQInDheo3bgZZHZ5TU09KfIFORyoZy4co40F3uNYJMCjhvvaxWKmzjGWacjEQLcrf7aRU50GZcNZ18/28BAAAifgfbGwafz4dVRi4RYehgP+dsZy9dq8O999bsQtky/KAW46MgwgcAI4tHh3q/Hzt8cJFpoN9YVdt25zJzMXjlE2NBvsDbn6elPAKbwUgE+45Ygk34d8D67Nc8sRSZQNILgY4QR8YubCMWOoL8yDsFH9mBvvBYqJgR7KhoaywbpNYHf0xACfcfoaPz8Hih+/jnp6bd7c83U1v1L2xM+6WnsnXhmx90PZAAicAA4ULNx2KDxh0x2S2bKafPTWFbfw+MXNc0ebfpg9QOAE4AnpQlX9sJAjWBA2dywb47++cdWtPF7lxoP/AQInAO3YTETY3M34Yl4lsxW+aMoGQOAEcHis69y/uGXK9bM9vg8U3EpE2AQInACaJpWrqPHFN0yx78Fgb0hunosEpn5kin1/HRGOPgIInAA+gWnUj7vS3yVX+7sCWTcyEv5xIyc75NoX3bSbAIETwF4ks2U19aTIiNY2sXCL3PzyaOCnSVO5irrxuEDZ+KBsTJztlkQ0RJsJEDgB7BcjWnVBHtXczfTSqvppeS3wSzAY1QQInACaIFOqqRuPCpLKbwTud09E2mRioFtiYZO6cJeyMb20JkG8FjMRaZOr/Z2MagIETgDNlMpV1PTSWiCCJ2Fif9KFqpp6UgxE2YiFW+TKXzo5WxMgcAIgeBI0nSobcytlX454xi1Tvj/ZQdAECJwAdGpMp97Llj29js8yDbnY2y4jJzs4N7GJZWN2eV3mV0qeX+M51BeW4b52OiEAgROA0+aer6v5lbKnRj0He0Ny8XiIESsNZePey4p46agtRjMBAicAF8uUaiqZrUgqv+G6gNEYyUxEWgkShM8/lY1EtI0OCEDgBOBFqVxF/ZKvSiq3oX30M26ZctpqlbhlSiLSxnS5i8vG02JV69R7LNxSLxOUDYDACcB/0oWqypQ3JV2s1UNGVUmmvHngQ8QTkbatABELt0jcMt+PVrHezmsypZpKF2uSLtYkU6qXicOUjbhlSpd5ZKtsxNqPSF+4hbIBEDgBoD7ytds/q4cHzsSkbFA2AAAAAAD78P8B2hu62gUtTm0AAAAASUVORK5CYII=;" vertex="1" parent="1">
          <mxGeometry x="90.72" y="280" width="103.57" height="40" as="geometry" />
        </mxCell>
        <mxCell id="1DGZzi-8BsjLAn0v7RLl-26" value="" style="endArrow=classicThin;html=1;rounded=0;strokeColor=#999999;endFill=1;" edge="1" parent="1">
          <mxGeometry width="50" height="50" relative="1" as="geometry">
            <mxPoint x="240" y="280" as="sourcePoint" />
            <mxPoint x="360" y="280" as="targetPoint" />
          </mxGeometry>
        </mxCell>
        <mxCell id="1DGZzi-8BsjLAn0v7RLl-31" value="" style="endArrow=classicThin;html=1;rounded=0;strokeColor=#999999;endFill=1;" edge="1" parent="1">
          <mxGeometry width="50" height="50" relative="1" as="geometry">
            <mxPoint x="520" y="250" as="sourcePoint" />
            <mxPoint x="590" y="210" as="targetPoint" />
          </mxGeometry>
        </mxCell>
        <mxCell id="1DGZzi-8BsjLAn0v7RLl-32" value="" style="endArrow=classicThin;html=1;rounded=0;strokeColor=#999999;endFill=1;" edge="1" parent="1">
          <mxGeometry width="50" height="50" relative="1" as="geometry">
            <mxPoint x="520" y="320" as="sourcePoint" />
            <mxPoint x="590" y="370" as="targetPoint" />
          </mxGeometry>
        </mxCell>
        <mxCell id="1DGZzi-8BsjLAn0v7RLl-34" value="" style="endArrow=classicThin;html=1;rounded=0;strokeColor=#999999;endFill=1;curved=1;" edge="1" parent="1">
          <mxGeometry width="50" height="50" relative="1" as="geometry">
            <mxPoint x="430" y="384" as="sourcePoint" />
            <mxPoint x="890" y="380" as="targetPoint" />
            <Array as="points">
              <mxPoint x="430" y="490" />
              <mxPoint x="660" y="570" />
              <mxPoint x="890" y="490" />
            </Array>
          </mxGeometry>
        </mxCell>
        <mxCell id="1DGZzi-8BsjLAn0v7RLl-35" value="&lt;font color=&quot;#999999&quot; face=&quot;Lucida Console&quot; style=&quot;font-size: 14px;&quot;&gt;&lt;u&gt;API&lt;/u&gt;&lt;/font&gt;" style="text;html=1;strokeColor=none;fillColor=none;align=center;verticalAlign=middle;whiteSpace=wrap;rounded=0;" vertex="1" parent="1">
          <mxGeometry x="270" y="280" width="60" height="30" as="geometry" />
        </mxCell>
      </root>
    </mxGraphModel>
  </diagram>
</mxfile>
